<svg width="32" height="42" viewBox="0 0 32 42" fill="none" xmlns="http://www.w3.org/2000/svg">
<g clip-path="url(#clip0_39_887)">
<path d="M18.6667 11.1562V0H2C0.891667 0 0 0.877734 0 1.96875V40.0312C0 41.1223 0.891667 42 2 42H30C31.1083 42 32 41.1223 32 40.0312V13.125H20.6667C19.5667 13.125 18.6667 12.2391 18.6667 11.1562ZM23.675 19.8926L18.6667 27.5625L23.675 35.2324C24.1 35.8887 23.625 36.75 22.8333 36.75H19.925C19.5583 36.75 19.2167 36.5531 19.0417 36.2332C17.4083 33.2637 16 30.5977 16 30.5977C15.4667 31.8117 15.1667 32.2383 12.95 36.2414C12.775 36.5613 12.4417 36.7582 12.075 36.7582H9.16667C8.375 36.7582 7.9 35.8969 8.325 35.2406L13.35 27.5707L8.325 19.9008C7.89167 19.2445 8.375 18.3832 9.16667 18.3832H12.0667C12.4333 18.3832 12.775 18.5801 12.95 18.9C15.125 22.9031 14.6167 21.6562 16 24.5191C16 24.5191 16.5083 23.5594 19.05 18.9C19.225 18.5801 19.5667 18.3832 19.9333 18.3832H22.8333C23.625 18.375 24.1 19.2363 23.675 19.8926ZM32 9.99961V10.5H21.3333V0H21.8417C22.375 0 22.8833 0.205078 23.2583 0.574219L31.4167 8.61328C31.7917 8.98242 32 9.48281 32 9.99961Z" fill="#183AD3"/>
</g>
<defs>
<clipPath id="clip0_39_887">
<rect width="32" height="42" fill="white"/>
</clipPath>
</defs>
</svg>
