<svg width="66" height="66" viewBox="0 0 66 66" fill="none" xmlns="http://www.w3.org/2000/svg">
<path d="M19.0278 23.7736C19.2315 23.8611 19.4296 23.9608 19.6214 24.0721C22.5013 25.9656 25.3788 27.8627 28.2539 29.7635C28.7433 30.0869 28.7708 30.1883 28.6085 30.6553C27.759 33.0994 26.9107 35.5438 26.0635 37.9887C25.1567 40.5934 24.2474 43.1972 23.3356 45.8001C22.4173 48.431 21.4995 51.0619 20.5822 53.6931C20.207 54.7666 19.8245 55.8376 19.4485 56.9109C19.4298 56.9877 19.4184 57.0662 19.4146 57.1453C19.4717 57.1387 19.5055 57.1452 19.5176 57.1319C20.4014 56.1615 21.284 55.19 22.1654 54.2174C22.2422 54.1326 22.3107 54.0401 22.3893 53.9569C23.4518 52.8333 24.515 51.7102 25.5788 50.5878C26.6421 49.4647 27.709 48.345 28.7674 47.2173C29.4329 46.5084 30.0832 45.7854 30.7446 45.0726C32.2624 43.4367 33.7815 41.8021 35.302 40.1687C36.0223 39.3932 36.7388 38.6143 37.4602 37.8399C38.2989 36.9393 39.143 36.0438 39.9809 35.1425C40.6428 34.4304 41.2964 33.7105 41.9579 32.9979C43.4958 31.3414 45.0349 29.686 46.5752 28.0318C47.2564 27.2984 47.9351 26.5627 48.6115 25.8249C48.87 25.5431 49.12 25.2535 49.4073 24.9298C49.6108 25.6965 49.6801 35.7491 49.5366 40.5558C49.3148 40.7031 49.0676 40.89 48.8004 41.0411C46.4657 42.3606 44.1288 43.6761 41.7896 44.9876C40.1711 45.8937 38.5414 46.7799 36.9243 47.6887C34.761 48.9044 32.6088 50.1397 30.445 51.3543C28.8276 52.2622 27.1972 53.1469 25.5765 54.0488C23.6571 55.1169 21.7408 56.1905 19.8276 57.2697C19.7185 57.3566 19.6233 57.4597 19.5452 57.5752H19.0279L19.0278 23.7736Z" fill="#183AD3"/>
<path d="M19.0278 8.4248C19.954 8.86418 20.8822 9.29923 21.8049 9.74577C22.0605 9.86947 22.2952 10.0356 22.5469 10.1683C25.0252 11.4743 27.5043 12.7789 29.984 14.0822C31.6763 14.9759 33.3621 15.8815 35.0524 16.779C37.0209 17.8242 38.9903 18.8678 40.9605 19.9099C42.7778 20.8734 44.5969 21.8334 46.4099 22.805C46.985 23.1132 47.5427 23.4537 48.1913 23.8272L38.9865 31.3816C36.3409 30.0772 33.7521 28.7977 31.1605 27.524C28.645 26.2877 26.1277 25.0551 23.6085 23.8261C22.2209 23.1507 20.8251 22.4921 19.4307 21.8306C19.2996 21.7788 19.165 21.7365 19.0279 21.704L19.0278 8.4248Z" fill="#183AD3"/>
</svg>
