<svg width="57" height="44" viewBox="0 0 57 44" fill="none" xmlns="http://www.w3.org/2000/svg">
<path d="M22.1667 21.1097H19.8199C19.8814 20.6663 20.1156 19.8963 21.0347 19.8963C21.6359 19.8963 22.1008 20.2245 22.1667 21.1097ZM34.338 19.9169C34.2961 19.9169 33.0813 19.7648 33.0813 21.6356C33.0813 23.5065 34.2952 23.3544 34.338 23.3544C35.4958 23.3544 35.5947 22.1908 35.5947 21.6356C35.5947 19.7656 34.3781 19.9169 34.338 19.9169ZM12.6762 21.9588C12.5786 22.0326 12.501 22.1282 12.45 22.2373C12.3989 22.3464 12.376 22.4657 12.3832 22.5852C12.3832 22.996 12.5684 23.1052 12.6762 23.1911C13.0948 23.5091 14.0184 23.3733 14.5403 23.2727V21.817C14.0665 21.725 13.0503 21.6485 12.6762 21.9588ZM56.9999 19.9375C56.9999 27.4639 49.875 33.2054 42.2726 31.662C40.6365 34.4979 35.9732 37.742 30.4985 35.2395C26.8327 43.4938 14.6552 43.1613 11.4561 34.7952C0.793494 36.8483 -4.4701 22.9041 4.75232 17.6696C1.6574 10.8436 6.7687 2.75 14.9331 2.75C16.6309 2.75102 18.3057 3.12903 19.8279 3.85476C21.3501 4.5805 22.6787 5.63449 23.7111 6.93516C25.5547 5.09609 28.1107 3.94367 30.9385 3.94367C34.7094 3.94367 37.9744 5.96492 39.7379 8.97703C48.0046 5.48109 56.9999 11.403 56.9999 19.9375ZM10.7275 22.6703C10.7275 21.6597 9.68638 21.3666 9.13598 21.1948C8.66662 21.0134 7.94165 20.8931 7.94165 20.4265C7.94165 19.6135 9.45571 19.8541 10.1834 20.2443C10.1834 20.2443 10.2876 20.3053 10.3294 20.2039C10.3508 20.1438 10.5396 19.6384 10.5601 19.5774C10.5681 19.5534 10.566 19.5273 10.5544 19.5046C10.5427 19.482 10.5224 19.4647 10.4977 19.4563C9.3996 18.8005 6.8729 18.7249 6.8729 20.5477C6.8729 21.6184 7.89623 21.8745 8.46534 22.0232C8.88571 22.159 9.63829 22.281 9.63829 22.7709C9.63829 23.1146 9.3239 23.3776 8.82159 23.3776C8.21128 23.3766 7.61768 23.1852 7.1294 22.8319C7.08754 22.8121 7.00293 22.7709 6.98245 22.8929L6.7687 23.5348C6.72684 23.6156 6.78918 23.6363 6.78918 23.656C6.94504 23.7763 7.70653 24.2223 8.82159 24.2223C9.99454 24.2223 10.7275 23.6156 10.7275 22.666V22.6703ZM13.5775 19.0111C12.6753 19.0111 11.9156 19.2835 11.6716 19.4563C11.6618 19.4628 11.6535 19.4711 11.6471 19.4808C11.6408 19.4904 11.6365 19.5012 11.6345 19.5125C11.6325 19.5238 11.6328 19.5353 11.6355 19.5465C11.6383 19.5576 11.6432 19.5682 11.6502 19.5774L11.8809 20.1841C11.8871 20.2052 11.9015 20.2232 11.9211 20.2344C11.9406 20.2455 11.9638 20.2491 11.986 20.2443C12.0439 20.2443 12.5916 19.9005 13.4938 19.9005C13.8501 19.9005 14.1226 19.9616 14.3114 20.1034C14.632 20.344 14.5839 20.8158 14.5839 21.0126C14.1573 20.9868 12.8819 20.717 11.9646 21.3357C11.7555 21.4741 11.5859 21.6612 11.4717 21.8796C11.3574 22.098 11.3021 22.3407 11.3109 22.5852C11.3109 23.0923 11.4454 23.479 11.8978 23.8184C12.9879 24.5197 15.129 23.9903 15.2911 23.9396C15.4318 23.9121 15.6055 23.8829 15.6055 23.778V20.8665C15.609 20.4703 15.634 19.0068 13.5766 19.0068L13.5775 19.0111ZM17.7234 17.2081C17.7243 17.1946 17.7222 17.181 17.7173 17.1683C17.7123 17.1556 17.7046 17.1441 17.6946 17.1345C17.6847 17.1249 17.6727 17.1174 17.6596 17.1126C17.6464 17.1079 17.6323 17.1058 17.6183 17.1067H16.7437C16.7297 17.106 16.7158 17.1081 16.7027 17.1129C16.6896 17.1178 16.6778 17.1252 16.6679 17.1348C16.6581 17.1444 16.6505 17.1559 16.6456 17.1685C16.6407 17.1812 16.6386 17.1947 16.6395 17.2081V23.9972C16.6386 24.0107 16.6407 24.0242 16.6456 24.0368C16.6505 24.0494 16.6581 24.0609 16.6679 24.0705C16.6778 24.0801 16.6896 24.0876 16.7027 24.0924C16.7158 24.0972 16.7297 24.0994 16.7437 24.0986H17.6236C17.6377 24.0995 17.6517 24.0975 17.6649 24.0927C17.6781 24.0879 17.69 24.0805 17.7 24.0709C17.7099 24.0613 17.7176 24.0497 17.7226 24.037C17.7276 24.0243 17.7296 24.0107 17.7287 23.9972L17.7234 17.2081ZM22.6886 19.6943C22.5016 19.4958 22.0839 19.0472 21.1167 19.0472C20.8041 19.0472 19.8555 19.067 19.2731 19.8155C18.7075 20.4712 18.687 21.3718 18.687 21.6554C18.687 21.9235 18.7004 22.8809 19.3158 23.4747C19.5509 23.7248 20.1227 24.182 21.3473 24.182C22.311 24.182 22.8142 23.98 23.0021 23.8588C23.044 23.8382 23.0654 23.7978 23.0235 23.6973L22.8142 23.1103C22.8035 23.088 22.7852 23.0699 22.7623 23.059C22.7395 23.048 22.7135 23.0449 22.6886 23.0502C22.4579 23.1309 22.1231 23.2925 21.3269 23.2925C19.7754 23.2925 19.8262 22.0258 19.8181 21.8573H23.1286C23.1528 21.8569 23.1761 21.8487 23.1949 21.8341C23.2138 21.8195 23.2271 21.7992 23.2328 21.7766C23.207 21.7766 23.4172 20.5133 22.6904 19.6943H22.6886ZM25.9563 24.2223C27.1293 24.2223 27.8632 23.6156 27.8632 22.666C27.8632 21.6554 26.8211 21.3623 26.2707 21.1905C25.902 21.0478 25.0764 20.9 25.0764 20.4222C25.0764 20.0991 25.3694 19.8765 25.8307 19.8765C26.3488 19.8865 26.8576 20.0109 27.3181 20.24C27.3181 20.24 27.4232 20.301 27.465 20.1996C27.4855 20.1395 27.6743 19.6341 27.6948 19.5731C27.7028 19.5491 27.7008 19.523 27.6891 19.5003C27.6775 19.4777 27.6572 19.4604 27.6325 19.452C26.928 19.0309 26.1416 19.0274 25.8307 19.0274C24.762 19.0274 24.0085 19.6539 24.0085 20.5434C24.0085 21.6141 25.031 21.8702 25.6001 22.0189C26.1442 22.1908 26.773 22.2991 26.773 22.7666C26.773 23.1103 26.4595 23.3733 25.9563 23.3733C25.3461 23.372 24.7525 23.1806 24.2641 22.8276C24.2515 22.8171 24.236 22.8103 24.2196 22.8078C24.2031 22.8054 24.1862 22.8075 24.1709 22.8139C24.1556 22.8202 24.1425 22.8306 24.133 22.8438C24.1235 22.857 24.118 22.8725 24.1172 22.8886L23.9079 23.5348C23.866 23.6156 23.9284 23.6363 23.9284 23.656C24.0816 23.7763 24.8484 24.2223 25.9581 24.2223H25.9563ZM31.8033 19.25C31.8033 19.189 31.7819 19.1486 31.6982 19.1486H30.6508C30.6508 19.1366 30.7345 18.3803 31.0489 18.077C31.4194 17.7203 32.0963 17.936 32.1177 17.936C32.2219 17.9764 32.2432 17.936 32.2637 17.8956L32.5158 17.2279C32.5781 17.1471 32.5158 17.1273 32.4944 17.1067C32.0411 16.9348 30.9492 16.8601 30.3159 17.4711C29.8279 17.942 29.6925 18.6673 29.6034 19.1486H28.8491C28.822 19.1508 28.7967 19.1622 28.7776 19.1808C28.7585 19.1994 28.7469 19.2239 28.7449 19.25L28.6184 19.9169C28.6184 19.977 28.6398 20.0174 28.7235 20.0174H29.4565C28.6986 24.1338 28.6772 24.3323 28.5347 24.7887C28.4385 25.0998 28.2417 25.3816 28.011 25.4555C28.003 25.4555 27.6654 25.5999 27.1524 25.4349C27.1524 25.4349 27.0687 25.3945 27.0269 25.4959C27.0055 25.557 26.7962 26.082 26.7748 26.143C26.7534 26.2041 26.7748 26.2642 26.8167 26.2642C27.2718 26.4361 27.9745 26.4163 28.4091 26.2642C28.9684 26.0683 29.2748 25.5862 29.436 25.1522C29.6809 24.4896 29.6863 24.3109 30.4834 20.0183H31.5726C31.5997 20.0161 31.6252 20.0048 31.6444 19.9862C31.6637 19.9676 31.6755 19.9431 31.6777 19.9169L31.8033 19.25ZM36.5583 20.625C36.5084 20.4806 36.1041 19.0687 34.3166 19.0687C32.9584 19.0687 32.2682 19.928 32.0758 20.625C31.9867 20.8828 31.7926 21.8281 32.0758 22.6463C32.0838 22.672 32.4686 24.2034 34.3166 24.2034C35.6481 24.2034 36.3562 23.3776 36.5583 22.6463C36.8442 21.8204 36.6483 20.8828 36.5583 20.625ZM40.6018 19.1898C40.1565 19.048 39.1215 19.0266 38.6326 19.6548V19.2706C38.6334 19.2572 38.6312 19.2437 38.6262 19.2311C38.6212 19.2185 38.6134 19.207 38.6035 19.1975C38.5936 19.188 38.5816 19.1807 38.5686 19.1759C38.5554 19.1712 38.5415 19.1692 38.5275 19.1701H37.6903C37.6763 19.1692 37.6624 19.1712 37.6493 19.1759C37.6362 19.1807 37.6242 19.188 37.6143 19.1975C37.6044 19.207 37.5966 19.2185 37.5916 19.2311C37.5866 19.2437 37.5844 19.2572 37.5852 19.2706V24.0213C37.5844 24.0348 37.5866 24.0483 37.5916 24.0609C37.5966 24.0736 37.6044 24.085 37.6143 24.0946C37.6242 24.1042 37.6361 24.1116 37.6492 24.1165C37.6623 24.1213 37.6763 24.1234 37.6903 24.1227H38.5489C38.5629 24.1234 38.5769 24.1213 38.59 24.1165C38.6031 24.1116 38.615 24.1042 38.6249 24.0946C38.6348 24.085 38.6425 24.0736 38.6475 24.0609C38.6525 24.0483 38.6547 24.0348 38.654 24.0213V21.6348C38.654 21.3847 38.6584 20.6577 39.0512 20.3414C39.4876 19.9203 40.1199 20.0527 40.2455 20.0784C40.2723 20.078 40.2983 20.0701 40.3206 20.0558C40.3428 20.0415 40.3604 20.0213 40.3711 19.9977C40.4756 19.7738 40.5666 19.5442 40.6436 19.3102C40.6525 19.2884 40.6531 19.2644 40.6454 19.2423C40.6378 19.2201 40.6223 19.2013 40.6018 19.189V19.1898ZM44.7708 23.8391L44.582 23.2126C44.5401 23.1112 44.4564 23.1516 44.4564 23.1516C44.0797 23.308 43.5524 23.314 43.4509 23.314C43.0376 23.314 41.9217 23.2169 41.9217 21.6159C41.9217 21.0805 42.0864 19.9177 43.3885 19.9177C43.7363 19.9092 44.0832 19.9571 44.4145 20.0595C44.4145 20.0595 44.4982 20.0999 44.5196 19.9985C44.6033 19.7759 44.6657 19.6144 44.7503 19.3514C44.7708 19.2706 44.7084 19.2509 44.6871 19.2509C43.6548 18.9183 42.6974 19.0334 42.2147 19.2509C42.0731 19.3145 40.7692 19.8086 40.7692 21.6159C40.7692 21.8651 40.7175 24.2034 43.3467 24.2034C43.8188 24.2025 44.2869 24.1202 44.7289 23.9602C44.7481 23.9465 44.7624 23.9275 44.7699 23.9056C44.7774 23.8838 44.7777 23.8602 44.7708 23.8382V23.8391ZM49.5686 20.4428C49.4973 20.185 49.0903 19.048 47.578 19.048C46.153 19.048 45.4833 19.9169 45.2945 20.6456C45.1917 20.9732 45.1422 21.3141 45.1475 21.6563C45.1475 23.8795 46.8254 24.1828 47.8087 24.1828C48.7724 24.1828 49.2747 23.9809 49.4635 23.8597C49.5053 23.8391 49.5267 23.7987 49.4849 23.6981L49.2747 23.1112C49.2639 23.0889 49.2456 23.0708 49.2228 23.0598C49.2 23.0489 49.174 23.0458 49.1491 23.051C48.9184 23.1318 48.5835 23.2934 47.7873 23.2934C46.2359 23.2934 46.2866 22.0266 46.2795 21.8582H49.5891C49.6133 21.8576 49.6367 21.8494 49.6557 21.8348C49.6746 21.8203 49.6881 21.8001 49.6941 21.7774C49.6728 21.7766 49.7779 21.1698 49.5686 20.442V20.4428ZM47.4943 19.8971C46.5743 19.8971 46.3365 20.6705 46.2795 21.1105H48.6281C48.5497 20.0862 47.9494 19.8963 47.4943 19.8963V19.8971Z" fill="#183AD3"/>
</svg>
