<svg width="199" height="155" viewBox="0 0 199 155" fill="none" xmlns="http://www.w3.org/2000/svg">
<g clip-path="url(#clip0_158_583)">
<path d="M77.3892 74.3637H69.196C69.4106 72.8016 70.2283 70.0891 73.4372 70.0891C75.536 70.0891 77.1591 71.2455 77.3892 74.3637ZM119.882 70.1617C119.736 70.1617 115.495 69.6259 115.495 76.2164C115.495 82.8069 119.733 82.2711 119.882 82.2711C123.924 82.2711 124.269 78.1721 124.269 76.2164C124.269 69.6289 120.022 70.1617 119.882 70.1617ZM44.2557 77.3547C43.915 77.6149 43.6439 77.9515 43.4658 78.3358C43.2877 78.7201 43.2077 79.1407 43.2327 79.5616C43.2327 81.0087 43.8795 81.3932 44.2557 81.6959C45.7171 82.816 48.9416 82.3377 50.7637 81.9835V76.8552C49.1095 76.5312 45.5617 76.2618 44.2557 77.3547ZM199 70.2344C199 96.7478 174.125 116.974 147.583 111.536C141.871 121.527 125.591 132.955 106.477 124.139C93.6793 153.217 51.1648 152.045 39.9959 122.574C2.77045 129.806 -15.606 80.6848 16.5916 62.2452C5.78655 38.199 23.6313 9.6875 52.1349 9.6875C58.0625 9.69108 63.9097 11.0227 69.2239 13.5793C74.5381 16.1358 79.1768 19.8488 82.7809 24.4307C89.2173 17.9521 98.1412 13.8925 108.013 13.8925C121.179 13.8925 132.578 21.0128 138.734 31.6236C167.595 19.3084 199 40.1698 199 70.2344ZM37.4524 79.8613C37.4524 76.3012 33.8176 75.2689 31.896 74.6634C30.2573 74.0246 27.7263 73.6008 27.7263 71.9569C27.7263 69.0931 33.0122 69.9407 35.5526 71.3151C35.5526 71.3151 35.9164 71.5301 36.0625 71.1729C36.1372 70.9609 36.7963 69.1809 36.8679 68.9659C36.8957 68.8812 36.8886 68.7892 36.8479 68.7095C36.8073 68.6298 36.7364 68.5687 36.6502 68.5391C32.8163 66.2292 23.995 65.9628 23.995 72.3838C23.995 76.1559 27.5677 77.058 29.5546 77.5817C31.0222 78.0601 33.6497 78.4899 33.6497 80.2155C33.6497 81.4265 32.552 82.3528 30.7984 82.3528C28.6677 82.3493 26.5952 81.675 24.8905 80.4305C24.7444 80.3608 24.449 80.2155 24.3775 80.6454L23.6313 82.9068C23.4851 83.1914 23.7028 83.2641 23.7028 83.3337C24.2469 83.7575 26.9054 85.3287 30.7984 85.3287C34.8934 85.3287 37.4524 83.1914 37.4524 79.8462V79.8613ZM47.4024 66.9709C44.2526 66.9709 41.6003 67.9306 40.7484 68.5391C40.7143 68.562 40.6853 68.5914 40.663 68.6254C40.6408 68.6594 40.6257 68.6974 40.6188 68.7372C40.6118 68.777 40.6131 68.8177 40.6225 68.857C40.632 68.8962 40.6494 68.9333 40.6737 68.9659L41.4791 71.1032C41.5009 71.1774 41.5511 71.2407 41.6193 71.2801C41.6875 71.3195 41.7686 71.332 41.846 71.3151C42.0481 71.3151 43.9603 70.1042 47.1101 70.1042C48.3539 70.1042 49.3054 70.3191 49.9646 70.8186C51.0839 71.6663 50.916 73.3283 50.916 74.0216C49.4266 73.9308 44.974 72.9802 41.7713 75.1599C41.0413 75.6474 40.4494 76.3063 40.0504 77.0758C39.6515 77.8452 39.4584 78.7002 39.4891 79.5616C39.4891 81.3478 39.9586 82.7101 41.5381 83.9059C45.344 86.3762 52.819 84.5113 53.3849 84.3327C53.8761 84.2358 54.4825 84.1329 54.4825 83.7636V73.5069C54.4949 72.1113 54.582 66.9558 47.3993 66.9558L47.4024 66.9709ZM61.8766 60.6195C61.8798 60.5718 61.8725 60.524 61.8552 60.4792C61.8379 60.4345 61.8109 60.3938 61.7762 60.36C61.7415 60.3262 61.6997 60.3 61.6538 60.2831C61.6078 60.2663 61.5587 60.2592 61.5097 60.2623H58.4563C58.4075 60.2596 58.3587 60.2671 58.3131 60.2841C58.2675 60.3012 58.2262 60.3274 58.1918 60.3612C58.1574 60.395 58.1308 60.4355 58.1136 60.48C58.0965 60.5245 58.0893 60.5721 58.0925 60.6195V84.5355C58.0893 84.583 58.0965 84.6306 58.1136 84.6751C58.1308 84.7196 58.1574 84.7601 58.1918 84.7939C58.2262 84.8276 58.2675 84.8539 58.3131 84.871C58.3587 84.888 58.4075 84.8954 58.4563 84.8928H61.5283C61.5773 84.8959 61.6265 84.8888 61.6724 84.8719C61.7184 84.8551 61.7601 84.8289 61.7949 84.7951C61.8296 84.7613 61.8565 84.7206 61.8738 84.6758C61.8911 84.6311 61.8984 84.5833 61.8952 84.5355L61.8766 60.6195ZM79.2113 69.3776C78.5584 68.6783 77.1001 67.098 73.7233 67.098C72.6319 67.098 69.3204 67.1677 67.2869 69.8045C65.3124 72.1144 65.2409 75.287 65.2409 76.286C65.2409 77.2306 65.2876 80.603 67.4361 82.6949C68.257 83.5759 70.2532 85.1864 74.5286 85.1864C77.893 85.1864 79.6498 84.475 80.3058 84.0481C80.452 83.9755 80.5266 83.8332 80.3805 83.479L79.6498 81.4113C79.6123 81.3328 79.5484 81.269 79.4687 81.2305C79.389 81.192 79.2983 81.181 79.2113 81.1994C78.406 81.484 77.2369 82.0531 74.4571 82.0531C69.0406 82.0531 69.2178 77.5908 69.1898 76.9975H80.7474C80.8318 76.9958 80.9132 76.9669 80.979 76.9155C81.0448 76.864 81.0913 76.7928 81.1112 76.7129C81.021 76.7129 81.7548 72.2627 79.2176 69.3776H79.2113ZM90.6196 85.3287C94.7147 85.3287 97.2768 83.1914 97.2768 79.8462C97.2768 76.286 93.6388 75.2537 91.7172 74.6482C90.43 74.1457 87.5476 73.625 87.5476 71.9418C87.5476 70.8035 88.5706 70.0194 90.1812 70.0194C91.9898 70.0548 93.7661 70.4929 95.3739 71.3C95.3739 71.3 95.7408 71.5149 95.8869 71.1577C95.9584 70.9458 96.6176 69.1657 96.6891 68.9508C96.717 68.866 96.7098 68.7741 96.6692 68.6944C96.6286 68.6147 96.5577 68.5536 96.4715 68.5239C94.012 67.0405 91.2664 67.0284 90.1812 67.0284C86.45 67.0284 83.8194 69.2354 83.8194 72.3687C83.8194 76.1407 87.389 77.0429 89.3759 77.5666C91.2757 78.1721 93.4709 78.5535 93.4709 80.2004C93.4709 81.4113 92.3764 82.3377 90.6196 82.3377C88.4891 82.3333 86.4169 81.6591 84.7118 80.4153C84.6677 80.3784 84.6138 80.3544 84.5562 80.3458C84.4987 80.3373 84.4399 80.3446 84.3864 80.367C84.333 80.3894 84.2871 80.4259 84.2539 80.4725C84.2207 80.519 84.2016 80.5737 84.1988 80.6303L83.4681 82.9068C83.3219 83.1914 83.5396 83.2641 83.5396 83.3337C84.0744 83.7575 86.7516 85.3287 90.6259 85.3287H90.6196ZM111.033 67.8125C111.033 67.5976 110.958 67.4553 110.666 67.4553H107.009C107.009 67.4129 107.301 64.7488 108.399 63.6802C109.693 62.4238 112.056 63.1837 112.13 63.1837C112.494 63.326 112.569 63.1837 112.64 63.0414L113.52 60.6892C113.738 60.4046 113.52 60.335 113.446 60.2623C111.863 59.6568 108.051 59.3935 105.84 61.5459C104.136 63.2049 103.663 65.76 103.353 67.4553H100.719C100.625 67.4629 100.536 67.5031 100.469 67.5686C100.403 67.6341 100.362 67.7206 100.355 67.8125L99.9136 70.1617C99.9136 70.3736 99.9882 70.5159 100.28 70.5159H102.839C100.193 85.0169 100.119 85.7162 99.6213 87.3237C99.2855 88.4196 98.5983 89.4126 97.793 89.6729C97.765 89.6729 96.5865 90.1815 94.7955 89.6003C94.7955 89.6003 94.5032 89.458 94.3571 89.8152C94.2825 90.0302 93.5518 91.8799 93.4771 92.0948C93.4025 92.3098 93.4771 92.5217 93.6233 92.5217C95.2122 93.1271 97.6655 93.0575 99.1829 92.5217C101.136 91.8314 102.205 90.1331 102.768 88.6043C103.623 86.2702 103.642 85.6405 106.425 70.5189H110.227C110.322 70.5114 110.411 70.4713 110.478 70.4059C110.545 70.3405 110.586 70.2539 110.594 70.1617L111.033 67.8125ZM127.634 72.6562C127.46 72.1477 126.048 67.1737 119.807 67.1737C115.066 67.1737 112.656 70.2011 111.984 72.6562C111.673 73.5645 110.995 76.8945 111.984 79.7766C112.012 79.8674 113.355 85.2621 119.807 85.2621C124.456 85.2621 126.928 82.3528 127.634 79.7766C128.632 76.8673 127.948 73.5645 127.634 72.6562ZM141.75 67.6006C140.196 67.1011 136.582 67.0254 134.875 69.2384V67.8852C134.878 67.8377 134.87 67.7902 134.853 67.7458C134.835 67.7014 134.808 67.6611 134.774 67.6277C134.739 67.5942 134.698 67.5683 134.652 67.5516C134.606 67.5349 134.557 67.5279 134.508 67.531H131.586C131.537 67.5279 131.488 67.5349 131.442 67.5516C131.397 67.5683 131.355 67.5942 131.32 67.6277C131.286 67.6611 131.259 67.7014 131.241 67.7458C131.224 67.7902 131.216 67.8377 131.219 67.8852V84.6203C131.216 84.6679 131.224 84.7155 131.241 84.7601C131.259 84.8046 131.286 84.845 131.32 84.8787C131.355 84.9125 131.396 84.9387 131.442 84.9557C131.488 84.9727 131.537 84.9802 131.586 84.9775H134.583C134.632 84.9802 134.681 84.9727 134.727 84.9557C134.772 84.9387 134.814 84.9125 134.849 84.8787C134.883 84.845 134.91 84.8046 134.928 84.7601C134.945 84.7155 134.953 84.6679 134.95 84.6203V76.2134C134.95 75.3324 134.966 72.7713 136.337 71.6572C137.86 70.1738 140.068 70.64 140.506 70.7309C140.6 70.7292 140.691 70.7015 140.768 70.6511C140.846 70.6007 140.907 70.5296 140.945 70.4463C141.31 69.6576 141.627 68.8489 141.896 68.0244C141.927 67.9479 141.929 67.8632 141.903 67.7852C141.876 67.7072 141.822 67.6408 141.75 67.5976V67.6006ZM156.305 83.9785L155.646 81.7716C155.5 81.4144 155.208 81.5566 155.208 81.5566C153.892 82.1076 152.052 82.1288 151.697 82.1288C150.254 82.1288 146.358 81.7867 146.358 76.1468C146.358 74.2607 146.934 70.1647 151.479 70.1647C152.694 70.1346 153.905 70.3035 155.061 70.6643C155.061 70.6643 155.354 70.8065 155.428 70.4493C155.721 69.6652 155.938 69.0961 156.234 68.1697C156.305 67.8852 156.088 67.8155 156.013 67.8155C152.409 66.6439 149.067 67.0496 147.381 67.8155C146.887 68.0396 142.335 69.7803 142.335 76.1468C142.335 77.0247 142.154 85.2621 151.333 85.2621C152.981 85.259 154.616 84.9688 156.159 84.4054C156.226 84.3571 156.276 84.2899 156.302 84.2129C156.328 84.136 156.329 84.0531 156.305 83.9755V83.9785ZM173.055 72.0145C172.807 71.1063 171.386 67.1011 166.106 67.1011C161.131 67.1011 158.793 70.1617 158.133 72.7289C157.775 73.8827 157.602 75.0837 157.62 76.2891C157.62 84.1208 163.479 85.1895 166.911 85.1895C170.276 85.1895 172.029 84.478 172.688 84.0512C172.835 83.9785 172.909 83.8362 172.763 83.482L172.029 81.4144C171.992 81.3358 171.928 81.272 171.848 81.2335C171.769 81.195 171.678 81.1841 171.591 81.2024C170.786 81.487 169.616 82.0562 166.837 82.0562C161.42 82.0562 161.597 77.5938 161.572 77.0005H173.127C173.212 76.9984 173.293 76.9695 173.359 76.9182C173.426 76.8668 173.473 76.7958 173.494 76.7159C173.419 76.7129 173.786 74.5756 173.055 72.0114V72.0145ZM165.814 70.0921C162.602 70.0921 161.771 72.8167 161.572 74.3667H169.772C169.498 70.7581 167.403 70.0891 165.814 70.0891V70.0921Z" fill="#00A1E0"/>
</g>
<defs>
<clipPath id="clip0_158_583">
<rect width="199" height="155" fill="white"/>
</clipPath>
</defs>
</svg>
