<svg width="75" height="75" viewBox="0 0 75 75" fill="none" xmlns="http://www.w3.org/2000/svg">
<path d="M37.5 65.625C31.9374 65.625 26.4997 63.9755 21.8746 60.8851C17.2495 57.7947 13.6446 53.4022 11.5159 48.263C9.38719 43.1238 8.83022 37.4688 9.91543 32.0131C11.0006 26.5574 13.6793 21.546 17.6126 17.6126C21.546 13.6793 26.5574 11.0006 32.0131 9.91543C37.4688 8.83022 43.1238 9.38719 48.263 11.5159C53.4022 13.6446 57.7947 17.2495 60.8851 21.8746C63.9755 26.4997 65.625 31.9374 65.625 37.5C65.6165 44.9566 62.6506 52.1054 57.378 57.378C52.1054 62.6506 44.9566 65.6165 37.5 65.625ZM37.5 11.7188C32.401 11.7188 27.4164 13.2308 23.1767 16.0637C18.937 18.8966 15.6326 22.923 13.6812 27.634C11.7299 32.3449 11.2194 37.5286 12.2141 42.5297C13.2089 47.5308 15.6643 52.1245 19.2699 55.7301C22.8755 59.3357 27.4693 61.7911 32.4703 62.7859C37.4714 63.7807 42.6552 63.2701 47.3661 61.3188C52.077 59.3675 56.1035 56.063 58.9363 51.8233C61.7692 47.5836 63.2813 42.5991 63.2813 37.5C63.2736 30.6648 60.5549 24.1117 55.7216 19.2784C50.8884 14.4452 44.3353 11.7265 37.5 11.7188Z" fill="#183AD3"/>
<path d="M37.5 50.3906C34.9505 50.3906 32.4582 49.6346 30.3384 48.2182C28.2185 46.8017 26.5663 44.7885 25.5906 42.433C24.615 40.0776 24.3597 37.4857 24.8571 34.9852C25.3545 32.4846 26.5822 30.1877 28.385 28.385C30.1877 26.5822 32.4846 25.3545 34.9852 24.8571C37.4857 24.3597 40.0776 24.615 42.433 25.5906C44.7885 26.5663 46.8017 28.2185 48.2182 30.3384C49.6346 32.4582 50.3906 34.9505 50.3906 37.5C50.3868 40.9176 49.0274 44.1941 46.6108 46.6108C44.1941 49.0274 40.9176 50.3868 37.5 50.3906ZM37.5 26.9531C35.414 26.9531 33.3749 27.5717 31.6405 28.7306C29.9061 29.8895 28.5542 31.5367 27.756 33.4639C26.9577 35.3911 26.7488 37.5117 27.1558 39.5576C27.5627 41.6035 28.5672 43.4828 30.0422 44.9578C31.5172 46.4328 33.3965 47.4373 35.4424 47.8442C37.4883 48.2512 39.6089 48.0423 41.5361 47.244C43.4633 46.4458 45.1105 45.094 46.2694 43.3595C47.4283 41.6251 48.0469 39.586 48.0469 37.5C48.0438 34.7038 46.9316 32.0229 44.9543 30.0457C42.9771 28.0684 40.2963 26.9562 37.5 26.9531Z" fill="#183AD3"/>
<path d="M37.5 57.4219C32.2164 57.4219 27.1492 55.323 23.4131 51.587C19.677 47.8509 17.5781 42.7837 17.5781 37.5001C17.5781 32.2165 19.677 27.1493 23.4131 23.4132C27.1492 19.6771 32.2164 17.5782 37.5 17.5782C40.5241 17.5701 43.5097 18.2571 46.2261 19.5861C46.3645 19.6536 46.4882 19.7476 46.5901 19.8629C46.6921 19.9782 46.7704 20.1124 46.8205 20.258C46.8706 20.4035 46.8915 20.5575 46.8821 20.7111C46.8727 20.8647 46.8331 21.015 46.7657 21.1534C46.6982 21.2917 46.6041 21.4154 46.4888 21.5174C46.3735 21.6193 46.2393 21.6976 46.0938 21.7477C45.9482 21.7978 45.7943 21.8188 45.6406 21.8093C45.487 21.7999 45.3367 21.7604 45.1984 21.6929C42.8019 20.5203 40.168 19.9143 37.5 19.9219C34.0234 19.9219 30.6248 20.9529 27.7341 22.8844C24.8434 24.8159 22.5904 27.5612 21.2599 30.7732C19.9295 33.9852 19.5814 37.5196 20.2596 40.9294C20.9379 44.3392 22.612 47.4713 25.0704 49.9297C27.5287 52.388 30.6609 54.0622 34.0707 54.7404C37.4805 55.4187 41.0149 55.0706 44.2269 53.7401C47.4388 52.4097 50.1842 50.1567 52.1157 47.266C54.0472 44.3752 55.0781 40.9767 55.0781 37.5001C55.0856 34.8431 54.4847 32.2197 53.3215 29.8309C53.1856 29.5513 53.1664 29.2292 53.2681 28.9355C53.3697 28.6417 53.5839 28.4004 53.8634 28.2646C54.143 28.1287 54.4651 28.1095 54.7588 28.2112C55.0525 28.3128 55.2939 28.5269 55.4297 28.8065C56.7482 31.5145 57.4297 34.4882 57.4219 37.5001C57.416 42.7819 55.3152 47.8457 51.5804 51.5805C47.8456 55.3153 42.7818 57.4161 37.5 57.4219Z" fill="#183AD3"/>
<path d="M52.391 24.9527L50.0473 22.609C49.8262 22.3955 49.5302 22.2774 49.223 22.2801C48.9157 22.2827 48.6218 22.406 48.4045 22.6233C48.1872 22.8405 48.064 23.1345 48.0613 23.4417C48.0586 23.749 48.1768 24.045 48.3902 24.266L48.7335 24.6094L38.0993 35.2437C37.9042 35.1884 37.7027 35.159 37.5 35.1563C37.0365 35.1563 36.5833 35.2937 36.1979 35.5512C35.8125 35.8088 35.5121 36.1748 35.3347 36.6031C35.1573 37.0314 35.1109 37.5026 35.2013 37.9573C35.2917 38.4119 35.5149 38.8295 35.8427 39.1573C36.1705 39.4851 36.5881 39.7083 37.0428 39.7987C37.4974 39.8892 37.9686 39.8427 38.3969 39.6653C38.8252 39.488 39.1912 39.1876 39.4488 38.8021C39.7063 38.4167 39.8438 37.9636 39.8438 37.5C39.841 37.2973 39.8116 37.0958 39.7564 36.9007L50.3906 26.2665L50.734 26.6098C50.955 26.8232 51.251 26.9414 51.5583 26.9387C51.8655 26.936 52.1595 26.8128 52.3767 26.5955C52.594 26.3782 52.7173 26.0843 52.7199 25.777C52.7226 25.4698 52.6045 25.1738 52.391 24.9527Z" fill="#183AD3"/>
</svg>
