<svg width="61" height="61" viewBox="0 0 61 61" fill="none" xmlns="http://www.w3.org/2000/svg">
<g clip-path="url(#clip0_39_609)">
<path d="M60.0469 0.953125H0.953125V46.7031H8.57812V60.0469H52.4219V46.7031H60.0469V0.953125ZM58.1406 2.85938V8.57812H2.85938V2.85938H58.1406ZM50.5156 58.1406H10.4844V18.1094H50.5156V58.1406ZM52.4219 44.7969V16.2031H8.57812V44.7969H2.85938V10.4844H58.1406V44.7969H52.4219Z" fill="#183AD3"/>
<path d="M6.67188 4.76562H4.76562V6.67188H6.67188V4.76562Z" fill="#183AD3"/>
<path d="M10.4844 4.76562H8.57812V6.67188H10.4844V4.76562Z" fill="#183AD3"/>
<path d="M14.2969 4.76562H12.3906V6.67188H14.2969V4.76562Z" fill="#183AD3"/>
<path d="M31.4531 20.0156H12.3906V33.3594H31.4531V20.0156ZM29.5469 31.4531H14.2969V21.9219H29.5469V31.4531Z" fill="#183AD3"/>
<path d="M18.1094 46.7031H12.3906V56.2344H18.1094V46.7031ZM16.2031 54.3281H14.2969V48.6094H16.2031V54.3281Z" fill="#183AD3"/>
<path d="M20.0156 56.2344H25.7344V39.0781H20.0156V56.2344ZM21.9219 40.9844H23.8281V54.3281H21.9219V40.9844Z" fill="#183AD3"/>
<path d="M27.6406 56.2344H33.3594V48.6094H27.6406V56.2344ZM29.5469 50.5156H31.4531V54.3281H29.5469V50.5156Z" fill="#183AD3"/>
<path d="M35.2656 56.2344H40.9844V35.2656H35.2656V56.2344ZM37.1719 37.1719H39.0781V54.3281H37.1719V37.1719Z" fill="#183AD3"/>
<path d="M42.8906 56.2344H48.6094V42.8906H42.8906V56.2344ZM44.7969 44.7969H46.7031V54.3281H44.7969V44.7969Z" fill="#183AD3"/>
<path d="M48.6094 20.0156H33.3594V21.9219H48.6094V20.0156Z" fill="#183AD3"/>
<path d="M48.6094 23.8281H37.1719V25.7344H48.6094V23.8281Z" fill="#183AD3"/>
<path d="M35.2656 23.8281H33.3594V25.7344H35.2656V23.8281Z" fill="#183AD3"/>
<path d="M48.6094 27.6406H33.3594V29.5469H48.6094V27.6406Z" fill="#183AD3"/>
<path d="M48.6094 31.4531H46.7031V33.3594H48.6094V31.4531Z" fill="#183AD3"/>
<path d="M44.7969 31.4531H33.3594V33.3594H44.7969V31.4531Z" fill="#183AD3"/>
</g>
<defs>
<clipPath id="clip0_39_609">
<rect width="61" height="61" fill="white"/>
</clipPath>
</defs>
</svg>
