<svg width="66" height="66" viewBox="0 0 66 66" fill="none" xmlns="http://www.w3.org/2000/svg">
<path d="M56.3835 36.2515H53.6705C55.8404 31.794 57.2829 27.5883 57.2829 24.283C57.2829 21.9219 56.9446 19.5876 56.2771 17.3452C56.1137 16.7962 55.5363 16.4839 54.9865 16.6467C54.4373 16.8103 54.1245 17.3879 54.288 17.9373C54.8982 19.9874 55.2076 22.1224 55.2076 24.283C55.2076 35.2774 37.0584 58.3107 33 63.3231C28.9415 58.3107 10.7923 35.2775 10.7923 24.283C10.7923 12.0377 20.7546 2.07539 32.9999 2.07539C41.4081 2.07539 48.9991 6.73548 52.811 14.2371C53.0707 14.7482 53.6953 14.9517 54.2063 14.6921C54.7171 14.4323 54.9209 13.8077 54.6613 13.2968C52.6608 9.35988 49.6225 6.0381 45.8745 3.68994C42.0209 1.27617 37.5688 0 32.9999 0C20.3172 0 9.87605 9.77367 8.80858 22.1842C5.18206 22.5875 2.35205 25.6701 2.35205 29.4025V31.0629C2.35205 35.0683 5.6108 38.3271 9.61617 38.3271H13.3809C15.5603 42.4707 18.2586 46.7422 20.9263 50.6415H10.4462C6.44083 50.6415 3.18208 53.9002 3.18208 57.9056V58.7357C3.18234 62.7413 6.44109 66 10.4465 66H32.7231C33.2827 66 33.9716 65.4403 34.3123 65.0027C36.3899 62.3333 39.508 58.5776 43.6412 52.7047C43.6906 52.712 43.7409 52.7169 43.7923 52.7169H56.3835C60.3889 52.7169 63.6476 49.4581 63.6476 45.4527V43.5157C63.6477 39.5103 60.3889 36.2515 56.3835 36.2515ZM9.6163 36.2515C6.75523 36.2515 4.42757 33.924 4.42757 31.0628V29.4024C4.42757 26.8482 6.2833 24.7205 8.71705 24.2933C8.72015 27.5969 10.1616 31.7985 12.3293 36.2514H9.6163V36.2515ZM10.4465 63.9245C7.58539 63.9245 5.25773 61.5969 5.25773 58.7357V57.9056C5.25773 55.0445 7.58526 52.7169 10.4465 52.7169H22.3672C25.8138 57.6132 29.0373 61.7203 30.8121 63.9244L10.4465 63.9245ZM61.5722 45.4529C61.5722 48.3139 59.2447 50.6416 56.3835 50.6416H45.0733C47.7411 46.7422 50.4394 42.4709 52.6186 38.3272H56.3835C59.2446 38.3272 61.5722 40.6547 61.5722 43.5159V45.4529Z" fill="#183AD3"/>
<path d="M33.0002 5.25781C22.5099 5.25781 13.9751 13.7926 13.9751 24.283C13.9751 26.0737 14.2239 27.8464 14.7144 29.5516C14.8729 30.1023 15.4481 30.4208 15.9985 30.2621C16.5492 30.1036 16.8674 29.5287 16.7091 28.978C16.2721 27.4592 16.0506 25.8796 16.0506 24.283C16.0506 14.9369 23.6542 7.33333 33.0002 7.33333C42.3463 7.33333 49.9499 14.9369 49.9499 24.283C49.9499 33.629 42.3463 41.2327 33.0002 41.2327C26.7815 41.2327 21.0714 37.8351 18.0982 32.3662C17.8245 31.8626 17.1944 31.6761 16.6909 31.95C16.1873 32.2237 16.0011 32.8538 16.2748 33.3573C19.6114 39.4952 26.0204 43.3081 33.0002 43.3081C43.4906 43.3081 52.0254 34.7733 52.0254 24.283C52.0254 13.7926 43.4906 5.25781 33.0002 5.25781Z" fill="#183AD3"/>
<path d="M45.176 14.9434H20.8238C20.2506 14.9434 19.7861 15.4078 19.7861 15.9811V33.6917C19.7861 34.265 20.2506 34.7294 20.8238 34.7294H45.176C45.7493 34.7294 46.2137 34.265 46.2137 33.6917V15.9811C46.2137 15.4078 45.7493 14.9434 45.176 14.9434ZM28.2264 17.0187H31.6855V22.6917H28.2264V17.0187ZM38.6037 32.654H21.8615V17.0187H26.1509V23.7295C26.1509 24.3027 26.6153 24.7672 27.1886 24.7672H32.7232C33.2964 24.7672 33.7609 24.3027 33.7609 23.7295V17.0187H38.6036L38.6037 32.654ZM44.1383 32.654H40.6793V17.0187H44.1383V32.654Z" fill="#183AD3"/>
<path d="M36.3208 26.5659H24.4215C23.8482 26.5659 23.3838 27.0304 23.3838 27.6036C23.3838 28.1769 23.8482 28.6413 24.4215 28.6413H36.3208C36.8941 28.6413 37.3585 28.1769 37.3585 27.6036C37.3585 27.0304 36.8941 26.5659 36.3208 26.5659Z" fill="#183AD3"/>
<path d="M36.3208 29.6099H24.4215C23.8482 29.6099 23.3838 30.0743 23.3838 30.6476C23.3838 31.2208 23.8482 31.6853 24.4215 31.6853H36.3208C36.8941 31.6853 37.3585 31.2208 37.3585 30.6476C37.3585 30.0743 36.8941 29.6099 36.3208 29.6099Z" fill="#183AD3"/>
</svg>
