<svg width="200" height="100" viewBox="0 0 200 100" fill="none" xmlns="http://www.w3.org/2000/svg">
<rect width="200" height="100" fill="white"/>
<path fill-rule="evenodd" clip-rule="evenodd" d="M27.8464 15.7276C27.3731 13.8342 28.8051 12 30.7568 12H36.2624C37.1494 12 37.991 12.3925 38.561 13.0722L63.6618 43H63.7418H63.8802H64.0194H64.1593H64.2999H64.4412H64.5832H64.726H64.8694H65.0135H65.1584H65.3039H65.4501H65.597H65.7446H65.8929H66.0419H66.1915H66.3418H66.4928H66.6444H66.7967H66.9497H67.1033H67.2576H67.4125H67.5681H67.7243H67.8812H68.0387H68.1968H68.3556H68.515H68.675H68.8357H68.9969H69.1588H69.3213H69.4844H69.6482H69.8125H69.9774H70.143H70.3091H70.4758H70.6431H70.811H70.9795H71.1486H71.3182H71.4884H71.6592H71.8306H72.0025H72.1749H72.348H72.5216H72.6957H72.8704H73.0457H73.2215H73.3978H73.5747H73.7521H73.93H74.1085H74.2874H74.4669H74.647H74.8275H75.0086H75.1901H75.3722H75.5548H75.7379H75.9214H76.1055H76.2901H76.4751H76.6606H76.8467H77.0332H77.2201H77.4076H77.5955H77.7839H77.9727H78.162H78.3518H78.542H78.7327H78.9238H79.1153H79.3073H79.4998H79.6926H79.886H80.0797H80.2739H80.4685H80.6635H80.8589H81.0547H81.251H81.4476H81.6447H81.8422H82.0401H82.2383H82.437H82.636H82.8354H83.0353H83.2355H83.436H83.637H83.8383H84.04H84.242H84.4445H84.6472H84.8504H85.0538H85.2577H85.4619H85.6664H85.8712H86.0764H86.282H86.4878H86.694H86.9006H87.1074H87.3146H87.522H87.7298H87.9379H88.1463H88.355H88.564H88.7734H88.983H89.1928H89.403H89.6135H89.8242H90.0353H90.2466H90.4581H90.67H90.8821H91.0945H91.3071H91.52H91.7331H91.9465H92.1602H92.3741H92.5882H92.8026H93.0172H93.232H93.4471H93.6624H93.8779H94.0936H94.3096H94.5258H94.7422H94.9587H95.1755H95.3925H95.6097H95.8271H96.0447H96.2625H96.4804H96.6986H96.9169H97.1354H97.3541H97.5729H97.792H98.0111H98.2305H98.45H98.6696H98.8895H99.1094H99.3295H99.5498H99.7701H99.9907H100.211H100.432H100.653H100.874H101.095H101.317H101.538H101.759H101.981H102.203H102.425H102.647H102.869H103.091H103.313H103.535H103.758H103.98H104.203H104.425H104.648H104.871H105.094H105.316H105.539H105.762H105.986H106.209H106.432H106.655H106.878H107.102H107.325H107.548H107.772H107.995H108.219H108.442H108.665H108.889H109.112H109.336H109.559H109.783H110.007H110.23H110.454H110.677H110.901H111.124H111.347H111.571H111.794H112.018H112.241H112.464H112.688H112.911H113.134H113.357H113.58H113.803H114.026H114.249H114.472H114.695H114.917H115.14H115.363H115.585H115.807H116.03H116.252H116.474H116.696H116.918H117.14H117.362H117.583H117.805H118.026H118.248H118.469H118.69H118.911H119.132H119.352H119.573H119.793H120.014H120.234H120.454H120.674H120.893H121.113H121.332H121.551H121.77H121.989H122.208H122.426H122.645H122.863H123.081H123.299H123.516H123.734H123.951H124.168H124.385H124.602H124.818H125.034H125.25H125.466H125.682H125.897H126.112H126.327H126.541H126.756H126.97H127.184H127.398H127.611H127.824H128.037H128.25H128.462H128.675H128.886H129.098H129.309H129.52H129.731H129.942H130.152H130.362H130.572H130.781H130.99H131.199H131.407H131.615H131.823H132.031H132.238H132.445H132.651H132.858H133.064H133.269H133.474H133.679H133.884H134.088H134.292H134.496H134.699H134.902H135.104H135.306H135.508H135.709H135.91H136.111H136.311H136.511H136.711H136.91H137.108H137.307H137.505H137.702H137.899H138.096H138.292H138.488H138.684H138.879H139.074H139.268H139.462H139.655H139.848H140.041H140.233H140.424H140.615H140.806H140.996H141.186H141.376H141.565H141.753H141.941H142.129H142.316H142.502H142.688H142.874H143.059H143.244H143.428H143.612H143.795H143.977H144.16H144.341H144.522H144.703H144.883H145.063H145.242H145.42H145.598H145.776H145.953H146.129H146.305H146.48H146.655H146.829H147.003H147.176H147.349H147.521H147.692H147.863H148.034H148.203H148.372H148.541H148.709H148.876H149.043H149.209H149.375H149.54H149.705H149.868H150.032H150.194H150.356H150.518H150.678H150.838H150.998H151.157H151.315H151.473H151.63H151.786H151.942H152.097H152.251H152.405H152.558H152.71H152.862H153.013H153.164H153.313H153.462H153.611H153.759H153.906H154.052H154.198H154.343H154.487H154.63H154.773H154.915H155.057H155.198H155.338H155.477H155.615H155.753H155.89H156.027H156.162H156.297H156.431H156.565H156.698H156.83H156.961H157.091H157.221H157.35H157.478H157.605H157.732H157.858H157.983H158.107H158.23H158.353H158.475H158.596H158.717H158.836H158.955H159.073H159.19H159.306H159.422H159.536H159.65H159.763H159.875H159.987H160.097H160.207C164.2 43 168.088 44.1263 171.459 46.2712C175.769 49.0146 179.63 51.5983 182.408 54.375C185.205 57.1702 187 60.2562 187 64C187 66.2885 186.125 68.0018 184.718 69.2238C183.35 70.4119 181.539 71.0859 179.71 71.4778C176.7 72.1228 173.325 72.0578 171.171 72.0162C170.723 72.0076 170.328 72 170 72L163.195 72V73.126C164.921 73.5701 166.195 75.1362 166.195 77C166.195 79.2091 164.404 81 162.195 81C159.986 81 158.195 79.2091 158.195 77C158.195 75.1362 159.47 73.5701 161.195 73.126V72L155 72C154.448 72 154 71.5523 154 71C154 70.4477 154.448 70 155 70H170C170.379 70 170.815 70.008 171.296 70.0167C173.467 70.0564 176.536 70.1125 179.29 69.5222C180.961 69.1641 182.4 68.5881 183.407 67.7137C184.375 66.8732 185 65.7115 185 64C185 60.9778 183.577 58.3707 180.994 55.7896C178.393 53.19 174.715 50.714 170.385 47.9585C167.337 46.0189 163.821 45 160.207 45H160.097H159.987H159.875H159.763H159.65H159.536H159.422H159.306H159.19H159.073H158.955H158.836H158.717H158.596H158.475H158.353H158.23H158.107H157.983H157.858H157.732H157.605H157.478H157.35H157.221H157.091H156.961H156.83H156.698H156.565H156.431H156.297H156.162H156.027H155.89H155.753H155.615H155.477H155.338H155.198H155.057H154.915H154.773H154.63H154.487H154.343H154.198H154.052H153.906H153.759H153.611H153.462H153.313H153.164H153.013H152.862H152.71H152.558H152.405H152.251H152.097H151.942H151.786H151.63H151.473H151.315H151.157H150.998H150.838H150.678H150.518H150.356H150.194H150.032H149.868H149.705H149.54H149.375H149.209H149.043H148.876H148.709H148.541H148.372H148.203H148.034H147.863H147.692H147.521H147.349H147.176H147.003H146.829H146.655H146.48H146.305H146.129H145.953H145.776H145.598H145.42H145.242H145.063H144.883H144.703H144.522H144.341H144.16H143.977H143.795H143.612H143.428H143.244H143.059H142.874H142.688H142.502H142.316H142.129H141.941H141.753H141.565H141.376H141.186H140.996H140.806H140.615H140.424H140.233H140.041H139.848H139.655H139.462H139.268H139.074H138.879H138.684H138.488H138.292H138.096H137.899H137.702H137.505H137.307H137.108H136.91H136.711H136.511H136.311H136.111H135.91H135.709H135.508H135.306H135.104H134.902H134.699H134.496H134.292H134.088H133.884H133.679H133.474H133.269H133.064H132.858H132.651H132.445H132.238H132.031H131.823H131.615H131.407H131.199H130.99H130.781H130.572H130.362H130.152H129.942H129.731H129.52H129.309H129.098H128.886H128.675H128.462H128.25H128.037H127.824H127.611H127.398H127.184H126.97H126.756H126.541H126.327H126.112H125.897H125.682H125.466H125.25H125.034H124.818H124.602H124.385H124.168H123.951H123.734H123.516H123.299H123.081H122.863H122.645H122.426H122.208H121.989H121.77H121.551H121.332H121.113H120.893H120.674H120.454H120.234H120.014H119.793H119.573H119.352H119.132H118.911H118.69H118.469H118.248H118.026H117.805H117.583H117.362H117.14H116.918H116.696H116.474H116.252H116.03H115.807H115.585H115.363H115.14H114.917H114.695H114.472H114.249H114.026H113.803H113.58H113.357H113.134H112.911H112.688H112.464H112.241H112.018H111.794H111.571H111.347H111.124H110.901H110.677H110.454H110.23H110.007H109.783H109.559H109.336H109.112H108.889H108.665H108.442H108.219H107.995H107.772H107.548H107.325H107.102H106.878H106.655H106.432H106.209H105.986H105.762H105.539H105.316H105.094H104.871H104.648H104.425H104.203H103.98H103.758H103.535H103.313H103.091H102.869H102.647H102.425H102.203H101.981H101.759H101.538H101.317H101.095H100.874H100.653H100.432H100.211H99.9907H99.7701H99.5498H99.3295H99.1094H98.8895H98.6696H98.45H98.2305H98.0111H97.792H97.5729H97.3541H97.1354H96.9169H96.6986H96.4804H96.2625H96.0447H95.8271H95.6097H95.3925H95.1755H94.9587H94.7422H94.5258H94.3096H94.0936H93.8779H93.6624H93.4471H93.232H93.0172H92.8026H92.5882H92.3741H92.1602H91.9465H91.7331H91.52H91.3071H91.0945H90.8821H90.67H90.4581H90.2466H90.0353H89.8242H89.6135H89.403H89.1928H88.983H88.7734H88.564H88.355H88.1463H87.9379H87.7298H87.522H87.3146H87.1074H86.9006H86.694H86.4878H86.282H86.0764H85.8712H85.6664H85.4619H85.2577H85.0538H84.8504H84.6472H84.4445H84.242H84.04H83.8383H83.637H83.436H83.2355H83.0353H82.8354H82.636H82.437H82.2383H82.0401H81.8422H81.6447H81.4476H81.251H81.0547H80.8589H80.6635H80.4685H80.2739H80.0797H79.886H79.6926H79.4998H79.3073H79.1153H78.9238H78.7327H78.542H78.3518H78.162H77.9727H77.7839H77.5955H77.4076H77.2201H77.0332H76.8467H76.6606H76.4751H76.2901H76.1055H75.9214H75.7379H75.5548H75.3722H75.1901H75.0086H74.8275H74.647H74.4669H74.2874H74.1085H73.93H73.7521H73.5747H73.3978H73.2215H73.0457H72.8704H72.6957H72.5216H72.348H72.1749H72.0025H71.8306H71.6592H71.4884H71.3182H71.1486H70.9795H70.811H70.6431H70.4758H70.3091H70.143H69.9774H69.8125H69.6482H69.4844H69.3213H69.1588H68.9969H68.8357H68.675H68.515H68.3556H68.1968H68.0387H67.8812H67.7243H67.5681H67.4125H67.2576H67.1033H66.9497H66.7967H66.6444H66.4928H66.3418H66.1915H66.0419H65.8929H65.7446H65.597H65.4501H65.3039H65.1584H65.0135H64.8694H64.726H64.5832H64.4412H64.2999H64.1593H64.0194H63.8802H63.7418H63.6041H63.4671H63.3308H63.1953C62.8996 45 62.6191 44.8692 62.4291 44.6426L37.0286 14.3574C36.8386 14.1308 36.5581 14 36.2624 14H30.7568C30.1063 14 29.6289 14.6114 29.7867 15.2425L35.1629 36.7472L38.0736 47.4199L61.752 66.1653C65.2432 68.0992 67.872 69.0437 70.449 69.5164C73.0687 69.997 75.6752 70 79.1953 70H127C127.552 70 128 70.4477 128 71C128 71.5523 127.552 72 127 72L117.195 72V73.126C118.921 73.5701 120.195 75.1362 120.195 77C120.195 79.2091 118.404 81 116.195 81C113.986 81 112.195 79.2091 112.195 77C112.195 75.1362 113.47 73.5701 115.195 73.126V72H109.195V73.126C110.921 73.5701 112.195 75.1362 112.195 77C112.195 79.2091 110.404 81 108.195 81C105.986 81 104.195 79.2091 104.195 77C104.195 75.1362 105.47 73.5701 107.195 73.126V72H93.1953V73.126C94.9205 73.5701 96.1953 75.1362 96.1953 77C96.1953 79.2091 94.4044 81 92.1953 81C89.9862 81 88.1953 79.2091 88.1953 77C88.1953 75.1362 89.4701 73.5701 91.1953 73.126V72H85.1953V73.126C86.9205 73.5701 88.1953 75.1362 88.1953 77C88.1953 79.2091 86.4044 81 84.1953 81C81.9862 81 80.1953 79.2091 80.1953 77C80.1953 75.1362 81.4701 73.5701 83.1953 73.126V72L79.1953 72H79.1355C75.6834 72 72.9033 72 70.0881 71.4836C67.2313 70.9595 64.3781 69.9135 60.7094 67.874L60.6383 67.8345L60.5746 67.784L36.5746 48.784C36.4073 48.6516 36.2867 48.469 36.2305 48.2631L33.2305 37.2631L33.2249 37.2426L33.2252 37.2425L27.8464 15.7276ZM84.1953 75C83.0907 75 82.1953 75.8954 82.1953 77C82.1953 78.1046 83.0907 79 84.1953 79C85.2999 79 86.1953 78.1046 86.1953 77C86.1953 75.8954 85.2999 75 84.1953 75ZM92.1953 75C91.0907 75 90.1953 75.8954 90.1953 77C90.1953 78.1046 91.0907 79 92.1953 79C93.2999 79 94.1953 78.1046 94.1953 77C94.1953 75.8954 93.2999 75 92.1953 75ZM106.195 77C106.195 75.8954 107.091 75 108.195 75C109.3 75 110.195 75.8954 110.195 77C110.195 78.1046 109.3 79 108.195 79C107.091 79 106.195 78.1046 106.195 77ZM114.195 77C114.195 75.8954 115.091 75 116.195 75C117.3 75 118.195 75.8954 118.195 77C118.195 78.1046 117.3 79 116.195 79C115.091 79 114.195 78.1046 114.195 77ZM162.195 75C161.091 75 160.195 75.8954 160.195 77C160.195 78.1046 161.091 79 162.195 79C163.3 79 164.195 78.1046 164.195 77C164.195 75.8954 163.3 75 162.195 75ZM125 52C124.448 52 124 52.4477 124 53V67C124 67.5523 124.448 68 125 68H127C127.552 68 128 67.5523 128 67C128 66.4477 127.552 66 127 66H126V54H147V63C147 63.5523 147.448 64 148 64C148.552 64 149 63.5523 149 63V53C149 52.4477 148.552 52 148 52H125Z" fill="#2B59FF"/>
<path d="M109 58H84.6467C84.2263 58 83.8166 58.1325 83.4757 58.3786L48 84H68.4071C68.7941 84 69.1727 83.8878 69.4971 83.6769L109 58Z" fill="white"/>
<path fill-rule="evenodd" clip-rule="evenodd" d="M82.8902 57.568C83.4015 57.1987 84.016 57 84.6467 57H109C109.443 57 109.833 57.2912 109.959 57.7158C110.085 58.1403 109.916 58.5971 109.545 58.8384L70.0421 84.5153C69.5554 84.8316 68.9875 85 68.4071 85H48C47.5662 85 47.1819 84.7204 47.0485 84.3077C46.915 83.895 47.0629 83.4433 47.4145 83.1893L82.8902 57.568ZM84.6467 59C84.4365 59 84.2316 59.0662 84.0612 59.1893L51.0926 83H68.4071C68.6006 83 68.7899 82.9439 68.9521 82.8384L105.627 59H84.6467Z" fill="#2B59FF"/>
<path d="M54 46H41.7049L24 56H34.3279L54 46Z" fill="white"/>
<path fill-rule="evenodd" clip-rule="evenodd" d="M41.2131 45.1293C41.3631 45.0445 41.5326 45 41.7049 45H54C54.4625 45 54.8647 45.3172 54.9724 45.767C55.0802 46.2168 54.8654 46.6818 54.4531 46.8914L34.781 56.8914C34.6406 56.9628 34.4853 57 34.3278 57H24C23.5456 57 23.1484 56.6937 23.0328 56.2543C22.9173 55.8148 23.1126 55.3527 23.5082 55.1293L41.2131 45.1293ZM41.9678 47L27.8038 55H34.0883L49.826 47H41.9678Z" fill="#2B59FF"/>
<path fill-rule="evenodd" clip-rule="evenodd" d="M149 72H145V76H149V72ZM145 70C143.895 70 143 70.8954 143 72V76C143 77.1046 143.895 78 145 78H149C150.105 78 151 77.1046 151 76V72C151 70.8954 150.105 70 149 70H145Z" fill="#2B59FF"/>
<path fill-rule="evenodd" clip-rule="evenodd" d="M143 78H139V82H143V78ZM139 76C137.895 76 137 76.8954 137 78V82C137 83.1046 137.895 84 139 84H143C144.105 84 145 83.1046 145 82V78C145 76.8954 144.105 76 143 76H139Z" fill="#2B59FF"/>
<path fill-rule="evenodd" clip-rule="evenodd" d="M137 78H133V82H137V78ZM133 76C131.895 76 131 76.8954 131 78V82C131 83.1046 131.895 84 133 84H137C138.105 84 139 83.1046 139 82V78C139 76.8954 138.105 76 137 76H133Z" fill="#2B59FF"/>
<path fill-rule="evenodd" clip-rule="evenodd" d="M143 72H139V76H143V72ZM139 70C137.895 70 137 70.8954 137 72V76C137 77.1046 137.895 78 139 78H143C144.105 78 145 77.1046 145 76V72C145 70.8954 144.105 70 143 70H139Z" fill="#2B59FF"/>
<path fill-rule="evenodd" clip-rule="evenodd" d="M137 72H133V76H137V72ZM133 70C131.895 70 131 70.8954 131 72V76C131 77.1046 131.895 78 133 78H137C138.105 78 139 77.1046 139 76V72C139 70.8954 138.105 70 137 70H133Z" fill="#2B59FF"/>
<path fill-rule="evenodd" clip-rule="evenodd" d="M143 66H139V70H143V66ZM139 64C137.895 64 137 64.8954 137 66V70C137 71.1046 137.895 72 139 72H143C144.105 72 145 71.1046 145 70V66C145 64.8954 144.105 64 143 64H139Z" fill="#2B59FF"/>
<path fill-rule="evenodd" clip-rule="evenodd" d="M137 66H133V70H137V66ZM133 64C131.895 64 131 64.8954 131 66V70C131 71.1046 131.895 72 133 72H137C138.105 72 139 71.1046 139 70V66C139 64.8954 138.105 64 137 64H133Z" fill="#2B59FF"/>
<path fill-rule="evenodd" clip-rule="evenodd" d="M149 78H145V82H149V78ZM145 76C143.895 76 143 76.8954 143 78V82C143 83.1046 143.895 84 145 84H149C150.105 84 151 83.1046 151 82V78C151 76.8954 150.105 76 149 76H145Z" fill="#2B59FF"/>
</svg>
