<svg width="21" height="21" viewBox="0 0 21 21" fill="none" xmlns="http://www.w3.org/2000/svg">
<path d="M10.6397 0.327637C8.66184 0.327637 6.72844 0.914127 5.08395 2.01294C3.43946 3.11175 2.15773 4.67354 1.40086 6.5008C0.643981 8.32806 0.445948 10.3387 0.8318 12.2785C1.21765 14.2183 2.17006 16.0002 3.56859 17.3987C4.96711 18.7972 6.74894 19.7496 8.68875 20.1355C10.6286 20.5213 12.6392 20.3233 14.4665 19.5664C16.2937 18.8096 17.8555 17.5278 18.9543 15.8833C20.0532 14.2388 20.6397 12.3054 20.6397 10.3276C20.6397 9.01442 20.381 7.71406 19.8784 6.5008C19.3759 5.28755 18.6393 4.18515 17.7107 3.25657C16.7821 2.32798 15.6797 1.59139 14.4665 1.08884C13.2532 0.586294 11.9529 0.327637 10.6397 0.327637ZM15.3497 8.03764L10.3497 13.0376C10.2567 13.1314 10.1461 13.2058 10.0242 13.2565C9.90237 13.3073 9.77166 13.3334 9.63965 13.3334C9.50764 13.3334 9.37694 13.3073 9.25508 13.2565C9.13322 13.2058 9.02262 13.1314 8.92965 13.0376L6.92965 11.0376C6.74135 10.8493 6.63556 10.5939 6.63556 10.3276C6.63556 10.0613 6.74135 9.80594 6.92965 9.61764C7.11796 9.42933 7.37335 9.32355 7.63965 9.32355C7.90595 9.32355 8.16135 9.42933 8.34965 9.61764L9.63965 10.9176L13.9297 6.61764C14.118 6.42933 14.3734 6.32354 14.6397 6.32354C14.906 6.32354 15.1613 6.42933 15.3497 6.61764C15.538 6.80594 15.6437 7.06134 15.6437 7.32764C15.6437 7.59394 15.538 7.84933 15.3497 8.03764Z" fill="#183AD3"/>
</svg>
