<svg width="200" height="100" viewBox="0 0 200 100" fill="none" xmlns="http://www.w3.org/2000/svg">
<rect width="200" height="100" fill="white"/>
<path fill-rule="evenodd" clip-rule="evenodd" d="M68.3647 67.0123L72.5093 59.1687C73.4097 57.4647 72.7642 55.3534 71.0649 54.4442C69.3531 53.5283 67.2229 54.1795 66.3159 55.8961L62.1713 63.7397C61.2709 65.4437 61.9163 67.555 63.6157 68.4642C65.3275 69.3801 67.4577 68.7288 68.3647 67.0123ZM72.1801 52.3599C69.3129 50.8258 65.745 51.9166 64.2258 54.7917L60.0812 62.6353C58.5731 65.4894 59.6542 69.0257 62.5005 70.5485C65.3677 72.0825 68.9355 70.9917 70.4547 68.1167L74.5993 60.2731C76.1075 57.419 75.0263 53.8827 72.1801 52.3599Z" fill="#2B59FF"/>
<path fill-rule="evenodd" clip-rule="evenodd" d="M75.0494 74.9829L81.9444 61.9343C82.8448 60.2303 82.1993 58.119 80.4999 57.2098C78.7881 56.2939 76.658 56.9452 75.7509 58.6617L68.856 71.7102C67.9556 73.4142 68.6011 75.5255 70.3004 76.4347C72.0122 77.3506 74.1424 76.6994 75.0494 74.9829ZM81.6151 55.1255C78.748 53.5915 75.1801 54.6823 73.6609 57.5573L66.766 70.6058C65.2578 73.4599 66.339 76.9962 69.1852 78.5191C72.0524 80.0531 75.6203 78.9623 77.1395 76.0872L84.0344 63.0387C85.5425 60.1846 84.4614 56.6483 81.6151 55.1255Z" fill="#2B59FF"/>
<path fill-rule="evenodd" clip-rule="evenodd" d="M84.6712 77.2711L88.8158 69.4275C89.7162 67.7235 89.0708 65.6122 87.3714 64.703C85.6596 63.7871 83.5294 64.4383 82.6224 66.1549L78.4778 73.9984C77.5774 75.7025 78.2228 77.8138 79.9222 78.723C81.634 79.6389 83.7642 78.9876 84.6712 77.2711ZM88.4866 62.6186C85.6194 61.0846 82.0515 62.1754 80.5324 65.0505L76.3877 72.8941C74.8796 75.7482 75.9607 79.2844 78.807 80.8073C81.6742 82.3413 85.2421 81.2505 86.7613 78.3755L90.9059 70.5319C92.414 67.6778 91.3329 64.1415 88.4866 62.6186Z" fill="#2B59FF"/>
<path fill-rule="evenodd" clip-rule="evenodd" d="M93.9304 79.9562L96.6999 74.7151C97.6003 73.0111 96.9548 70.8998 95.2554 69.9906C93.5436 69.0747 91.4135 69.7259 90.5064 71.4424L87.737 76.6836C86.8366 78.3876 87.482 80.4989 89.1814 81.4081C90.8932 82.324 93.0234 81.6727 93.9304 79.9562ZM96.3706 67.9062C93.5035 66.3722 89.9356 67.463 88.4164 70.3381L85.6469 75.5792C84.1388 78.4333 85.2199 81.9696 88.0662 83.4924C90.9334 85.0264 94.5013 83.9357 96.0204 81.0606L98.7899 75.8195C100.298 72.9654 99.2169 69.4291 96.3706 67.9062Z" fill="#2B59FF"/>
<path fill-rule="evenodd" clip-rule="evenodd" d="M93.3635 20.469L92.7418 20.9708C92.3026 21.3258 91.6744 21.8346 90.9184 22.4493C89.4061 23.6791 87.3838 25.332 85.342 27.0262C83.2985 28.7217 81.2421 30.453 79.6588 31.8414C78.8658 32.5367 78.2014 33.1374 77.7196 33.6004C77.4778 33.8328 77.293 34.02 77.1649 34.1607C77.1055 34.226 77.0696 34.269 77.0502 34.293C77.0262 34.4069 77.0148 34.8056 77.5654 35.4355C78.1361 36.0885 79.1653 36.7692 80.6467 37.1174C81.8723 37.4055 83.3443 37.3257 84.9289 36.9855C86.5025 36.6477 88.1101 36.0702 89.5688 35.438C91.0238 34.8073 92.3059 34.1332 93.2249 33.6161C93.6836 33.3579 94.0499 33.14 94.2997 32.9877C94.4246 32.9116 94.5202 32.852 94.5836 32.8121L94.6542 32.7673L94.6706 32.7568L94.674 32.7546C94.6741 32.7546 94.6739 32.7547 94.674 32.7546C95.0613 32.5037 95.5597 32.5009 95.9496 32.7479L95.9513 32.749L95.9531 32.7501L95.9551 32.7514L95.9571 32.7527L95.9595 32.7542L95.9741 32.7634L95.9914 32.7744L129.712 54.1379L139.576 59.9672L139.608 59.9843C139.649 60.0066 139.704 60.0374 139.77 60.0768C139.903 60.1553 140.083 60.2692 140.289 60.4189C140.696 60.7151 141.23 61.1694 141.695 61.7907C142.165 62.4161 142.579 63.2305 142.704 64.2282C142.83 65.2348 142.65 66.3434 142.057 67.5284C141.465 68.7134 140.686 69.5228 139.805 70.026C138.932 70.5249 138.032 70.6818 137.25 70.6818C136.473 70.6818 135.79 70.5276 135.309 70.3795C135.065 70.3046 134.866 70.229 134.724 70.1701C134.652 70.1405 134.595 70.115 134.552 70.0955L134.5 70.071L134.483 70.0626L134.476 70.0594L134.474 70.0581C134.473 70.0578 134.471 70.057 135 68.9998L134.471 70.057C134.454 70.0484 134.437 70.0394 134.42 70.03L118.42 61.03C117.852 60.71 117.65 59.9893 117.97 59.4204C118.29 58.8514 119.01 58.6496 119.579 58.9697L135.543 67.9493C135.561 67.9574 135.589 67.97 135.628 67.9858C135.712 68.0206 135.841 68.07 136.004 68.1201C136.335 68.2221 136.777 68.3179 137.25 68.3179C137.718 68.3179 138.193 68.2248 138.632 67.9736C139.064 67.7269 139.535 67.2863 139.943 66.4712C140.35 65.6562 140.42 65.0149 140.358 64.5214C140.296 64.0191 140.085 63.5836 139.804 63.209C139.52 62.8303 139.179 62.5345 138.898 62.3307C138.761 62.2305 138.644 62.1568 138.565 62.1104C138.526 62.0873 138.497 62.0712 138.481 62.0622L138.468 62.0553L138.47 62.0565C138.469 62.0557 138.467 62.055 138.466 62.0542C138.443 62.0426 138.421 62.0304 138.399 62.0174L128.494 56.1636L128.463 56.1445L95.3084 35.1401C95.0614 35.288 94.7499 35.4704 94.3843 35.6761C93.4153 36.2214 92.0582 36.9354 90.5088 37.6069C88.9631 38.2768 87.2008 38.9156 85.425 39.2968C83.6601 39.6756 81.803 39.8175 80.1058 39.4185C78.2108 38.9731 76.7239 38.0647 75.7855 36.9912C74.9017 35.98 74.3003 34.5331 74.9328 33.2302C75.0576 32.973 75.2716 32.7289 75.4171 32.5691C75.5956 32.3731 75.8224 32.1452 76.0816 31.8961C76.6019 31.396 77.2976 30.7678 78.1003 30.064C79.7081 28.6542 81.7842 26.9065 83.8325 25.207C85.8824 23.5061 87.9112 21.8479 89.427 20.6153C90.185 19.9989 90.8151 19.4887 91.2557 19.1325L91.9475 18.5742C91.9476 18.5741 91.9483 18.5736 92.6893 19.4944L91.9475 18.5742C91.9919 18.5385 92.0395 18.5054 92.0886 18.4765C96.8402 15.6724 100.657 14.4251 104.41 14.6337C108.142 14.8412 111.621 16.4807 115.694 19.0126C115.707 19.0207 115.719 19.0291 115.732 19.0377C115.934 19.1746 116.142 19.3178 116.356 19.465C119.357 21.5323 123.499 24.3854 129.255 21.6667C129.846 21.3879 130.55 21.6404 130.829 22.2307C131.108 22.821 130.855 23.5254 130.265 23.8042C123.235 27.1242 118.002 23.489 115.037 21.4297C114.822 21.2797 114.618 21.138 114.426 21.008C110.439 18.5313 107.388 17.1668 104.279 16.994C101.204 16.823 97.885 17.8112 93.3635 20.469ZM135.523 67.9399C135.522 67.9394 135.522 67.9395 135.523 67.9399V67.9399Z" fill="#2B59FF"/>
<path d="M69 22.0309C69 22.0309 73.799 26.4613 79.4285 22.0309C83.17 18.6754 85.0788 14.7241 90 16.3965" stroke="#2B59FF" stroke-width="2.5" stroke-linecap="round" stroke-linejoin="round"/>
<path fill-rule="evenodd" clip-rule="evenodd" d="M112.982 56.3992C113.314 55.8371 114.039 55.6503 114.601 55.9821L129.576 64.821L129.608 64.8382C129.649 64.8605 129.704 64.8913 129.771 64.9307C129.903 65.0092 130.083 65.1231 130.289 65.2729C130.696 65.569 131.23 66.0233 131.696 66.6446C132.165 67.27 132.579 68.0844 132.704 69.0821C132.83 70.0887 132.65 71.1973 132.057 72.3823C131.465 73.5673 130.686 74.3767 129.805 74.8799C128.932 75.3788 128.032 75.5357 127.25 75.5357C126.473 75.5357 125.79 75.3815 125.309 75.2334C125.065 75.1585 124.866 75.0829 124.724 75.024C124.653 74.9945 124.595 74.9689 124.552 74.9494L124.5 74.9249L124.483 74.9165L124.476 74.9133L124.474 74.912L124.473 74.9114C124.472 74.9112 124.471 74.9109 125 73.8537L124.471 74.9109C124.459 74.9046 124.446 74.8981 124.434 74.8914L113.434 68.8914C112.861 68.5788 112.65 67.8608 112.962 67.2878C113.275 66.7147 113.993 66.5035 114.566 66.8161L125.538 72.8006L125.539 72.801C125.556 72.8089 125.586 72.8224 125.628 72.8397C125.712 72.8746 125.841 72.9239 126.004 72.9741C126.335 73.076 126.777 73.1718 127.25 73.1718C127.718 73.1718 128.193 73.0787 128.632 72.8275C129.064 72.5808 129.535 72.1402 129.943 71.3252C130.35 70.5101 130.42 69.8688 130.358 69.3753C130.296 68.873 130.085 68.4375 129.804 68.0629C129.52 67.6842 129.179 67.3885 128.899 67.1846C128.761 67.0844 128.644 67.0107 128.565 66.9643C128.526 66.9412 128.498 66.9251 128.481 66.9161L128.466 66.9081L128.468 66.9092L128.47 66.9099L128.47 66.9104C128.469 66.9096 128.467 66.9089 128.466 66.9081C128.443 66.8967 128.421 66.8845 128.399 66.8716L113.399 58.0179C112.837 57.6861 112.65 56.9614 112.982 56.3992ZM128.465 66.9079C128.465 66.9077 128.465 66.9078 128.466 66.9081L128.465 66.9079Z" fill="#2B59FF"/>
<path fill-rule="evenodd" clip-rule="evenodd" d="M108.078 64.3986C108.41 63.8367 109.135 63.6504 109.697 63.9825L119.576 69.8211L119.608 69.8382C119.649 69.8605 119.704 69.8913 119.771 69.9307C119.903 70.0092 120.083 70.1231 120.289 70.2728C120.696 70.569 121.23 71.0233 121.696 71.6446C122.165 72.27 122.579 73.0844 122.704 74.0821C122.83 75.0887 122.65 76.1973 122.057 77.3823C121.465 78.5673 120.686 79.3767 119.805 79.8799C118.932 80.3788 118.032 80.5357 117.25 80.5357C116.473 80.5357 115.79 80.3815 115.309 80.2334C115.065 80.1585 114.866 80.0829 114.724 80.024C114.653 79.9944 114.595 79.9689 114.552 79.9494L114.5 79.9249L114.483 79.9165L114.476 79.9133L114.474 79.912C114.473 79.9117 114.471 79.9109 115 78.8537L114.471 79.9109C114.459 79.9046 114.446 79.8981 114.434 79.8913L103.434 73.8913C102.861 73.5788 102.65 72.8608 102.962 72.2877C103.275 71.7147 103.993 71.5035 104.566 71.8161L115.538 77.8006C115.555 77.8084 115.586 77.8224 115.628 77.8397C115.712 77.8745 115.841 77.9239 116.004 77.974C116.335 78.076 116.777 78.1718 117.25 78.1718C117.718 78.1718 118.193 78.0787 118.632 77.8275C119.064 77.5808 119.535 77.1402 119.943 76.3251C120.35 75.5101 120.42 74.8688 120.358 74.3753C120.296 73.873 120.085 73.4375 119.804 73.0629C119.52 72.6842 119.179 72.3884 118.899 72.1846C118.761 72.0844 118.644 72.0107 118.565 71.9643C118.526 71.9412 118.498 71.9251 118.481 71.9161L118.466 71.9081L118.468 71.9092M118.466 71.9081C118.443 71.8966 118.421 71.8843 118.399 71.8712L108.494 66.0175C107.932 65.6854 107.746 64.9606 108.078 64.3986" fill="#2B59FF"/>
<path fill-rule="evenodd" clip-rule="evenodd" d="M102.973 72.4141C103.297 71.8472 104.019 71.6499 104.586 71.9735L109.567 74.8162L109.608 74.8382C109.649 74.8605 109.704 74.8913 109.771 74.9307C109.903 75.0092 110.083 75.1231 110.289 75.2729C110.696 75.569 111.23 76.0233 111.696 76.6446C112.165 77.27 112.579 78.0844 112.704 79.0821C112.83 80.0887 112.65 81.1973 112.057 82.3823C111.465 83.5673 110.686 84.3767 109.805 84.8799C108.932 85.3788 108.032 85.5357 107.25 85.5357C106.473 85.5357 105.79 85.3815 105.309 85.2334C105.065 85.1585 104.866 85.0829 104.724 85.024C104.652 84.9945 104.595 84.9689 104.552 84.9494L104.5 84.9249L104.483 84.9165L104.476 84.9133L104.474 84.912L104.472 84.9114C104.472 84.9112 104.471 84.9109 105 83.8537L104.471 84.9109C104.443 84.8965 104.414 84.8809 104.387 84.8642L96.3869 80.0105C95.8288 79.6719 95.6509 78.945 95.9895 78.3869C96.3281 77.8288 97.055 77.6509 97.6131 77.9895L105.558 82.81C105.576 82.8177 105.599 82.8278 105.628 82.8397C105.712 82.8746 105.841 82.9239 106.004 82.9741C106.335 83.076 106.777 83.1718 107.25 83.1718C107.718 83.1718 108.193 83.0787 108.632 82.8275C109.064 82.5808 109.535 82.1402 109.943 81.3252C110.35 80.5101 110.42 79.8688 110.358 79.3753C110.296 78.873 110.085 78.4375 109.804 78.0629C109.52 77.6842 109.179 77.3885 108.899 77.1846C108.761 77.0844 108.644 77.0107 108.565 76.9643C108.526 76.9412 108.497 76.9251 108.481 76.9161L108.466 76.9081L108.468 76.9092L108.47 76.91M108.466 76.9081C108.448 76.8993 108.431 76.89 108.414 76.8803L103.414 74.0265C102.847 73.703 102.65 72.9811 102.973 72.4141M105.523 82.7938C105.522 82.7934 105.522 82.7934 105.523 82.7938L105.523 82.7938Z" fill="#2B59FF"/>
<path fill-rule="evenodd" clip-rule="evenodd" d="M145.23 50.0042C145.472 50.6104 145.177 51.2981 144.571 51.5402C142.986 52.1732 141.884 53.4039 141.163 54.5489C140.806 55.1151 140.555 55.6399 140.394 56.0203C140.314 56.2098 140.258 56.3615 140.222 56.462C140.205 56.5122 140.192 56.5495 140.185 56.5722L140.178 56.5949C139.99 57.2199 139.332 57.5751 138.707 57.3882C138.081 57.2012 137.726 56.5426 137.913 55.9172L139.001 56.2427C137.913 55.9172 137.913 55.9176 137.913 55.9172L137.914 55.9132L137.916 55.9077L137.921 55.8919L137.936 55.8422C137.95 55.8012 137.969 55.7447 137.993 55.6745C138.043 55.5343 138.116 55.3386 138.216 55.1017C138.415 54.6295 138.723 53.9857 139.163 53.2884C140.034 51.9065 141.476 50.2305 143.694 49.3448C144.301 49.1028 144.988 49.398 145.23 50.0042Z" fill="#2B59FF"/>
<path fill-rule="evenodd" clip-rule="evenodd" d="M139.82 14.8035C140.158 15.3617 139.98 16.0885 139.421 16.4268L134.978 19.1194L150.285 48.8826L158.992 44.6601L145.981 20.5885C145.671 20.0142 145.885 19.2971 146.459 18.9867C147.033 18.6763 147.75 18.8902 148.061 19.4645L161.659 44.6227C161.812 44.9063 161.843 45.2404 161.744 45.5473C161.645 45.8542 161.425 46.1074 161.134 46.2481L150.277 51.5134C149.7 51.7935 149.004 51.5613 148.71 50.9904L132.372 19.2203C132.088 18.6683 132.28 17.9907 132.81 17.6689L138.196 14.4052C138.755 14.0669 139.481 14.2452 139.82 14.8035Z" fill="#2B59FF"/>
<path fill-rule="evenodd" clip-rule="evenodd" d="M56.2454 13.4791C56.5331 12.8932 57.2414 12.6514 57.8273 12.9391L67.0803 17.4827C67.3678 17.6239 67.5857 17.8757 67.6841 18.1804C67.7825 18.4852 67.7531 18.8168 67.6025 19.0995L50.2429 51.6785C50.0921 51.9615 49.8329 52.171 49.5246 52.2592C49.2163 52.3473 48.8855 52.3064 48.608 52.1459L37.4082 45.668C36.8542 45.3476 36.6559 44.6445 36.9608 44.0818L51.1053 17.9805C51.4163 17.4066 52.1336 17.1935 52.7076 17.5045C53.2815 17.8155 53.4946 18.5329 53.1836 19.1068L39.5869 44.1973L48.7322 49.4869L64.9417 19.0661L56.7854 15.061C56.1994 14.7733 55.9577 14.0651 56.2454 13.4791Z" fill="#2B59FF"/>
<path fill-rule="evenodd" clip-rule="evenodd" d="M53.9835 50.1447C54.2566 49.5518 54.9587 49.2926 55.5516 49.5658L55.057 50.6393C55.5516 49.5658 55.552 49.566 55.5524 49.5662L55.5534 49.5666L55.5556 49.5676L55.561 49.5701L55.5757 49.5771L55.621 49.5991C55.6578 49.6172 55.7079 49.6425 55.7696 49.6751C55.8929 49.7403 56.0631 49.8349 56.2667 49.9602C56.6726 50.21 57.2186 50.5864 57.7921 51.1002C58.9341 52.1232 60.2372 53.7397 60.6882 56.0263C60.8145 56.6667 60.3977 57.2883 59.7573 57.4146C59.1169 57.5409 58.4953 57.1242 58.369 56.4837C58.0486 54.8594 57.1158 53.6681 56.2148 52.8609C55.7669 52.4596 55.3396 52.1653 55.0276 51.9733C54.8723 51.8777 54.7474 51.8086 54.6653 51.7652C54.6243 51.7435 54.5942 51.7284 54.5764 51.7197L54.5594 51.7114C54.5582 51.7108 54.5578 51.7107 54.5583 51.7109L54.5597 51.7115L54.5609 51.7121L54.5616 51.7124C53.9693 51.439 53.7104 50.7373 53.9835 50.1447Z" fill="#2B59FF"/>
</svg>
