<svg width="22" height="22" viewBox="0 0 22 22" fill="none" xmlns="http://www.w3.org/2000/svg">
  <path d="M3.29004 18.2759C3.29004 18.5096 3.49036 18.7099 3.72407 18.7099H6.82907C7.06278 18.7099 7.2631 18.5096 7.2631 18.2759V7.99263C7.2631 7.75892 7.06278 7.55859 6.82907 7.55859H3.72407C3.49036 7.55859 3.29004 7.75892 3.29004 7.99263V18.2759Z" fill="white"/>
  <path d="M16.1776 7.45801C14.6752 7.45801 13.6068 8.05898 13.0392 8.69333C12.9057 8.82688 12.672 8.72672 12.672 8.5264V7.9922C12.672 7.75849 12.4717 7.55817 12.2379 7.55817H9.09956C8.86585 7.55817 8.66553 7.75849 8.66553 7.9922C8.69891 9.89527 8.66553 16.4725 8.66553 18.242C8.66553 18.4757 8.86585 18.6761 9.09956 18.6761H12.2713C12.505 18.6761 12.7054 18.4757 12.7054 18.242V12.6664C12.7054 12.3325 12.7054 11.9987 12.8055 11.7649C13.0726 11.0972 13.6736 10.3961 14.7086 10.3961C16.0775 10.3961 16.7118 11.4311 16.7118 12.9335V18.242C16.7118 18.4757 16.9121 18.6761 17.1459 18.6761H20.2508C20.4846 18.6761 20.6849 18.4757 20.6849 18.242V12.4995C20.6515 9.06059 18.6817 7.45801 16.1776 7.45801Z" fill="white"/>
  <path d="M5.25988 6.32279C6.52859 6.32279 7.29649 5.5215 7.29649 4.51988C7.2631 3.4515 6.52859 2.68359 5.29326 2.68359C4.05794 2.68359 3.29004 3.4515 3.29004 4.4865C3.29004 5.5215 4.05794 6.32279 5.25988 6.32279Z" fill="white"/>
</svg>