<svg width="200" height="100" viewBox="0 0 200 100" fill="none" xmlns="http://www.w3.org/2000/svg">
<rect width="200" height="100" fill="white"/>
<path fill-rule="evenodd" clip-rule="evenodd" d="M158 22H150C148.895 22 148 22.8954 148 24V32C148 33.1046 148.895 34 150 34H158C159.105 34 160 33.1046 160 32V24C160 22.8954 159.105 22 158 22ZM150 20C147.791 20 146 21.7909 146 24V32C146 34.2091 147.791 36 150 36H158C160.209 36 162 34.2091 162 32V24C162 21.7909 160.209 20 158 20H150Z" fill="#2B59FF"/>
<path fill-rule="evenodd" clip-rule="evenodd" d="M144 22H136C134.895 22 134 22.8954 134 24V32C134 33.1046 134.895 34 136 34H144C145.105 34 146 33.1046 146 32V24C146 22.8954 145.105 22 144 22ZM136 20C133.791 20 132 21.7909 132 24V32C132 34.2091 133.791 36 136 36H144C146.209 36 148 34.2091 148 32V24C148 21.7909 146.209 20 144 20H136Z" fill="#2B59FF"/>
<path fill-rule="evenodd" clip-rule="evenodd" d="M116 50H108C106.895 50 106 50.8954 106 52V60C106 61.1046 106.895 62 108 62H116C117.105 62 118 61.1046 118 60V52C118 50.8954 117.105 50 116 50ZM108 48C105.791 48 104 49.7909 104 52V60C104 62.2091 105.791 64 108 64H116C118.209 64 120 62.2091 120 60V52C120 49.7909 118.209 48 116 48H108Z" fill="#2B59FF"/>
<path fill-rule="evenodd" clip-rule="evenodd" d="M144 36H136C134.895 36 134 36.8954 134 38V46C134 47.1046 134.895 48 136 48H144C145.105 48 146 47.1046 146 46V38C146 36.8954 145.105 36 144 36ZM136 34C133.791 34 132 35.7909 132 38V46C132 48.2091 133.791 50 136 50H144C146.209 50 148 48.2091 148 46V38C148 35.7909 146.209 34 144 34H136Z" fill="#2B59FF"/>
<path fill-rule="evenodd" clip-rule="evenodd" d="M158 36H150C148.895 36 148 36.8954 148 38V46C148 47.1046 148.895 48 150 48H158C159.105 48 160 47.1046 160 46V38C160 36.8954 159.105 36 158 36ZM150 34C147.791 34 146 35.7909 146 38V46C146 48.2091 147.791 50 150 50H158C160.209 50 162 48.2091 162 46V38C162 35.7909 160.209 34 158 34H150Z" fill="#2B59FF"/>
<path fill-rule="evenodd" clip-rule="evenodd" d="M130 36H122C120.895 36 120 36.8954 120 38V46C120 47.1046 120.895 48 122 48H130C131.105 48 132 47.1046 132 46V38C132 36.8954 131.105 36 130 36ZM122 34C119.791 34 118 35.7909 118 38V46C118 48.2091 119.791 50 122 50H130C132.209 50 134 48.2091 134 46V38C134 35.7909 132.209 34 130 34H122Z" fill="#2B59FF"/>
<path fill-rule="evenodd" clip-rule="evenodd" d="M144 50H136C134.895 50 134 50.8954 134 52V60C134 61.1046 134.895 62 136 62H144C145.105 62 146 61.1046 146 60V52C146 50.8954 145.105 50 144 50ZM136 48C133.791 48 132 49.7909 132 52V60C132 62.2091 133.791 64 136 64H144C146.209 64 148 62.2091 148 60V52C148 49.7909 146.209 48 144 48H136Z" fill="#2B59FF"/>
<path fill-rule="evenodd" clip-rule="evenodd" d="M158 50H150C148.895 50 148 50.8954 148 52V60C148 61.1046 148.895 62 150 62H158C159.105 62 160 61.1046 160 60V52C160 50.8954 159.105 50 158 50ZM150 48C147.791 48 146 49.7909 146 52V60C146 62.2091 147.791 64 150 64H158C160.209 64 162 62.2091 162 60V52C162 49.7909 160.209 48 158 48H150Z" fill="#2B59FF"/>
<path fill-rule="evenodd" clip-rule="evenodd" d="M172 50H164C162.895 50 162 50.8954 162 52V60C162 61.1046 162.895 62 164 62H172C173.105 62 174 61.1046 174 60V52C174 50.8954 173.105 50 172 50ZM164 48C161.791 48 160 49.7909 160 52V60C160 62.2091 161.791 64 164 64H172C174.209 64 176 62.2091 176 60V52C176 49.7909 174.209 48 172 48H164Z" fill="#2B59FF"/>
<path fill-rule="evenodd" clip-rule="evenodd" d="M130 50H122C120.895 50 120 50.8954 120 52V60C120 61.1046 120.895 62 122 62H130C131.105 62 132 61.1046 132 60V52C132 50.8954 131.105 50 130 50ZM122 48C119.791 48 118 49.7909 118 52V60C118 62.2091 119.791 64 122 64H130C132.209 64 134 62.2091 134 60V52C134 49.7909 132.209 48 130 48H122Z" fill="#2B59FF"/>
<path fill-rule="evenodd" clip-rule="evenodd" d="M130 64H122C120.895 64 120 64.8954 120 66V74C120 75.1046 120.895 76 122 76H130C131.105 76 132 75.1046 132 74V66C132 64.8954 131.105 64 130 64ZM122 62C119.791 62 118 63.7909 118 66V74C118 76.2091 119.791 78 122 78H130C132.209 78 134 76.2091 134 74V66C134 63.7909 132.209 62 130 62H122Z" fill="#2B59FF"/>
<path fill-rule="evenodd" clip-rule="evenodd" d="M144 64H136C134.895 64 134 64.8954 134 66V74C134 75.1046 134.895 76 136 76H144C145.105 76 146 75.1046 146 74V66C146 64.8954 145.105 64 144 64ZM136 62C133.791 62 132 63.7909 132 66V74C132 76.2091 133.791 78 136 78H144C146.209 78 148 76.2091 148 74V66C148 63.7909 146.209 62 144 62H136Z" fill="#2B59FF"/>
<path fill-rule="evenodd" clip-rule="evenodd" d="M158 64H150C148.895 64 148 64.8954 148 66V74C148 75.1046 148.895 76 150 76H158C159.105 76 160 75.1046 160 74V66C160 64.8954 159.105 64 158 64ZM150 62C147.791 62 146 63.7909 146 66V74C146 76.2091 147.791 78 150 78H158C160.209 78 162 76.2091 162 74V66C162 63.7909 160.209 62 158 62H150Z" fill="#2B59FF"/>
<path fill-rule="evenodd" clip-rule="evenodd" d="M172 64H164C162.895 64 162 64.8954 162 66V74C162 75.1046 162.895 76 164 76H172C173.105 76 174 75.1046 174 74V66C174 64.8954 173.105 64 172 64ZM164 62C161.791 62 160 63.7909 160 66V74C160 76.2091 161.791 78 164 78H172C174.209 78 176 76.2091 176 74V66C176 63.7909 174.209 62 172 62H164Z" fill="#2B59FF"/>
<path fill-rule="evenodd" clip-rule="evenodd" d="M116 64H108C106.895 64 106 64.8954 106 66V74C106 75.1046 106.895 76 108 76H116C117.105 76 118 75.1046 118 74V66C118 64.8954 117.105 64 116 64ZM108 62C105.791 62 104 63.7909 104 66V74C104 76.2091 105.791 78 108 78H116C118.209 78 120 76.2091 120 74V66C120 63.7909 118.209 62 116 62H108Z" fill="#2B59FF"/>
<path fill-rule="evenodd" clip-rule="evenodd" d="M89 44H81C79.8954 44 79 44.8954 79 46V54C79 55.1046 79.8954 56 81 56H89C90.1046 56 91 55.1046 91 54V46C91 44.8954 90.1046 44 89 44ZM81 42C78.7909 42 77 43.7909 77 46V54C77 56.2091 78.7909 58 81 58H89C91.2091 58 93 56.2091 93 54V46C93 43.7909 91.2091 42 89 42H81Z" fill="#2B59FF"/>
<path fill-rule="evenodd" clip-rule="evenodd" d="M89 58H81C79.8954 58 79 58.8954 79 60V68C79 69.1046 79.8954 70 81 70H89C90.1046 70 91 69.1046 91 68V60C91 58.8954 90.1046 58 89 58ZM81 56C78.7909 56 77 57.7909 77 60V68C77 70.2091 78.7909 72 81 72H89C91.2091 72 93 70.2091 93 68V60C93 57.7909 91.2091 56 89 56H81Z" fill="#2B59FF"/>
<path fill-rule="evenodd" clip-rule="evenodd" d="M38.0001 30C37.7349 30 37.4805 30.1053 37.2929 30.2929C37.1054 30.4804 37 30.7348 37 31V51.9889H25C24.4477 51.9889 24 52.4366 24 52.9889V66.9889C24 67.5411 24.4477 67.9889 25 67.9889C25.5523 67.9889 26 67.5411 26 66.9889V53.9889H38C38.5523 53.9889 39 53.5412 39 52.9889V32.0001L52.3205 32.0014L52.3685 32.0014C52.3885 32.0017 52.4166 32.0024 52.4525 32.0035C52.546 32.0066 52.6893 32.0134 52.8751 32.0276C53.247 32.056 53.786 32.1142 54.436 32.232C55.7402 32.4684 57.4663 32.9403 59.1819 33.8749C60.8921 34.8065 62.5846 36.1932 63.8534 38.2664C65.1208 40.3373 66 43.1494 66 46.9877H67L66 46.9877V46.988V46.9885V46.9891V46.9899V46.9909V46.9921V46.9934V46.995V46.9967V46.9986V47.0006V47.0028V47.0052V47.0078V47.0105V47.0135V47.0165V47.0198V47.0232V47.0268V47.0305V47.0345V47.0385V47.0428V47.0472V47.0518V47.0565V47.0614V47.0664V47.0717V47.077V47.0825V47.0882V47.0941V47.1001V47.1062V47.1125V47.119V47.1256V47.1323V47.1392V47.1463V47.1535V47.1608V47.1683V47.176V47.1838V47.1917V47.1998V47.208V47.2164V47.2249V47.2335V47.2423V47.2512V47.2603V47.2695V47.2788V47.2883V47.2979V47.3077V47.3175V47.3275V47.3377V47.3479V47.3583V47.3689V47.3795V47.3903V47.4012V47.4123V47.4234V47.4347V47.4461V47.4576V47.4693V47.4811V47.493V47.505V47.5171V47.5294V47.5417V47.5542V47.5668V47.5795V47.5924V47.6053V47.6184V47.6315V47.6448V47.6582V47.6717V47.6853V47.699V47.7128V47.7268V47.7408V47.7549V47.7692V47.7835V47.7979V47.8125V47.8271V47.8419V47.8567V47.8717V47.8867V47.9018V47.917V47.9324V47.9478V47.9633V47.9789V47.9946V48.0104V48.0262V48.0422V48.0583V48.0744V48.0906V48.1069V48.1233V48.1398V48.1564V48.173V48.1897V48.2065V48.2234V48.2404V48.2574V48.2746V48.2918V48.309V48.3264V48.3438V48.3613V48.3789V48.3965V48.4143V48.432V48.4499V48.4678V48.4858V48.5039V48.522V48.5402V48.5585V48.5768V48.5952V48.6136V48.6321V48.6507V48.6693V48.688V48.7067V48.7255V48.7444V48.7633V48.7823V48.8013V48.8204V48.8395V48.8587V48.878V48.8972V48.9166V48.936V48.9554V48.9749V48.9944V49.014V49.0336V49.0533V49.073V49.0927V49.1125V49.1323V49.1522V49.1721V49.192V49.212V49.232V49.2521V49.2722V49.2923V49.3125V49.3327V49.3529V49.3731V49.3934V49.4137V49.4341V49.4544V49.4748V49.4953V49.5157V49.5362V49.5567V49.5772V49.5977V49.6183V49.6389V49.6595V49.6801V49.7007V49.7214V49.7421V49.7628V49.7835V49.8042V49.8249V49.8457V49.8664V49.8872V49.908V49.9288V49.9496V49.9704V49.9912V50.012V50.0328V50.0536V50.0745V50.0953V50.1161V50.137V50.1578V50.1786V50.1995V50.2203V50.2411V50.262V50.2828V50.3036V50.3244V50.3452V50.366V50.3868V50.4076V50.4283V50.4491V50.4699V50.4906V50.5113V50.532V50.5527V50.5734V50.594V50.6147V50.6353V50.6559V50.6765V50.6971V50.7176V50.7381V50.7586V50.7791V50.7996V50.82V50.8404V50.8608V50.8811V50.9014V50.9217V50.942V50.9622V50.9824V51.0025V51.0227V51.0428V51.0628V51.0829V51.1028V51.1228V51.1427V51.1626V51.1824V51.2022V51.222V51.2417V51.2613V51.2809V51.3005V51.3201V51.3395V51.359V51.3784V51.3977V51.417V51.4362V51.4554V51.4746V51.4937V51.5127V51.5317V51.5506V51.5695V51.5883V51.607V51.6257V51.6444V51.6629V51.6815V51.6999V51.7183V51.7366V51.7549V51.7731V51.7912V51.8093V51.8273V51.8452V51.8631V51.8809V51.8986V51.9163V51.9339V51.9514V51.9688V51.9862V52.0035V52.0207V52.0378V52.0549V52.0718V52.0887V52.1055V52.1223V52.1389V52.1555V52.172V52.1884V52.2047V52.221V52.2371V52.2532V52.2691V52.285V52.3008V52.3165V52.3321V52.3477V52.3631V52.3784V52.3937V52.4088V52.4239V52.4388V52.4537V52.4684V52.4831V52.4976V52.5121V52.5264V52.5407V52.5548V52.5689V52.5828V52.5966V52.6104V52.624V52.6375V52.6509V52.6642V52.6774V52.6904V52.7034V52.7162V52.729V52.7416V52.7541V52.7665V52.7787V52.7909V52.8029V52.8148V52.8266V52.8383V52.8498V52.8613V52.8726V52.8837V52.8948V52.9057V52.9165V52.9272V52.9377V52.9482V52.9584V52.9686V52.9786V52.9885V52.9889V52.9983V53.0005V53.0079V53.0119V53.0174V53.023V53.0267V53.034V53.0359V53.0447V53.045V53.054V53.0551V53.0628V53.0654V53.0714V53.0754V53.08V53.0852V53.0883V53.0948V53.0966V53.1041V53.1047V53.1126V53.1133V53.1204V53.1222V53.1281V53.1309V53.1356V53.1394V53.143V53.1476V53.1502V53.1557V53.1573V53.1635V53.1642V53.171V53.1711V53.1776V53.1785V53.1841V53.1857V53.1904V53.1927V53.1966V53.1995V53.2026V53.206V53.2085V53.2124V53.2142V53.2185V53.2197V53.2245V53.2251V53.2302V53.2303V53.2354V53.2357V53.2403V53.241V53.2451V53.2461V53.2496V53.251V53.2541V53.2558V53.2583V53.2603V53.2624V53.2645V53.2664V53.2686V53.2702V53.2725V53.2738V53.2762V53.2772V53.2797V53.2805V53.283V53.2836V53.2862V53.2865V53.2891V53.2893V53.2919V53.2943V53.2965V53.2986V53.2988V53.3005V53.3007V53.3022V53.3025V53.3038V53.304V53.3052V53.3054V53.3064V53.3066V53.3074V53.3076V53.3082V53.3084V53.3089V53.309V53.3093V53.3096V53.3098V66.9889C66 67.5412 66.4477 67.9889 67 67.9889C67.5523 67.9889 68 67.5412 68 66.9889V53.3098V53.3094V53.309V53.3089V53.3084V53.3082V53.3076V53.3074V53.3066V53.3064V53.3054V53.3052V53.304V53.3038V53.3025V53.3022V53.3007V53.3005V53.2988V53.2986V53.2966V53.2943V53.2918V53.2893V53.2891V53.2865V53.2862V53.2836V53.283V53.2805V53.2797V53.2772V53.2762V53.2738V53.2725V53.2702V53.2686V53.2664V53.2645V53.2624V53.2603V53.2583V53.2558V53.2541V53.251V53.2496V53.2461V53.2451V53.241V53.2403V53.2357V53.2354V53.2303V53.2302V53.2251V53.2245V53.2197V53.2185V53.2142V53.2124V53.2085V53.206V53.2026V53.1995V53.1966V53.1927V53.1904V53.1857V53.1841V53.1785V53.1776V53.1711V53.171V53.1642V53.1635V53.1573V53.1557V53.1502V53.1476V53.143V53.1394V53.1356V53.1309V53.1281V53.1222V53.1204V53.1133V53.1126V53.1047V53.1041V53.0966V53.0948V53.0883V53.0852V53.08V53.0754V53.0714V53.0654V53.0628V53.0551V53.054V53.045V53.0447V53.0359V53.034V53.0267V53.023V53.0174V53.0119V53.0079V53.0005V52.9983V52.9889V52.9885V52.9786V52.9686V52.9584V52.9482V52.9377V52.9272V52.9165V52.9057V52.8948V52.8837V52.8726V52.8613V52.8498V52.8383V52.8266V52.8148V52.8029V52.7909V52.7787V52.7665V52.7541V52.7416V52.729V52.7162V52.7034V52.6904V52.6774V52.6642V52.6509V52.6375V52.624V52.6104V52.5966V52.5828V52.5689V52.5548V52.5407V52.5264V52.5121V52.4976V52.4831V52.4684V52.4537V52.4388V52.4239V52.4088V52.3937V52.3784V52.3631V52.3477V52.3321V52.3165V52.3008V52.285V52.2691V52.2532V52.2371V52.221V52.2047V52.1884V52.172V52.1555V52.1389V52.1223V52.1055V52.0887V52.0718V52.0549V52.0378V52.0207V52.0035V51.9862V51.9688V51.9514V51.9339V51.9163V51.8986V51.8809V51.8631V51.8452V51.8273V51.8093V51.7912V51.7731V51.7549V51.7366V51.7183V51.6999V51.6815V51.6629V51.6444V51.6257V51.607V51.5883V51.5695V51.5506V51.5317V51.5127V51.4937V51.4746V51.4554V51.4362V51.417V51.3977V51.3784V51.359V51.3395V51.3201V51.3005V51.2809V51.2613V51.2417V51.222V51.2022V51.1824V51.1626V51.1427V51.1228V51.1028V51.0829V51.0628V51.0428V51.0227V51.0025V50.9824V50.9622V50.942V50.9217V50.9014V50.8811V50.8608V50.8404V50.82V50.7996V50.7791V50.7586V50.7381V50.7176V50.6971V50.6765V50.6559V50.6353V50.6147V50.594V50.5734V50.5527V50.532V50.5113V50.4906V50.4699V50.4491V50.4283V50.4076V50.3868V50.366V50.3452V50.3244V50.3036V50.2828V50.262V50.2411V50.2203V50.1995V50.1786V50.1578V50.137V50.1161V50.0953V50.0745V50.0536V50.0328V50.012V49.9912V49.9704V49.9496V49.9288V49.908V49.8872V49.8664V49.8457V49.8249V49.8042V49.7835V49.7628V49.7421V49.7214V49.7007V49.6801V49.6595V49.6389V49.6183V49.5977V49.5772V49.5567V49.5362V49.5157V49.4953V49.4748V49.4544V49.4341V49.4137V49.3934V49.3731V49.3529V49.3327V49.3125V49.2923V49.2722V49.2521V49.232V49.212V49.192V49.1721V49.1522V49.1323V49.1125V49.0927V49.073V49.0533V49.0336V49.014V48.9944V48.9749V48.9554V48.936V48.9166V48.8972V48.878V48.8587V48.8395V48.8204V48.8013V48.7823V48.7633V48.7444V48.7255V48.7067V48.688V48.6693V48.6507V48.6321V48.6136V48.5952V48.5768V48.5585V48.5402V48.522V48.5039V48.4858V48.4678V48.4499V48.432V48.4143V48.3965V48.3789V48.3613V48.3438V48.3264V48.309V48.2918V48.2746V48.2574V48.2404V48.2234V48.2065V48.1897V48.173V48.1564V48.1398V48.1233V48.1069V48.0906V48.0744V48.0583V48.0422V48.0262V48.0104V47.9946V47.9789V47.9633V47.9478V47.9324V47.917V47.9018V47.8867V47.8717V47.8567V47.8419V47.8271V47.8125V47.7979V47.7835V47.7692V47.7549V47.7408V47.7268V47.7128V47.699V47.6853V47.6717V47.6582V47.6448V47.6315V47.6184V47.6053V47.5924V47.5795V47.5668V47.5542V47.5417V47.5294V47.5171V47.505V47.493V47.4811V47.4693V47.4576V47.4461V47.4347V47.4234V47.4123V47.4012V47.3903V47.3795V47.3689V47.3583V47.3479V47.3377V47.3275V47.3175V47.3077V47.2979V47.2883V47.2788V47.2695V47.2603V47.2512V47.2423V47.2335V47.2249V47.2164V47.208V47.1998V47.1917V47.1838V47.176V47.1683V47.1608V47.1535V47.1463V47.1392V47.1323V47.1256V47.119V47.1125V47.1062V47.1001V47.0941V47.0882V47.0825V47.077V47.0717V47.0664V47.0614V47.0565V47.0518V47.0472V47.0428V47.0385V47.0345V47.0305V47.0268V47.0232V47.0198V47.0165V47.0135V47.0105V47.0078V47.0052V47.0028V47.0006V46.9986V46.9967V46.995V46.9934V46.9921V46.9909V46.9899V46.9891V46.9885V46.988V46.9877L67 46.9877H68C68 42.8326 67.0443 39.6488 65.5593 37.2224C64.0757 34.7983 62.0984 33.1862 60.1387 32.1186C58.1845 31.0541 56.2408 30.5265 54.7926 30.2641C54.0664 30.1324 53.4586 30.0664 53.0277 30.0334C52.8121 30.0169 52.64 30.0086 52.5185 30.0046C52.4579 30.0026 52.4091 30.0017 52.3731 30.0013L52.3247 30.0011L52.3091 30.0014L38.0001 30ZM73 31C73 30.4477 72.5523 30 72 30C71.4477 30 71 30.4477 71 31V65V65.0293C71 67.009 71 68.7912 71.112 70.3291C71.2242 71.8696 71.4534 73.2544 71.9587 74.4103C72.4789 75.6 73.2875 76.5363 74.5001 77.1524C75.6801 77.752 77.1692 78.0111 79 78.0111C82.2006 78.0111 85.201 78.0083 87.7761 78.0056L89.1721 78.004H89.1763H89.1803H89.1839C91.1377 78.0018 92.783 78 94 78C94.5523 78 95 77.5523 95 77C95 76.4477 94.5523 76 94 76C92.7795 76 91.1289 76.0018 89.1702 76.004L87.7739 76.0056C85.199 76.0083 82.1995 76.0111 79 76.0111C77.3308 76.0111 76.1949 75.7702 75.4061 75.3694C74.65 74.9852 74.1461 74.4208 73.7913 73.6091C73.4216 72.7637 73.2133 71.6464 73.1067 70.1838C73.0006 68.7261 73 67.0141 73 65V31ZM46 40.0006C46 39.4483 45.5523 39.0006 45 39.0006C44.4477 39.0006 44 39.4483 44 40.0006V52.9889C44 54.5722 44.2547 56.2167 45.6457 57.3888C46.9716 58.5062 49.1145 59.0006 52.3206 59.0006H52.3422H52.3636H52.3848H52.406H52.4271H52.4481H52.469H52.4897H52.5104H52.5309H52.5514H52.5718H52.592H52.6122H52.6322H52.6522H52.672H52.6917H52.7114H52.7309H52.7504H52.7697H52.789H52.8081H52.8272H52.8462H52.865H52.8838H52.9024H52.921H52.9395H52.9579H52.9762H52.9944H53.0125H53.0305H53.0484H53.0662H53.084H53.1016H53.1192H53.1366H53.154H53.1713H53.1885H53.2056H53.2226H53.2395H53.2563H53.2731H53.2897H53.3063H53.3228H53.3392H53.3555H53.3718H53.3879H53.404H53.42H53.4359H53.4517H53.4674H53.4831H53.4986H53.5141H53.5295H53.5449H53.5601H53.5753H53.5904H53.6054H53.6203H53.6351H53.6499H53.6646H53.6792H53.6938H53.7082H53.7226H53.7369H53.7512H53.7654H53.7794H53.7935H53.8074H53.8213H53.8351H53.8488H53.8625H53.8761H53.8896H53.903H53.9164H53.9297H53.9429H53.9561H53.9692H53.9822H53.9952H54.0081H54.0209H54.0337H54.0463H54.059H54.0715H54.084H54.0965H54.1088H54.1211H54.1334H54.1456H54.1577H54.1697H54.1817H54.1937H54.2055H54.2174H54.2291H54.2408H54.2524H54.264H54.2755H54.287H54.2984H54.3097H54.321H54.3322H54.3434H54.3545H54.3656H54.3766H54.3876H54.3984H54.4093H54.4201H54.4308H54.4415H54.4522H54.4627H54.4733H54.4837H54.4942H54.5046H54.5149H54.5252H54.5354H54.5456H54.5557H54.5658H54.5759H54.5859H54.5958H54.6057H54.6156H54.6254H54.6352H54.6449H54.6546H54.6642H54.6738H54.6833H54.6929H54.7023H54.7117H54.7211H54.7305H54.7398H54.749H54.7583H54.7674H54.7766H54.7857H54.7948H54.8038H54.8128H54.8218H54.8307H54.8396H54.8484H54.8572H54.866H54.8748H54.8835H54.8921H54.9008H54.9094H54.918H54.9265H54.9351H54.9435H54.952H54.9604H54.9688H54.9772H54.9855H54.9938H55.0021H55.0104H55.0186H55.0268H55.035H55.0431H55.0512H55.0593H55.0674H55.0754H55.0835H55.0915H55.0994H55.1074H55.1153H55.1232H55.1311H55.139H55.1468H55.1546H55.1624H55.1702H55.178H55.1857H55.1934H55.2011H55.2088H55.2165H55.2241H55.2318H55.2394H55.247H55.2546H55.2622H55.2697H55.2773H55.2848H55.2923H55.2998H55.3073H55.3148H55.3223H55.3297H55.3372H55.3446H55.352H55.3595H55.3669H55.3743H55.3816H55.389H55.3964H55.4038H55.4111H55.4185H55.4258H55.4332H55.4405H55.4478H55.4552H55.4625H55.4698H55.4771H55.4844H55.4917H55.499H55.5064H55.5137H55.521H55.5283H55.5356H55.5429H55.5502H55.5575H55.5648H55.5721H55.5794H55.5867H55.594H55.6014H55.6087H55.616H55.6233H55.6307H55.638H55.6454H55.6527H55.6601H55.6675H55.6749H55.6822H55.6896H55.697H55.7044H55.7119H55.7193H55.7267H55.7342H55.7417H55.7491H55.7566H55.7641H55.7716H55.7792H55.7867H55.7943H55.8018H55.8094H55.817H55.8246H55.8323H55.8399H55.8476H55.8552H55.8629H55.8707H55.8784H55.8861H55.8939H55.9017H55.9095H55.9174H55.9252H55.9331H55.941H55.9489H55.9568H55.9648H55.9728H55.9808H55.9888H55.9969H56.005H56.0131H56.0212H56.0294H56.0376H56.0458H56.054H56.0623H56.0706H56.0789H56.0873H56.0957H56.1041H56.1125H56.121H56.1295H56.138H56.1466H56.1552H56.1638H56.1725H56.1812H56.1899H56.1987H56.2075H56.2163H56.2252H56.2341H56.2431H56.252H56.2611H56.2701H56.2792H56.2883H56.2975H56.3067H56.316H56.3252H56.3346H56.3439H56.3533H56.3628H56.3723H56.3818H56.3914H56.401H56.4107H56.4204H56.4301H56.4399H56.4498H56.4597H56.4696H56.4796H56.4896H56.4997H56.5098H56.5199H56.5302H56.5404H56.5507H56.5611H56.5715H56.582H56.5925H56.603H56.6137H56.6243H56.635H56.6458H56.6566H56.6675H56.6784H56.6894H56.7005H56.7116H56.7227H56.7339H56.7452H56.7565H56.7679H56.7793H56.7908H56.8024H56.814H56.8256H56.8374H56.8492H56.861H56.8729H56.8849H56.8969H56.909H56.9212H56.9334H56.9457H56.958H56.9704H56.9829H56.9954H57.008H57.0207H57.0334H57.0462H57.0591H57.072H57.085H57.0981H57.1112H57.1244H57.1377H57.1511H57.1645H57.1779H57.1915H57.2051H57.2188H57.2326H57.2464H57.2604H57.2743H57.2884H57.3025H57.3168H57.331H57.3454H57.3598H57.3743H57.3889H57.4036H57.4183H57.4332H57.4481H57.463H57.4781H57.4932H57.5084H57.5237H57.5391H57.5546H57.5701H57.5857H57.6014H57.6172H57.6331H57.649H57.665H57.6812H57.6974H57.7136H57.73H57.7465H57.763H57.7796H57.7963H57.8131H57.83H57.847H57.8641H57.8812H57.8985H57.9158H57.9332H57.9508H57.9684H57.9861H58.0038H58.0217H58.0397H58.0578H58.0759H58.0942H58.1125H58.131H58.1495H58.1681H58.1868H58.2057H58.2246H58.2436H58.2627H58.2819H58.3012H58.3206C58.8729 59.0006 59.3206 58.5529 59.3206 58.0006C59.3206 57.4483 58.8729 57.0006 58.3206 57.0006H58.3012H58.2819H58.2627H58.2436H58.2246H58.2057H58.1868H58.1681H58.1495H58.131H58.1125H58.0942H58.0759H58.0578H58.0397H58.0217H58.0038H57.9861H57.9684H57.9508H57.9332H57.9158H57.8985H57.8812H57.8641H57.847H57.83H57.8131H57.7963H57.7796H57.763H57.7465H57.73H57.7136H57.6974H57.6812H57.665H57.649H57.6331H57.6172H57.6014H57.5857H57.5701H57.5546H57.5391H57.5237H57.5084H57.4932H57.4781H57.463H57.4481H57.4332H57.4183H57.4036H57.3889H57.3743H57.3598H57.3454H57.331H57.3168H57.3025H57.2884H57.2743H57.2604H57.2464H57.2326H57.2188H57.2051H57.1915H57.1779H57.1645H57.1511H57.1377H57.1244H57.1112H57.0981H57.085H57.072H57.0591H57.0462H57.0334H57.0207H57.008H56.9954H56.9829H56.9704H56.958H56.9457H56.9334H56.9212H56.909H56.8969H56.8849H56.8729H56.861H56.8492H56.8374H56.8256H56.814H56.8024H56.7908H56.7793H56.7679H56.7565H56.7452H56.7339H56.7227H56.7116H56.7005H56.6894H56.6784H56.6675H56.6566H56.6458H56.635H56.6243H56.6137H56.603H56.5925H56.582H56.5715H56.5611H56.5507H56.5404H56.5302H56.5199H56.5098H56.4997H56.4896H56.4796H56.4696H56.4597H56.4498H56.4399H56.4301H56.4204H56.4107H56.401H56.3914H56.3818H56.3723H56.3628H56.3533H56.3439H56.3346H56.3252H56.316H56.3067H56.2975H56.2883H56.2792H56.2701H56.2611H56.252H56.2431H56.2341H56.2252H56.2163H56.2075H56.1987H56.1899H56.1812H56.1725H56.1638H56.1552H56.1466H56.138H56.1295H56.121H56.1125H56.1041H56.0957H56.0873H56.0789H56.0706H56.0623H56.054H56.0458H56.0376H56.0294H56.0212H56.0131H56.005H55.9969H55.9888H55.9808H55.9728H55.9648H55.9568H55.9489H55.941H55.9331H55.9252H55.9174H55.9095H55.9017H55.8939H55.8861H55.8784H55.8707H55.8629H55.8552H55.8476H55.8399H55.8323H55.8246H55.817H55.8094H55.8018H55.7943H55.7867H55.7792H55.7716H55.7641H55.7566H55.7491H55.7417H55.7342H55.7267H55.7193H55.7119H55.7044H55.697H55.6896H55.6822H55.6749H55.6675H55.6601H55.6527H55.6454H55.638H55.6307H55.6233H55.616H55.6087H55.6014H55.594H55.5867H55.5794H55.5721H55.5648H55.5575H55.5502H55.5429H55.5356H55.5283H55.521H55.5137H55.5064H55.499H55.4917H55.4844H55.4771H55.4698H55.4625H55.4552H55.4478H55.4405H55.4332H55.4258H55.4185H55.4111H55.4038H55.3964H55.389H55.3816H55.3743H55.3669H55.3595H55.352H55.3446H55.3372H55.3297H55.3223H55.3148H55.3073H55.2998H55.2923H55.2848H55.2773H55.2697H55.2622H55.2546H55.247H55.2394H55.2318H55.2241H55.2165H55.2088H55.2011H55.1934H55.1857H55.178H55.1702H55.1624H55.1546H55.1468H55.139H55.1311H55.1232H55.1153H55.1074H55.0994H55.0915H55.0835H55.0754H55.0674H55.0593H55.0512H55.0431H55.035H55.0268H55.0186H55.0104H55.0021H54.9938H54.9855H54.9772H54.9688H54.9604H54.952H54.9435H54.9351H54.9265H54.918H54.9094H54.9008H54.8921H54.8835H54.8748H54.866H54.8572H54.8484H54.8396H54.8307H54.8218H54.8128H54.8038H54.7948H54.7857H54.7766H54.7674H54.7583H54.749H54.7398H54.7305H54.7211H54.7117H54.7023H54.6929H54.6833H54.6738H54.6642H54.6546H54.6449H54.6352H54.6254H54.6156H54.6057H54.5958H54.5859H54.5759H54.5658H54.5557H54.5456H54.5354H54.5252H54.5149H54.5046H54.4942H54.4837H54.4733H54.4627H54.4522H54.4415H54.4308H54.4201H54.4093H54.3984H54.3876H54.3766H54.3656H54.3545H54.3434H54.3322H54.321H54.3097H54.2984H54.287H54.2755H54.264H54.2524H54.2408H54.2291H54.2174H54.2055H54.1937H54.1817H54.1697H54.1577H54.1456H54.1334H54.1211H54.1088H54.0965H54.084H54.0715H54.059H54.0463H54.0337H54.0209H54.0081H53.9952H53.9822H53.9692H53.9561H53.9429H53.9297H53.9164H53.903H53.8896H53.8761H53.8625H53.8488H53.8351H53.8213H53.8074H53.7935H53.7794H53.7654H53.7512H53.7369H53.7226H53.7082H53.6938H53.6792H53.6646H53.6499H53.6351H53.6203H53.6054H53.5904H53.5753H53.5601H53.5449H53.5295H53.5141H53.4986H53.4831H53.4674H53.4517H53.4359H53.42H53.404H53.3879H53.3718H53.3555H53.3392H53.3228H53.3063H53.2897H53.2731H53.2563H53.2395H53.2226H53.2056H53.1885H53.1713H53.154H53.1366H53.1192H53.1016H53.084H53.0662H53.0484H53.0305H53.0125H52.9944H52.9762H52.9579H52.9395H52.921H52.9024H52.8838H52.865H52.8462H52.8272H52.8081H52.789H52.7697H52.7504H52.7309H52.7114H52.6917H52.672H52.6522H52.6322H52.6122H52.592H52.5718H52.5514H52.5309H52.5104H52.4897H52.469H52.4481H52.4271H52.406H52.3848H52.3636H52.3422H52.3206C49.2061 57.0006 47.6887 56.4951 46.9345 55.8595C46.2453 55.2787 46 54.4173 46 52.9889V40.0006ZM63 73C63 76.3137 60.3137 79 57 79C53.6863 79 51 76.3137 51 73C51 69.6863 53.6863 67 57 67C60.3137 67 63 69.6863 63 73ZM65 73C65 77.4183 61.4183 81 57 81C52.5817 81 49 77.4183 49 73C49 68.5817 52.5817 65 57 65C61.4183 65 65 68.5817 65 73ZM35 79C38.3137 79 41 76.3137 41 73C41 69.6863 38.3137 67 35 67C31.6863 67 29 69.6863 29 73C29 76.3137 31.6863 79 35 79ZM35 81C39.4183 81 43 77.4183 43 73C43 68.5817 39.4183 65 35 65C30.5817 65 27 68.5817 27 73C27 77.4183 30.5817 81 35 81ZM45 72C44.4477 72 44 72.4477 44 73C44 73.5523 44.4477 74 45 74H47C47.5523 74 48 73.5523 48 73C48 72.4477 47.5523 72 47 72H45Z" fill="#2B59FF"/>
</svg>
