<svg width="607" height="558" viewBox="0 0 607 558" fill="none" xmlns="http://www.w3.org/2000/svg">
<circle cx="283" cy="261.437" r="198.5" stroke="white" stroke-dasharray="4 4"/>
<circle cx="283" cy="261.437" r="145.954" fill="#162D91"/>
<rect x="417" y="135" width="66" height="55" fill="#183AD3"/>
<rect x="230" y="431" width="66" height="55" fill="#2B50E1"/>
<rect x="54" y="170" width="66" height="55" fill="#183AD3"/>
<g filter="url(#filter0_d_39_453)">
<rect x="40" y="36" width="160" height="164" rx="15" fill="white"/>
</g>
<path d="M110.086 156.785C109.833 157.638 109.433 158.351 108.886 158.925C108.339 159.498 107.693 159.925 106.946 160.205C106.199 160.485 105.379 160.625 104.486 160.625C103.179 160.625 102.046 160.351 101.086 159.805C100.139 159.258 99.4059 158.478 98.8859 157.465C98.3792 156.451 98.1259 155.238 98.1259 153.825C98.1259 152.411 98.3792 151.198 98.8859 150.185C99.4059 149.171 100.139 148.391 101.086 147.845C102.046 147.298 103.166 147.025 104.446 147.025C105.353 147.025 106.173 147.151 106.906 147.405C107.639 147.645 108.259 148.018 108.766 148.525C109.286 149.031 109.666 149.671 109.906 150.445L107.406 151.505C107.179 150.705 106.833 150.138 106.366 149.805C105.899 149.458 105.299 149.285 104.566 149.285C103.846 149.285 103.213 149.458 102.666 149.805C102.133 150.151 101.719 150.665 101.426 151.345C101.133 152.011 100.986 152.838 100.986 153.825C100.986 154.798 101.119 155.625 101.386 156.305C101.666 156.985 102.073 157.498 102.606 157.845C103.139 158.191 103.793 158.365 104.566 158.365C105.286 158.365 105.906 158.171 106.426 157.785C106.959 157.398 107.333 156.811 107.546 156.025L110.086 156.785ZM118.458 147.225C119.952 147.225 121.125 147.585 121.978 148.305C122.832 149.025 123.258 149.991 123.258 151.205C123.258 152.498 122.832 153.491 121.978 154.185C121.125 154.865 119.958 155.205 118.478 155.205L118.198 155.365H115.358V160.425H112.638V147.225H118.458ZM118.138 153.265C118.912 153.265 119.485 153.111 119.858 152.805C120.245 152.485 120.438 151.998 120.438 151.345C120.438 150.691 120.245 150.211 119.858 149.905C119.485 149.585 118.912 149.425 118.138 149.425H115.358V153.265H118.138ZM119.758 153.845L124.038 160.425H120.938L117.398 154.645L119.758 153.845ZM140.792 147.225V160.425H138.292V153.545L138.432 149.685H138.392L134.732 160.425H132.472L128.832 149.685H128.792L128.932 153.545V160.425H126.432V147.225H130.432L132.812 154.425L133.652 157.405H133.692L134.552 154.445L136.912 147.225H140.792Z" fill="black"/>
<path d="M145.252 80.6157H95.7484C93.6816 80.6157 92 82.2973 92 84.3641V118.636C92 120.702 93.6816 122.384 95.7484 122.384H145.252C147.318 122.384 149 120.702 149 118.636V84.3641C149 82.2973 147.318 80.6157 145.252 80.6157ZM105.328 120.599H95.7484C94.6658 120.599 93.7849 119.718 93.7849 118.636V84.3641C93.7849 83.2815 94.6658 82.4006 95.7484 82.4006H105.328V120.599ZM147.215 118.636C147.215 119.718 146.334 120.599 145.252 120.599H107.113V82.4008H145.252C146.334 82.4008 147.215 83.2816 147.215 84.3643V118.636Z" fill="#183AD3"/>
<path d="M113.836 84.4238H110.028C109.535 84.4238 109.136 84.8234 109.136 85.3163C109.136 85.8093 109.535 86.2089 110.028 86.2089H113.836C114.329 86.2089 114.729 85.8093 114.729 85.3163C114.729 84.8234 114.329 84.4238 113.836 84.4238Z" fill="#183AD3"/>
<path d="M102.413 84.4238H96.7006C96.2078 84.4238 95.8081 84.8234 95.8081 85.3163C95.8081 85.8093 96.2077 86.2089 96.7006 86.2089H102.413C102.905 86.2089 103.305 85.8093 103.305 85.3163C103.305 84.8234 102.905 84.4238 102.413 84.4238Z" fill="#183AD3"/>
<path d="M102.413 93.9434H96.7006C96.2078 93.9434 95.8081 94.3429 95.8081 94.8359C95.8081 95.3288 96.2077 95.7284 96.7006 95.7284H102.413C102.905 95.7284 103.305 95.3288 103.305 94.8359C103.305 94.3429 102.905 93.9434 102.413 93.9434Z" fill="#183AD3"/>
<path d="M102.413 101.56H96.7006C96.2078 101.56 95.8081 101.959 95.8081 102.452C95.8081 102.945 96.2077 103.345 96.7006 103.345H102.413C102.905 103.345 103.305 102.945 103.305 102.452C103.305 101.959 102.905 101.56 102.413 101.56Z" fill="#183AD3"/>
<path d="M102.413 109.175H96.7006C96.2078 109.175 95.8081 109.575 95.8081 110.068C95.8081 110.561 96.2077 110.96 96.7006 110.96H102.413C102.905 110.96 103.305 110.561 103.305 110.068C103.305 109.575 102.905 109.175 102.413 109.175Z" fill="#183AD3"/>
<path d="M102.413 97.7515H96.7006C96.2078 97.7515 95.8081 98.151 95.8081 98.644C95.8081 99.1369 96.2077 99.5365 96.7006 99.5365H102.413C102.905 99.5365 103.305 99.1369 103.305 98.644C103.305 98.151 102.905 97.7515 102.413 97.7515Z" fill="#183AD3"/>
<path d="M102.413 105.367H96.7006C96.2078 105.367 95.8081 105.767 95.8081 106.26C95.8081 106.753 96.2077 107.152 96.7006 107.152H102.413C102.905 107.152 103.305 106.753 103.305 106.26C103.305 105.767 102.905 105.367 102.413 105.367Z" fill="#183AD3"/>
<path d="M100.509 114.887H96.7006C96.2078 114.887 95.8081 115.287 95.8081 115.78C95.8081 116.273 96.2077 116.672 96.7006 116.672H100.509C101.001 116.672 101.401 116.273 101.401 115.78C101.401 115.287 101.001 114.887 100.509 114.887Z" fill="#183AD3"/>
<path d="M100.509 88.2319H96.7006C96.2078 88.2319 95.8081 88.6315 95.8081 89.1245C95.8081 89.6174 96.2077 90.017 96.7006 90.017H100.509C101.001 90.017 101.401 89.6174 101.401 89.1245C101.401 88.6315 101.001 88.2319 100.509 88.2319Z" fill="#183AD3"/>
<path d="M121.452 84.4238H117.644C117.151 84.4238 116.751 84.8234 116.751 85.3163C116.751 85.8093 117.151 86.2089 117.644 86.2089H121.452C121.945 86.2089 122.344 85.8093 122.344 85.3163C122.344 84.8234 121.945 84.4238 121.452 84.4238Z" fill="#183AD3"/>
<path d="M129.068 84.4238H125.26C124.767 84.4238 124.367 84.8234 124.367 85.3163C124.367 85.8093 124.767 86.2089 125.26 86.2089H129.068C129.561 86.2089 129.96 85.8093 129.96 85.3163C129.96 84.8234 129.561 84.4238 129.068 84.4238Z" fill="#183AD3"/>
<path d="M136.684 84.4238H132.876C132.383 84.4238 131.983 84.8234 131.983 85.3163C131.983 85.8093 132.383 86.2089 132.876 86.2089H136.684C137.177 86.2089 137.576 85.8093 137.576 85.3163C137.576 84.8234 137.177 84.4238 136.684 84.4238Z" fill="#183AD3"/>
<path d="M144.3 84.4238H140.492C139.999 84.4238 139.599 84.8234 139.599 85.3163C139.599 85.8093 139.999 86.2089 140.492 86.2089H144.3C144.792 86.2089 145.192 85.8093 145.192 85.3163C145.192 84.8234 144.792 84.4238 144.3 84.4238Z" fill="#183AD3"/>
<path d="M120.084 104.595C119.69 104.299 119.13 104.378 118.835 104.772C118.096 105.756 116.968 106.32 115.74 106.32C113.607 106.32 111.872 104.585 111.872 102.452C111.872 100.32 113.607 98.5847 115.74 98.5847C116.969 98.5847 118.097 99.1495 118.836 100.134C119.132 100.528 119.691 100.608 120.085 100.312C120.48 100.017 120.559 99.4572 120.264 99.063C119.185 97.6246 117.536 96.7998 115.74 96.7998C112.623 96.7998 110.087 99.3355 110.087 102.452C110.087 105.569 112.623 108.105 115.74 108.105C117.534 108.105 119.182 107.281 120.262 105.844C120.558 105.45 120.478 104.891 120.084 104.595Z" fill="#183AD3"/>
<path d="M128.888 104.216C130.586 103.859 131.864 102.35 131.864 100.548C131.864 98.4808 130.183 96.7993 128.116 96.7993H123.356C122.863 96.7993 122.463 97.1989 122.463 97.6918V107.212C122.463 107.704 122.863 108.104 123.356 108.104C123.849 108.104 124.248 107.705 124.248 107.212V104.296H126.718L129.306 107.747C129.481 107.981 129.749 108.104 130.021 108.104C130.207 108.104 130.395 108.046 130.555 107.926C130.95 107.63 131.03 107.07 130.734 106.676L128.888 104.216ZM124.248 102.511V98.5845H128.116C129.198 98.5845 130.079 99.4653 130.079 100.548C130.079 101.631 129.198 102.511 128.116 102.511H124.248V102.511Z" fill="#183AD3"/>
<path d="M144.236 107.123L143.284 97.6031C143.243 97.1939 142.928 96.8657 142.52 96.8082C142.114 96.7505 141.72 96.9786 141.567 97.3605L138.588 104.809L135.608 97.3605C135.455 96.9787 135.062 96.7511 134.655 96.8082C134.248 96.8657 133.932 97.1939 133.892 97.6031L132.94 107.123C132.891 107.613 133.248 108.051 133.739 108.1C134.229 108.149 134.667 107.791 134.716 107.3L135.305 101.408L137.759 107.543C137.895 107.882 138.223 108.104 138.588 108.104C138.953 108.104 139.281 107.882 139.416 107.543L141.87 101.408L142.46 107.3C142.506 107.761 142.894 108.104 143.347 108.104C143.376 108.104 143.406 108.103 143.436 108.1C143.927 108.051 144.285 107.613 144.236 107.123Z" fill="#183AD3"/>
<g filter="url(#filter1_d_39_453)">
<rect x="407" y="158" width="160" height="164" rx="15" fill="white"/>
</g>
<path d="M446.274 256.004C446.021 256.857 445.621 257.571 445.074 258.144C444.528 258.717 443.881 259.144 443.134 259.424C442.388 259.704 441.568 259.844 440.674 259.844C439.368 259.844 438.234 259.571 437.274 259.024C436.328 258.477 435.594 257.697 435.074 256.684C434.568 255.671 434.314 254.457 434.314 253.044C434.314 251.631 434.568 250.417 435.074 249.404C435.594 248.391 436.328 247.611 437.274 247.064C438.234 246.517 439.354 246.244 440.634 246.244C441.541 246.244 442.361 246.371 443.094 246.624C443.828 246.864 444.448 247.237 444.954 247.744C445.474 248.251 445.854 248.891 446.094 249.664L443.594 250.724C443.368 249.924 443.021 249.357 442.554 249.024C442.088 248.677 441.488 248.504 440.754 248.504C440.034 248.504 439.401 248.677 438.854 249.024C438.321 249.371 437.908 249.884 437.614 250.564C437.321 251.231 437.174 252.057 437.174 253.044C437.174 254.017 437.308 254.844 437.574 255.524C437.854 256.204 438.261 256.717 438.794 257.064C439.328 257.411 439.981 257.584 440.754 257.584C441.474 257.584 442.094 257.391 442.614 257.004C443.148 256.617 443.521 256.031 443.734 255.244L446.274 256.004ZM454.247 253.264C454.247 252.691 454.08 252.244 453.747 251.924C453.427 251.604 453 251.444 452.467 251.444C451.973 251.444 451.54 251.571 451.167 251.824C450.793 252.077 450.52 252.497 450.347 253.084L448.007 252.364C448.233 251.484 448.727 250.777 449.487 250.244C450.26 249.711 451.293 249.444 452.587 249.444C453.467 249.444 454.233 249.584 454.887 249.864C455.54 250.131 456.047 250.537 456.407 251.084C456.78 251.631 456.967 252.317 456.967 253.144V257.204C456.967 257.711 457.207 257.964 457.687 257.964C457.913 257.964 458.127 257.931 458.327 257.864L458.167 259.564C457.82 259.737 457.387 259.824 456.867 259.824C456.4 259.824 455.98 259.744 455.607 259.584C455.233 259.424 454.94 259.184 454.727 258.864C454.513 258.531 454.407 258.117 454.407 257.624V257.544L454.887 257.464C454.807 257.971 454.587 258.404 454.227 258.764C453.867 259.111 453.427 259.377 452.907 259.564C452.4 259.751 451.873 259.844 451.327 259.844C450.647 259.844 450.06 259.744 449.567 259.544C449.073 259.331 448.693 259.024 448.427 258.624C448.16 258.224 448.027 257.731 448.027 257.144C448.027 256.397 448.267 255.791 448.747 255.324C449.227 254.844 449.913 254.517 450.807 254.344L454.567 253.584L454.547 255.284L452.147 255.764C451.693 255.857 451.347 255.984 451.107 256.144C450.88 256.291 450.767 256.537 450.767 256.884C450.767 257.217 450.887 257.471 451.127 257.644C451.38 257.817 451.68 257.904 452.027 257.904C452.307 257.904 452.58 257.871 452.847 257.804C453.113 257.737 453.353 257.631 453.567 257.484C453.78 257.337 453.947 257.137 454.067 256.884C454.187 256.631 454.247 256.324 454.247 255.964V253.264ZM460.231 259.644V249.644H462.611L462.791 251.604C463.058 250.911 463.445 250.377 463.951 250.004C464.471 249.631 465.118 249.444 465.891 249.444C466.118 249.444 466.325 249.464 466.511 249.504C466.698 249.544 466.851 249.597 466.971 249.664L466.651 251.964C466.518 251.911 466.351 251.871 466.151 251.844C465.965 251.817 465.718 251.804 465.411 251.804C465.011 251.804 464.625 251.904 464.251 252.104C463.878 252.291 463.571 252.584 463.331 252.984C463.091 253.371 462.971 253.864 462.971 254.464V259.644H460.231ZM477.776 247.264L478.096 249.224C478.043 249.224 477.983 249.224 477.916 249.224C477.863 249.211 477.803 249.204 477.736 249.204C477.123 249.204 476.663 249.344 476.356 249.624C476.05 249.891 475.896 250.264 475.896 250.744L474.776 250.284C474.776 249.751 474.883 249.257 475.096 248.804C475.31 248.337 475.623 247.964 476.036 247.684C476.463 247.404 476.97 247.264 477.556 247.264C477.583 247.264 477.616 247.264 477.656 247.264C477.696 247.264 477.736 247.264 477.776 247.264ZM474.496 257.764C475.576 257.764 476.41 257.997 476.996 258.464C477.583 258.931 477.876 259.584 477.876 260.424C477.876 261.184 477.656 261.824 477.216 262.344C476.776 262.877 476.156 263.277 475.356 263.544C474.57 263.811 473.656 263.944 472.616 263.944C470.896 263.944 469.636 263.704 468.836 263.224C468.05 262.744 467.656 262.117 467.656 261.344C467.656 260.797 467.863 260.337 468.276 259.964C468.703 259.591 469.403 259.384 470.376 259.344L470.276 259.664C469.583 259.544 469.05 259.317 468.676 258.984C468.316 258.637 468.136 258.164 468.136 257.564C468.136 256.951 468.37 256.451 468.836 256.064C469.316 255.664 469.963 255.431 470.776 255.364L471.976 255.924H471.696C471.123 255.964 470.716 256.084 470.476 256.284C470.25 256.471 470.136 256.684 470.136 256.924C470.136 257.204 470.243 257.417 470.456 257.564C470.683 257.697 471.003 257.764 471.416 257.764H474.496ZM472.636 262.064C473.33 262.064 473.896 262.004 474.336 261.884C474.79 261.764 475.123 261.611 475.336 261.424C475.563 261.237 475.676 261.031 475.676 260.804C475.676 260.551 475.576 260.344 475.376 260.184C475.176 260.037 474.816 259.964 474.296 259.964H470.916C470.596 259.964 470.33 260.044 470.116 260.204C469.916 260.364 469.816 260.584 469.816 260.864C469.816 261.237 470.063 261.531 470.556 261.744C471.063 261.957 471.756 262.064 472.636 262.064ZM472.656 249.444C473.59 249.444 474.396 249.584 475.076 249.864C475.77 250.131 476.296 250.517 476.656 251.024C477.03 251.531 477.216 252.137 477.216 252.844C477.216 253.537 477.03 254.137 476.656 254.644C476.296 255.151 475.77 255.544 475.076 255.824C474.396 256.091 473.59 256.224 472.656 256.224C471.176 256.224 470.043 255.924 469.256 255.324C468.483 254.711 468.096 253.884 468.096 252.844C468.096 252.137 468.276 251.531 468.636 251.024C469.01 250.517 469.536 250.131 470.216 249.864C470.896 249.584 471.71 249.444 472.656 249.444ZM472.656 251.164C472.123 251.164 471.683 251.311 471.336 251.604C470.99 251.897 470.816 252.304 470.816 252.824C470.816 253.344 470.99 253.757 471.336 254.064C471.683 254.357 472.123 254.504 472.656 254.504C473.19 254.504 473.623 254.357 473.956 254.064C474.303 253.757 474.476 253.344 474.476 252.824C474.476 252.304 474.303 251.897 473.956 251.604C473.623 251.311 473.19 251.164 472.656 251.164ZM484.293 249.444C485.306 249.444 486.193 249.651 486.953 250.064C487.726 250.477 488.326 251.071 488.753 251.844C489.193 252.617 489.413 253.551 489.413 254.644C489.413 255.724 489.193 256.657 488.753 257.444C488.326 258.217 487.726 258.811 486.953 259.224C486.193 259.637 485.306 259.844 484.293 259.844C483.293 259.844 482.406 259.637 481.633 259.224C480.859 258.811 480.253 258.217 479.813 257.444C479.386 256.657 479.173 255.724 479.173 254.644C479.173 253.551 479.386 252.617 479.813 251.844C480.253 251.071 480.859 250.477 481.633 250.064C482.406 249.651 483.293 249.444 484.293 249.444ZM484.293 251.484C483.786 251.484 483.353 251.604 482.993 251.844C482.646 252.071 482.379 252.417 482.193 252.884C482.006 253.351 481.913 253.937 481.913 254.644C481.913 255.351 482.006 255.937 482.193 256.404C482.379 256.871 482.646 257.224 482.993 257.464C483.353 257.691 483.786 257.804 484.293 257.804C484.786 257.804 485.206 257.691 485.553 257.464C485.913 257.224 486.186 256.871 486.373 256.404C486.559 255.937 486.653 255.351 486.653 254.644C486.653 253.937 486.559 253.351 486.373 252.884C486.186 252.417 485.913 252.071 485.553 251.844C485.206 251.604 484.786 251.484 484.293 251.484ZM504.532 249.644H507.452L504.252 259.644H501.092L498.912 252.844L496.812 259.644H493.652L490.452 249.644H493.372L495.372 257.304L497.592 249.644H500.312L502.552 257.304L504.532 249.644ZM510.731 248.204C510.158 248.204 509.731 248.084 509.451 247.844C509.171 247.591 509.031 247.224 509.031 246.744C509.031 246.251 509.171 245.884 509.451 245.644C509.731 245.391 510.158 245.264 510.731 245.264C511.305 245.264 511.731 245.391 512.011 245.644C512.291 245.884 512.431 246.251 512.431 246.744C512.431 247.224 512.291 247.591 512.011 247.844C511.731 248.084 511.305 248.204 510.731 248.204ZM512.091 249.644V259.644H509.351V249.644H512.091ZM519.196 259.844C518.183 259.844 517.256 259.664 516.416 259.304C515.589 258.944 514.916 258.437 514.396 257.784L515.976 256.184C516.296 256.664 516.723 257.057 517.256 257.364C517.789 257.671 518.423 257.824 519.156 257.824C519.676 257.824 520.089 257.751 520.396 257.604C520.716 257.444 520.876 257.197 520.876 256.864C520.876 256.651 520.803 256.471 520.656 256.324C520.509 256.164 520.216 256.037 519.776 255.944L518.016 255.584C516.856 255.344 516.029 254.984 515.536 254.504C515.056 254.011 514.816 253.377 514.816 252.604C514.816 252.057 514.976 251.544 515.296 251.064C515.629 250.584 516.123 250.197 516.776 249.904C517.429 249.597 518.243 249.444 519.216 249.444C520.216 249.444 521.083 249.604 521.816 249.924C522.563 250.231 523.149 250.691 523.576 251.304L521.936 252.904C521.643 252.437 521.256 252.084 520.776 251.844C520.309 251.591 519.816 251.464 519.296 251.464C518.923 251.464 518.603 251.504 518.336 251.584C518.069 251.664 517.869 251.777 517.736 251.924C517.603 252.057 517.536 252.231 517.536 252.444C517.536 252.657 517.629 252.844 517.816 253.004C518.003 253.151 518.343 253.277 518.836 253.384L520.876 253.804C521.863 254.004 522.569 254.344 522.996 254.824C523.423 255.291 523.636 255.857 523.636 256.524C523.636 257.164 523.463 257.737 523.116 258.244C522.783 258.737 522.283 259.131 521.616 259.424C520.963 259.704 520.156 259.844 519.196 259.844ZM530.622 259.844C529.569 259.844 528.649 259.637 527.862 259.224C527.089 258.811 526.489 258.217 526.062 257.444C525.635 256.671 525.422 255.737 525.422 254.644C525.422 253.551 525.635 252.617 526.062 251.844C526.489 251.071 527.082 250.477 527.842 250.064C528.615 249.651 529.495 249.444 530.482 249.444C531.495 249.444 532.355 249.651 533.062 250.064C533.769 250.464 534.309 251.017 534.682 251.724C535.055 252.417 535.242 253.211 535.242 254.104C535.242 254.371 535.235 254.624 535.222 254.864C535.209 255.104 535.189 255.317 535.162 255.504H527.182V253.604H533.962L532.642 254.084C532.642 253.244 532.449 252.597 532.062 252.144C531.689 251.691 531.155 251.464 530.462 251.464C529.955 251.464 529.515 251.584 529.142 251.824C528.782 252.064 528.509 252.424 528.322 252.904C528.135 253.371 528.042 253.964 528.042 254.684C528.042 255.391 528.142 255.977 528.342 256.444C528.555 256.897 528.849 257.237 529.222 257.464C529.609 257.691 530.069 257.804 530.602 257.804C531.189 257.804 531.662 257.691 532.022 257.464C532.382 257.237 532.662 256.924 532.862 256.524L535.042 257.364C534.829 257.884 534.502 258.331 534.062 258.704C533.635 259.077 533.122 259.364 532.522 259.564C531.935 259.751 531.302 259.844 530.622 259.844ZM439.075 271.244C440.382 271.244 441.509 271.517 442.455 272.064C443.402 272.611 444.129 273.391 444.635 274.404C445.155 275.417 445.415 276.631 445.415 278.044C445.415 279.457 445.155 280.671 444.635 281.684C444.129 282.697 443.402 283.477 442.455 284.024C441.509 284.571 440.382 284.844 439.075 284.844C437.769 284.844 436.635 284.571 435.675 284.024C434.729 283.477 433.995 282.697 433.475 281.684C432.969 280.671 432.715 279.457 432.715 278.044C432.715 276.631 432.969 275.417 433.475 274.404C433.995 273.391 434.729 272.611 435.675 272.064C436.635 271.517 437.769 271.244 439.075 271.244ZM439.075 273.504C438.329 273.504 437.695 273.677 437.175 274.024C436.655 274.371 436.255 274.884 435.975 275.564C435.709 276.231 435.575 277.057 435.575 278.044C435.575 279.017 435.709 279.844 435.975 280.524C436.255 281.204 436.655 281.717 437.175 282.064C437.695 282.411 438.329 282.584 439.075 282.584C439.809 282.584 440.435 282.411 440.955 282.064C441.475 281.717 441.869 281.204 442.135 280.524C442.415 279.844 442.555 279.017 442.555 278.044C442.555 277.057 442.415 276.231 442.135 275.564C441.869 274.884 441.475 274.371 440.955 274.024C440.435 273.677 439.809 273.504 439.075 273.504ZM451.659 271.584V281.384C451.659 281.864 451.779 282.217 452.019 282.444C452.273 282.657 452.613 282.764 453.039 282.764C453.373 282.764 453.666 282.717 453.919 282.624C454.173 282.517 454.399 282.377 454.599 282.204L455.039 284.024C454.719 284.277 454.319 284.477 453.839 284.624C453.359 284.771 452.853 284.844 452.319 284.844C451.653 284.844 451.059 284.744 450.539 284.544C450.033 284.344 449.633 284.024 449.339 283.584C449.059 283.144 448.919 282.557 448.919 281.824V272.344L451.659 271.584ZM454.859 274.644V276.684H447.079V274.644H454.859ZM457.069 284.644V270.264H459.809V276.344C460.129 275.704 460.569 275.231 461.129 274.924C461.689 274.604 462.323 274.444 463.029 274.444C463.723 274.444 464.336 274.577 464.869 274.844C465.416 275.111 465.843 275.517 466.149 276.064C466.469 276.597 466.629 277.271 466.629 278.084V284.644H463.889V278.884C463.889 278.017 463.723 277.424 463.389 277.104C463.056 276.771 462.629 276.604 462.109 276.604C461.723 276.604 461.349 276.697 460.989 276.884C460.643 277.057 460.356 277.351 460.129 277.764C459.916 278.164 459.809 278.697 459.809 279.364V284.644H457.069ZM474.292 284.844C473.239 284.844 472.319 284.637 471.532 284.224C470.759 283.811 470.159 283.217 469.732 282.444C469.306 281.671 469.092 280.737 469.092 279.644C469.092 278.551 469.306 277.617 469.732 276.844C470.159 276.071 470.752 275.477 471.512 275.064C472.286 274.651 473.166 274.444 474.152 274.444C475.166 274.444 476.026 274.651 476.732 275.064C477.439 275.464 477.979 276.017 478.352 276.724C478.726 277.417 478.912 278.211 478.912 279.104C478.912 279.371 478.906 279.624 478.892 279.864C478.879 280.104 478.859 280.317 478.832 280.504H470.852V278.604H477.632L476.312 279.084C476.312 278.244 476.119 277.597 475.732 277.144C475.359 276.691 474.826 276.464 474.132 276.464C473.626 276.464 473.186 276.584 472.812 276.824C472.452 277.064 472.179 277.424 471.992 277.904C471.806 278.371 471.712 278.964 471.712 279.684C471.712 280.391 471.812 280.977 472.012 281.444C472.226 281.897 472.519 282.237 472.892 282.464C473.279 282.691 473.739 282.804 474.272 282.804C474.859 282.804 475.332 282.691 475.692 282.464C476.052 282.237 476.332 281.924 476.532 281.524L478.712 282.364C478.499 282.884 478.172 283.331 477.732 283.704C477.306 284.077 476.792 284.364 476.192 284.564C475.606 284.751 474.972 284.844 474.292 284.844ZM481.434 284.644V274.644H483.814L483.994 276.604C484.261 275.911 484.648 275.377 485.154 275.004C485.674 274.631 486.321 274.444 487.094 274.444C487.321 274.444 487.528 274.464 487.714 274.504C487.901 274.544 488.054 274.597 488.174 274.664L487.854 276.964C487.721 276.911 487.554 276.871 487.354 276.844C487.168 276.817 486.921 276.804 486.614 276.804C486.214 276.804 485.828 276.904 485.454 277.104C485.081 277.291 484.774 277.584 484.534 277.984C484.294 278.371 484.174 278.864 484.174 279.464V284.644H481.434ZM506.324 271.444V273.664H501.904V284.644H499.144V273.664H494.704V271.444H506.324ZM523.139 271.444V284.644H520.639V277.764L520.779 273.904H520.739L517.079 284.644H514.819L511.179 273.904H511.139L511.279 277.764V284.644H508.779V271.444H512.779L515.159 278.644L515.999 281.624H516.039L516.899 278.664L519.259 271.444H523.139ZM531.592 271.244C532.792 271.244 533.845 271.451 534.752 271.864C535.659 272.277 536.432 272.891 537.072 273.704L535.532 275.484C534.985 274.791 534.385 274.284 533.732 273.964C533.092 273.631 532.345 273.464 531.492 273.464C530.932 273.464 530.465 273.537 530.092 273.684C529.732 273.831 529.465 274.024 529.292 274.264C529.132 274.504 529.052 274.771 529.052 275.064C529.052 275.424 529.192 275.731 529.472 275.984C529.752 276.224 530.232 276.424 530.912 276.584L533.372 277.144C534.679 277.437 535.612 277.877 536.172 278.464C536.745 279.037 537.032 279.784 537.032 280.704C537.032 281.571 536.805 282.317 536.352 282.944C535.899 283.557 535.265 284.031 534.452 284.364C533.639 284.684 532.705 284.844 531.652 284.844C530.732 284.844 529.885 284.737 529.112 284.524C528.352 284.297 527.672 283.991 527.072 283.604C526.472 283.217 525.972 282.771 525.572 282.264L527.132 280.404C527.439 280.831 527.819 281.211 528.272 281.544C528.725 281.877 529.239 282.144 529.812 282.344C530.399 282.531 531.012 282.624 531.652 282.624C532.199 282.624 532.659 282.564 533.032 282.444C533.419 282.311 533.705 282.131 533.892 281.904C534.092 281.664 534.192 281.377 534.192 281.044C534.192 280.697 534.072 280.404 533.832 280.164C533.605 279.911 533.179 279.717 532.552 279.584L529.872 278.984C529.099 278.797 528.432 278.557 527.872 278.264C527.325 277.957 526.905 277.571 526.612 277.104C526.332 276.624 526.192 276.057 526.192 275.404C526.192 274.617 526.405 273.911 526.832 273.284C527.259 272.657 527.872 272.164 528.672 271.804C529.485 271.431 530.459 271.244 531.592 271.244Z" fill="black"/>
<g clip-path="url(#clip0_39_453)">
<path d="M464.26 203.606C464.26 202.344 464.727 201.174 465.613 200.285C466.5 199.397 467.667 198.929 468.927 198.929C470.933 198.929 472.473 200.052 473.173 201.689L471.447 202.437C471.027 201.408 470.047 200.753 468.927 200.753C467.34 200.753 466.127 202.016 466.127 203.606C466.127 204.355 466.407 205.103 466.967 205.665C467.48 206.226 468.227 206.506 468.973 206.506C470.187 206.506 471.073 205.758 471.493 204.729L473.22 205.477C472.52 207.115 471.027 208.284 468.927 208.284C467.667 208.284 466.5 207.816 465.613 206.927C464.773 206.039 464.26 204.869 464.26 203.606ZM478.353 198.929C476.02 198.929 473.873 200.706 473.873 203.606C473.873 206.46 476.067 208.284 478.353 208.284C479.52 208.284 480.593 207.769 481.34 206.881V208.097H483.253V199.116H481.34V200.285C480.64 199.444 479.52 198.929 478.353 198.929ZM478.587 200.706C480.22 200.706 481.433 202.016 481.433 203.606C481.433 205.197 480.22 206.506 478.633 206.506C477.047 206.506 475.787 205.197 475.787 203.606C475.787 202.016 477 200.706 478.587 200.706ZM484.887 199.116H486.8V200.519C487.267 199.584 488.153 199.116 489.413 199.116H490.253V200.94H489.133C487.5 200.94 486.847 201.782 486.847 203.653V208.097H484.887V199.116ZM495.247 198.929C492.913 198.929 490.767 200.706 490.767 203.606C490.767 206.46 492.96 208.284 495.2 208.284C496.367 208.284 497.487 207.769 498.187 206.834V207.956C498.187 209.5 497.207 210.716 495.573 210.716C494.22 210.716 493.333 210.108 492.913 209.079L491.14 209.921C491.84 211.371 493.333 212.447 495.573 212.447C498.42 212.447 500.1 210.529 500.1 207.863V199.116H498.187V200.332C497.487 199.444 496.413 198.929 495.247 198.929ZM495.48 200.706C497.113 200.706 498.327 202.016 498.327 203.606C498.327 205.197 497.113 206.506 495.48 206.506C493.893 206.506 492.633 205.197 492.633 203.606C492.633 202.016 493.893 200.706 495.48 200.706ZM506.073 198.976C503.507 198.976 501.407 201.034 501.407 203.606C501.407 204.823 501.873 206.039 502.76 206.927C503.647 207.816 504.813 208.284 506.073 208.284C508.64 208.284 510.74 206.226 510.74 203.653C510.693 201.081 508.64 198.976 506.073 198.976ZM506.027 200.753C507.567 200.753 508.78 202.063 508.78 203.606C508.78 205.15 507.567 206.46 506.027 206.46C504.487 206.46 503.273 205.15 503.273 203.606C503.273 202.063 504.487 200.753 506.027 200.753ZM510.927 199.116H512.887L514.94 205.477L517.273 199.116H519.187L521.473 205.477L523.573 199.116H525.533L522.407 208.097H520.54L518.16 201.689L515.78 208.097H513.913L510.927 199.116ZM528.613 195.935C528.427 195.468 527.96 195.14 527.4 195.14C527.073 195.14 526.7 195.281 526.467 195.515C526.233 195.748 526.093 196.076 526.093 196.45C526.093 196.965 526.42 197.432 526.887 197.666C527.353 197.853 527.913 197.76 528.287 197.385C528.707 197.011 528.8 196.45 528.613 195.935ZM528.38 199.116H526.467V208.097H528.38V199.116ZM529.313 206.226L531.04 205.29C531.553 206.132 532.347 206.6 533.42 206.6C534.54 206.6 535.1 206.039 535.1 205.431C535.1 204.682 534.027 204.542 532.86 204.261C531.32 203.934 529.733 203.466 529.733 201.595C529.733 200.192 531.087 198.882 533.233 198.882C534.96 198.882 536.127 199.537 536.873 200.613L535.24 201.502C534.82 200.847 534.167 200.473 533.187 200.473C532.113 200.473 531.647 200.94 531.647 201.548C531.647 202.203 532.393 202.344 533.793 202.624C535.287 202.952 537.013 203.466 537.013 205.337C537.013 206.694 535.8 208.237 533.327 208.19C531.367 208.284 530.06 207.582 529.313 206.226ZM542.333 198.929C539.72 198.929 537.667 200.987 537.667 203.606C537.667 206.226 539.58 208.237 542.38 208.237C544.387 208.237 545.787 207.255 546.58 205.805L544.993 204.916C544.527 205.945 543.5 206.553 542.38 206.553C540.84 206.553 539.767 205.665 539.487 204.261H546.907V203.513C546.953 200.847 544.993 198.929 542.333 198.929ZM544.993 202.624H539.627C540 201.408 541.073 200.613 542.333 200.613C543.733 200.613 544.713 201.361 544.993 202.624ZM441.067 197.619H433.227V195H441.067V197.619ZM428 205.477H435.84V208.097H428V205.477ZM433.227 223.813H441.067V221.194H433.227V223.813ZM443.68 197.619V195H456.747V197.619H443.68ZM443.68 202.858H456.747V200.239H443.68V202.858ZM456.747 208.097H443.68V205.477H456.747V208.097ZM441.067 210.716H428V213.335H441.067V210.716ZM456.7 218.574H443.633V215.955H456.7V218.574Z" fill="#183AD3"/>
</g>
<g filter="url(#filter2_d_39_453)">
<rect x="104" y="350" width="160" height="164" rx="15" fill="white"/>
</g>
<path d="M166.419 395.235C159.571 395.235 154.001 400.806 154.001 407.654C154.001 414.26 159.185 419.678 165.699 420.052C165.812 421.27 165.727 424.585 162.551 429.195C162.311 429.543 162.354 430.012 162.653 430.311C163.952 431.61 164.756 432.429 165.318 433.001C166.054 433.75 166.389 434.092 166.881 434.538C167.047 434.689 167.257 434.765 167.469 434.765C167.674 434.765 167.878 434.693 168.043 434.551C173.577 429.735 179.725 419.784 178.836 407.59C178.315 400.432 173.093 395.235 166.419 395.235ZM167.477 432.695C167.239 432.46 166.967 432.183 166.566 431.775C166.079 431.279 165.411 430.598 164.398 429.582C168.252 423.642 167.524 419.412 167.205 418.805C167.054 418.517 166.744 418.323 166.419 418.323C160.537 418.323 155.751 413.537 155.751 407.654C155.751 401.771 160.537 396.985 166.419 396.985C172.15 396.985 176.637 401.499 177.091 407.717C178.091 421.432 169.94 430.336 167.477 432.695Z" fill="#183AD3"/>
<path d="M209.913 407.59C209.39 400.432 204.167 395.235 197.495 395.235C190.647 395.235 185.076 400.806 185.076 407.654C185.076 414.26 190.261 419.678 196.776 420.052C196.889 421.269 196.803 424.582 193.626 429.195C193.386 429.543 193.43 430.012 193.728 430.311C195.022 431.605 195.824 432.422 196.386 432.994C197.125 433.747 197.463 434.091 197.957 434.539C198.123 434.689 198.334 434.765 198.545 434.765C198.75 434.765 198.954 434.693 199.119 434.55C204.653 429.734 210.802 419.783 209.913 407.59ZM198.553 432.695C198.313 432.458 198.039 432.179 197.635 431.767C197.148 431.272 196.482 430.593 195.473 429.582C199.327 423.641 198.6 419.412 198.282 418.805C198.131 418.518 197.82 418.323 197.495 418.323C191.612 418.323 186.826 413.537 186.826 407.654C186.826 401.771 191.612 396.985 197.495 396.985C203.225 396.985 207.713 401.499 208.168 407.718C209.167 421.431 201.016 430.336 198.553 432.695Z" fill="#183AD3"/>
<path d="M155.351 474.769C154.551 474.769 153.824 474.629 153.171 474.349C152.531 474.082 152.024 473.655 151.651 473.069C151.277 472.482 151.091 471.735 151.091 470.829C151.091 470.615 151.111 470.389 151.151 470.149C151.204 469.909 151.284 469.675 151.391 469.449L153.191 469.169C153.097 469.409 153.024 469.629 152.971 469.829C152.931 470.015 152.911 470.189 152.911 470.349C152.911 470.962 153.024 471.429 153.251 471.749C153.477 472.069 153.777 472.289 154.151 472.409C154.524 472.529 154.937 472.589 155.391 472.589C155.937 472.589 156.404 472.522 156.791 472.389C157.191 472.269 157.524 472.095 157.791 471.869L158.291 473.929C157.957 474.195 157.511 474.402 156.951 474.549C156.404 474.695 155.871 474.769 155.351 474.769ZM152.071 457.369C153.377 457.369 154.504 457.642 155.451 458.189C156.397 458.735 157.124 459.515 157.631 460.529C158.151 461.542 158.411 462.755 158.411 464.169C158.411 465.582 158.151 466.795 157.631 467.809C157.124 468.822 156.397 469.602 155.451 470.149C154.504 470.695 153.377 470.969 152.071 470.969C150.764 470.969 149.631 470.695 148.671 470.149C147.724 469.602 146.991 468.822 146.471 467.809C145.964 466.795 145.711 465.582 145.711 464.169C145.711 462.755 145.964 461.542 146.471 460.529C146.991 459.515 147.724 458.735 148.671 458.189C149.631 457.642 150.764 457.369 152.071 457.369ZM152.071 459.629C151.324 459.629 150.691 459.802 150.171 460.149C149.651 460.495 149.251 461.009 148.971 461.689C148.704 462.355 148.571 463.182 148.571 464.169C148.571 465.142 148.704 465.969 148.971 466.649C149.251 467.329 149.651 467.842 150.171 468.189C150.691 468.535 151.324 468.709 152.071 468.709C152.804 468.709 153.431 468.535 153.951 468.189C154.471 467.842 154.864 467.329 155.131 466.649C155.411 465.969 155.551 465.142 155.551 464.169C155.551 463.182 155.411 462.355 155.131 461.689C154.864 461.009 154.471 460.495 153.951 460.149C153.431 459.802 152.804 459.629 152.071 459.629ZM164.595 470.969C163.928 470.969 163.328 470.849 162.795 470.609C162.262 470.369 161.835 469.989 161.515 469.469C161.208 468.935 161.055 468.249 161.055 467.409V460.769H163.795V466.749C163.795 467.522 163.955 468.062 164.275 468.369C164.595 468.662 165.055 468.809 165.655 468.809C165.935 468.809 166.208 468.762 166.475 468.669C166.742 468.562 166.975 468.402 167.175 468.189C167.388 467.975 167.555 467.702 167.675 467.369C167.795 467.022 167.855 466.615 167.855 466.149V460.769H170.595V470.769H168.155L168.055 469.029C167.722 469.695 167.262 470.189 166.675 470.509C166.102 470.815 165.408 470.969 164.595 470.969ZM178.238 460.569C179.252 460.569 180.138 460.775 180.898 461.189C181.672 461.602 182.272 462.195 182.698 462.969C183.138 463.742 183.358 464.675 183.358 465.769C183.358 466.849 183.138 467.782 182.698 468.569C182.272 469.342 181.672 469.935 180.898 470.349C180.138 470.762 179.252 470.969 178.238 470.969C177.238 470.969 176.352 470.762 175.578 470.349C174.805 469.935 174.198 469.342 173.758 468.569C173.332 467.782 173.118 466.849 173.118 465.769C173.118 464.675 173.332 463.742 173.758 462.969C174.198 462.195 174.805 461.602 175.578 461.189C176.352 460.775 177.238 460.569 178.238 460.569ZM178.238 462.609C177.732 462.609 177.298 462.729 176.938 462.969C176.592 463.195 176.325 463.542 176.138 464.009C175.952 464.475 175.858 465.062 175.858 465.769C175.858 466.475 175.952 467.062 176.138 467.529C176.325 467.995 176.592 468.349 176.938 468.589C177.298 468.815 177.732 468.929 178.238 468.929C178.732 468.929 179.152 468.815 179.498 468.589C179.858 468.349 180.132 467.995 180.318 467.529C180.505 467.062 180.598 466.475 180.598 465.769C180.598 465.062 180.505 464.475 180.318 464.009C180.132 463.542 179.858 463.195 179.498 462.969C179.152 462.729 178.732 462.609 178.238 462.609ZM189.293 457.709V467.509C189.293 467.989 189.413 468.342 189.653 468.569C189.907 468.782 190.247 468.889 190.673 468.889C191.007 468.889 191.3 468.842 191.553 468.749C191.807 468.642 192.033 468.502 192.233 468.329L192.673 470.149C192.353 470.402 191.953 470.602 191.473 470.749C190.993 470.895 190.487 470.969 189.953 470.969C189.287 470.969 188.693 470.869 188.173 470.669C187.667 470.469 187.267 470.149 186.973 469.709C186.693 469.269 186.553 468.682 186.553 467.949V458.469L189.293 457.709ZM192.493 460.769V462.809H184.713V460.769H192.493ZM195.927 459.329C195.354 459.329 194.927 459.209 194.647 458.969C194.367 458.715 194.227 458.349 194.227 457.869C194.227 457.375 194.367 457.009 194.647 456.769C194.927 456.515 195.354 456.389 195.927 456.389C196.5 456.389 196.927 456.515 197.207 456.769C197.487 457.009 197.627 457.375 197.627 457.869C197.627 458.349 197.487 458.715 197.207 458.969C196.927 459.209 196.5 459.329 195.927 459.329ZM197.287 460.769V470.769H194.547V460.769H197.287ZM200.392 470.769V460.769H202.852L203.012 463.769L202.672 463.449C202.832 462.795 203.085 462.255 203.432 461.829C203.778 461.402 204.198 461.089 204.692 460.889C205.198 460.675 205.752 460.569 206.352 460.569C207.045 460.569 207.658 460.702 208.192 460.969C208.738 461.235 209.165 461.642 209.472 462.189C209.792 462.722 209.952 463.395 209.952 464.209V470.769H207.212V464.989C207.212 464.135 207.045 463.549 206.712 463.229C206.378 462.895 205.945 462.729 205.412 462.729C205.038 462.729 204.672 462.822 204.312 463.009C203.965 463.182 203.678 463.469 203.452 463.869C203.238 464.269 203.132 464.802 203.132 465.469V470.769H200.392ZM222.194 458.389L222.514 460.349C222.461 460.349 222.401 460.349 222.334 460.349C222.281 460.335 222.221 460.329 222.154 460.329C221.541 460.329 221.081 460.469 220.774 460.749C220.468 461.015 220.314 461.389 220.314 461.869L219.194 461.409C219.194 460.875 219.301 460.382 219.514 459.929C219.728 459.462 220.041 459.089 220.454 458.809C220.881 458.529 221.388 458.389 221.974 458.389C222.001 458.389 222.034 458.389 222.074 458.389C222.114 458.389 222.154 458.389 222.194 458.389ZM218.914 468.889C219.994 468.889 220.828 469.122 221.414 469.589C222.001 470.055 222.294 470.709 222.294 471.549C222.294 472.309 222.074 472.949 221.634 473.469C221.194 474.002 220.574 474.402 219.774 474.669C218.988 474.935 218.074 475.069 217.034 475.069C215.314 475.069 214.054 474.829 213.254 474.349C212.468 473.869 212.074 473.242 212.074 472.469C212.074 471.922 212.281 471.462 212.694 471.089C213.121 470.715 213.821 470.509 214.794 470.469L214.694 470.789C214.001 470.669 213.468 470.442 213.094 470.109C212.734 469.762 212.554 469.289 212.554 468.689C212.554 468.075 212.788 467.575 213.254 467.189C213.734 466.789 214.381 466.555 215.194 466.489L216.394 467.049H216.114C215.541 467.089 215.134 467.209 214.894 467.409C214.668 467.595 214.554 467.809 214.554 468.049C214.554 468.329 214.661 468.542 214.874 468.689C215.101 468.822 215.421 468.889 215.834 468.889H218.914ZM217.054 473.189C217.748 473.189 218.314 473.129 218.754 473.009C219.208 472.889 219.541 472.735 219.754 472.549C219.981 472.362 220.094 472.155 220.094 471.929C220.094 471.675 219.994 471.469 219.794 471.309C219.594 471.162 219.234 471.089 218.714 471.089H215.334C215.014 471.089 214.748 471.169 214.534 471.329C214.334 471.489 214.234 471.709 214.234 471.989C214.234 472.362 214.481 472.655 214.974 472.869C215.481 473.082 216.174 473.189 217.054 473.189ZM217.074 460.569C218.008 460.569 218.814 460.709 219.494 460.989C220.188 461.255 220.714 461.642 221.074 462.149C221.448 462.655 221.634 463.262 221.634 463.969C221.634 464.662 221.448 465.262 221.074 465.769C220.714 466.275 220.188 466.669 219.494 466.949C218.814 467.215 218.008 467.349 217.074 467.349C215.594 467.349 214.461 467.049 213.674 466.449C212.901 465.835 212.514 465.009 212.514 463.969C212.514 463.262 212.694 462.655 213.054 462.149C213.428 461.642 213.954 461.255 214.634 460.989C215.314 460.709 216.128 460.569 217.074 460.569ZM217.074 462.289C216.541 462.289 216.101 462.435 215.754 462.729C215.408 463.022 215.234 463.429 215.234 463.949C215.234 464.469 215.408 464.882 215.754 465.189C216.101 465.482 216.541 465.629 217.074 465.629C217.608 465.629 218.041 465.482 218.374 465.189C218.721 464.882 218.894 464.469 218.894 463.949C218.894 463.429 218.721 463.022 218.374 462.729C218.041 462.435 217.608 462.289 217.074 462.289Z" fill="black"/>
<path d="M286.81 190.79C286.81 190.79 285.84 211.94 261.73 225.85L253.73 230.65L245.09 235.64C245.09 235.64 206.35 255.45 229.82 286.4C229.82 286.4 230.8 265.25 254.9 251.34L262.9 246.54L271.54 241.55C271.54 241.55 310.28 221.74 286.81 190.79Z" fill="white"/>
<g opacity="0.4">
<mask id="mask0_39_453" style="mask-type:luminance" maskUnits="userSpaceOnUse" x="277" y="233" width="73" height="96">
<path d="M349.58 233.35H277.49V328.96H349.58V233.35Z" fill="white"/>
</mask>
<g mask="url(#mask0_39_453)">
<path d="M342.03 233.35C342.03 233.35 341.05 254.5 316.95 268.41L308.95 273.21L300.31 278.2C300.31 278.2 261.57 298.01 285.04 328.96C285.04 328.96 286.02 307.81 310.12 293.9L318.12 289.1L326.76 284.11C326.76 284.11 365.51 264.3 342.03 233.35Z" fill="white"/>
</g>
</g>
<g opacity="0.7">
<mask id="mask1_39_453" style="mask-type:luminance" maskUnits="userSpaceOnUse" x="249" y="212" width="73" height="96">
<path d="M321.97 212.07H249.88V307.68H321.97V212.07Z" fill="white"/>
</mask>
<g mask="url(#mask1_39_453)">
<path d="M314.42 212.07C314.42 212.07 313.45 233.22 289.34 247.13L281.34 251.93L272.7 256.92C272.7 256.92 233.96 276.73 257.43 307.68C257.43 307.68 258.41 286.54 282.51 272.62L290.51 267.82L299.15 262.83C299.15 262.83 337.89 243.02 314.42 212.07Z" fill="white"/>
</g>
</g>
<path d="M445 146.849L420.5 137.733L435.884 134.884L439.872 119.5L445 146.849Z" fill="white"/>
<path d="M275.488 456.29L299.752 446.564L290.281 459.016L297.673 473.085L275.488 456.29Z" fill="white"/>
<path d="M91.9773 210.226L98.4882 235.543L87.363 224.543L72.4576 230.056L91.9773 210.226Z" fill="white"/>
<defs>
<filter id="filter0_d_39_453" x="0" y="0" width="240" height="244" filterUnits="userSpaceOnUse" color-interpolation-filters="sRGB">
<feFlood flood-opacity="0" result="BackgroundImageFix"/>
<feColorMatrix in="SourceAlpha" type="matrix" values="0 0 0 0 0 0 0 0 0 0 0 0 0 0 0 0 0 0 127 0" result="hardAlpha"/>
<feOffset dy="4"/>
<feGaussianBlur stdDeviation="20"/>
<feComposite in2="hardAlpha" operator="out"/>
<feColorMatrix type="matrix" values="0 0 0 0 0 0 0 0 0 0 0 0 0 0 0 0 0 0 0.18 0"/>
<feBlend mode="normal" in2="BackgroundImageFix" result="effect1_dropShadow_39_453"/>
<feBlend mode="normal" in="SourceGraphic" in2="effect1_dropShadow_39_453" result="shape"/>
</filter>
<filter id="filter1_d_39_453" x="367" y="122" width="240" height="244" filterUnits="userSpaceOnUse" color-interpolation-filters="sRGB">
<feFlood flood-opacity="0" result="BackgroundImageFix"/>
<feColorMatrix in="SourceAlpha" type="matrix" values="0 0 0 0 0 0 0 0 0 0 0 0 0 0 0 0 0 0 127 0" result="hardAlpha"/>
<feOffset dy="4"/>
<feGaussianBlur stdDeviation="20"/>
<feComposite in2="hardAlpha" operator="out"/>
<feColorMatrix type="matrix" values="0 0 0 0 0 0 0 0 0 0 0 0 0 0 0 0 0 0 0.18 0"/>
<feBlend mode="normal" in2="BackgroundImageFix" result="effect1_dropShadow_39_453"/>
<feBlend mode="normal" in="SourceGraphic" in2="effect1_dropShadow_39_453" result="shape"/>
</filter>
<filter id="filter2_d_39_453" x="64" y="314" width="240" height="244" filterUnits="userSpaceOnUse" color-interpolation-filters="sRGB">
<feFlood flood-opacity="0" result="BackgroundImageFix"/>
<feColorMatrix in="SourceAlpha" type="matrix" values="0 0 0 0 0 0 0 0 0 0 0 0 0 0 0 0 0 0 127 0" result="hardAlpha"/>
<feOffset dy="4"/>
<feGaussianBlur stdDeviation="20"/>
<feComposite in2="hardAlpha" operator="out"/>
<feColorMatrix type="matrix" values="0 0 0 0 0 0 0 0 0 0 0 0 0 0 0 0 0 0 0.18 0"/>
<feBlend mode="normal" in2="BackgroundImageFix" result="effect1_dropShadow_39_453"/>
<feBlend mode="normal" in="SourceGraphic" in2="effect1_dropShadow_39_453" result="shape"/>
</filter>
<clipPath id="clip0_39_453">
<rect width="119" height="29" fill="white" transform="translate(428 195)"/>
</clipPath>
</defs>
</svg>
