<svg width="275" height="183" viewBox="0 0 275 183" fill="none" xmlns="http://www.w3.org/2000/svg">
<path d="M139.698 180.251C75.8323 202.102 -54.5115 77.3216 25.3723 11.8755C48.7675 -7.28739 90.7562 1.90979 119.314 4.3527C173.542 8.99253 271.856 14.9967 274.935 77.8613C276.478 109.477 245.47 123.695 215.28 133.587C201.258 138.183 187.134 143.719 176.909 153.385C165.369 164.296 156.49 174.501 139.701 180.243C122.143 186.258 152.175 175.984 139.698 180.251Z" fill="#1C3FD6"/>
<g opacity="0.99">
<path d="M93.813 16.8075C94.5612 16.8075 95.2016 16.3496 95.4707 15.6978C94.4477 15.8068 93.4278 15.9382 92.4194 16.097C92.7479 16.5186 93.239 16.8075 93.813 16.8075Z" fill="white"/>
<path d="M102.247 16.8078C103.109 16.8078 103.797 16.1885 103.969 15.3791C103.378 15.3625 102.789 15.3345 102.195 15.3345C101.636 15.3345 101.081 15.3619 100.526 15.3759C100.699 16.1879 101.385 16.8078 102.247 16.8078Z" fill="white"/>
<path d="M70.2974 24.0591C69.4414 24.5668 68.6001 25.0936 67.771 25.6389C67.9993 25.7429 68.2462 25.808 68.5102 25.808C69.4867 25.8073 70.2718 25.0279 70.2974 24.0591Z" fill="white"/>
<path d="M76.9458 25.8067C77.9374 25.8067 78.7413 25.0028 78.7413 24.0112C78.7413 23.0197 77.9374 22.2158 76.9458 22.2158C75.9542 22.2158 75.1504 23.0197 75.1504 24.0112C75.1504 25.0028 75.9542 25.8067 76.9458 25.8067Z" fill="white"/>
<path d="M85.3799 25.8067C86.3715 25.8067 87.1753 25.0028 87.1753 24.0112C87.1753 23.0197 86.3715 22.2158 85.3799 22.2158C84.3883 22.2158 83.5845 23.0197 83.5845 24.0112C83.5845 25.0028 84.3883 25.8067 85.3799 25.8067Z" fill="white"/>
<path d="M93.813 25.8067C94.8046 25.8067 95.6084 25.0028 95.6084 24.0112C95.6084 23.0197 94.8046 22.2158 93.813 22.2158C92.8214 22.2158 92.0176 23.0197 92.0176 24.0112C92.0176 25.0028 92.8214 25.8067 93.813 25.8067Z" fill="white"/>
<path d="M102.247 25.8067C103.239 25.8067 104.043 25.0028 104.043 24.0112C104.043 23.0197 103.239 22.2158 102.247 22.2158C101.256 22.2158 100.452 23.0197 100.452 24.0112C100.452 25.0028 101.256 25.8067 102.247 25.8067Z" fill="white"/>
<path d="M60.0766 34.8073C61.069 34.8073 61.872 34.0037 61.872 33.0125C61.872 32.1445 61.245 31.4544 60.4267 31.2866C59.713 31.9257 59.0152 32.582 58.3296 33.253C58.4527 34.1249 59.1696 34.8073 60.0766 34.8073Z" fill="white"/>
<path d="M68.5096 31.2158C67.5198 31.2158 66.7148 32.0195 66.7148 33.0125C66.7148 34.0043 67.5198 34.8073 68.5096 34.8073C69.5027 34.8073 70.3083 34.0037 70.3083 33.0125C70.3083 32.0195 69.5027 31.2158 68.5096 31.2158Z" fill="white"/>
<path d="M76.946 34.807C77.9379 34.807 78.742 34.0029 78.742 33.0109C78.742 32.019 77.9379 31.2148 76.946 31.2148C75.954 31.2148 75.1499 32.019 75.1499 33.0109C75.1499 34.0029 75.954 34.807 76.946 34.807Z" fill="white"/>
<path d="M85.3796 34.807C86.3715 34.807 87.1756 34.0029 87.1756 33.0109C87.1756 32.019 86.3715 31.2148 85.3796 31.2148C84.3876 31.2148 83.5835 32.019 83.5835 33.0109C83.5835 34.0029 84.3876 34.807 85.3796 34.807Z" fill="white"/>
<path d="M93.8127 34.807C94.8046 34.807 95.6088 34.0029 95.6088 33.0109C95.6088 32.019 94.8046 31.2148 93.8127 31.2148C92.8207 31.2148 92.0166 32.019 92.0166 33.0109C92.0166 34.0029 92.8207 34.807 93.8127 34.807Z" fill="white"/>
<path d="M102.247 34.807C103.239 34.807 104.043 34.0029 104.043 33.0109C104.043 32.019 103.239 31.2148 102.247 31.2148C101.255 31.2148 100.451 32.019 100.451 33.0109C100.451 34.0029 101.255 34.807 102.247 34.807Z" fill="white"/>
<path d="M51.6428 43.8067C52.6353 43.8067 53.4383 43.0024 53.4383 42.0113C53.4383 41.1879 52.8738 40.5233 52.118 40.3115C51.454 41.193 50.8073 42.0897 50.188 43.0069C50.5114 43.4782 51.028 43.8067 51.6428 43.8067Z" fill="white"/>
<path d="M60.0768 43.8075C61.0688 43.8075 61.8729 43.0033 61.8729 42.0114C61.8729 41.0195 61.0688 40.2153 60.0768 40.2153C59.0849 40.2153 58.2808 41.0195 58.2808 42.0114C58.2808 43.0033 59.0849 43.8075 60.0768 43.8075Z" fill="white"/>
<path d="M68.5096 40.2153C67.5198 40.2153 66.7148 41.0196 66.7148 42.0114C66.7148 43.0032 67.5198 43.8068 68.5096 43.8068C69.5027 43.8068 70.3083 43.0026 70.3083 42.0114C70.3083 41.0202 69.5027 40.2153 68.5096 40.2153Z" fill="white"/>
<path d="M76.946 43.8075C77.9379 43.8075 78.742 43.0033 78.742 42.0114C78.742 41.0195 77.9379 40.2153 76.946 40.2153C75.954 40.2153 75.1499 41.0195 75.1499 42.0114C75.1499 43.0033 75.954 43.8075 76.946 43.8075Z" fill="white"/>
<path d="M85.3796 43.8075C86.3715 43.8075 87.1756 43.0033 87.1756 42.0114C87.1756 41.0195 86.3715 40.2153 85.3796 40.2153C84.3876 40.2153 83.5835 41.0195 83.5835 42.0114C83.5835 43.0033 84.3876 43.8075 85.3796 43.8075Z" fill="white"/>
<path d="M93.8127 43.8075C94.8046 43.8075 95.6088 43.0033 95.6088 42.0114C95.6088 41.0195 94.8046 40.2153 93.8127 40.2153C92.8207 40.2153 92.0166 41.0195 92.0166 42.0114C92.0166 43.0033 92.8207 43.8075 93.8127 43.8075Z" fill="white"/>
<path d="M102.247 43.8075C103.239 43.8075 104.043 43.0033 104.043 42.0114C104.043 41.0195 103.239 40.2153 102.247 40.2153C101.255 40.2153 100.451 41.0195 100.451 42.0114C100.451 43.0033 101.255 43.8075 102.247 43.8075Z" fill="white"/>
<path d="M51.6427 52.807C52.6347 52.807 53.4388 52.0028 53.4388 51.0109C53.4388 50.019 52.6347 49.2148 51.6427 49.2148C50.6508 49.2148 49.8467 50.019 49.8467 51.0109C49.8467 52.0028 50.6508 52.807 51.6427 52.807Z" fill="white"/>
<path d="M60.0768 52.807C61.0688 52.807 61.8729 52.0028 61.8729 51.0109C61.8729 50.019 61.0688 49.2148 60.0768 49.2148C59.0849 49.2148 58.2808 50.019 58.2808 51.0109C58.2808 52.0028 59.0849 52.807 60.0768 52.807Z" fill="white"/>
<path d="M68.5096 49.2148C67.5198 49.2148 66.7148 50.0191 66.7148 51.0103C66.7148 52.0033 67.5198 52.8063 68.5096 52.8063C69.5027 52.8063 70.3083 52.0027 70.3083 51.0103C70.3083 50.0191 69.5027 49.2148 68.5096 49.2148Z" fill="white"/>
<path d="M76.946 52.807C77.9379 52.807 78.742 52.0028 78.742 51.0109C78.742 50.019 77.9379 49.2148 76.946 49.2148C75.954 49.2148 75.1499 50.019 75.1499 51.0109C75.1499 52.0028 75.954 52.807 76.946 52.807Z" fill="white"/>
<path d="M85.3796 52.807C86.3715 52.807 87.1756 52.0028 87.1756 51.0109C87.1756 50.019 86.3715 49.2148 85.3796 49.2148C84.3876 49.2148 83.5835 50.019 83.5835 51.0109C83.5835 52.0028 84.3876 52.807 85.3796 52.807Z" fill="white"/>
<path d="M93.8127 52.807C94.8046 52.807 95.6088 52.0028 95.6088 51.0109C95.6088 50.019 94.8046 49.2148 93.8127 49.2148C92.8207 49.2148 92.0166 50.019 92.0166 51.0109C92.0166 52.0028 92.8207 52.807 93.8127 52.807Z" fill="white"/>
<path d="M102.247 52.807C103.239 52.807 104.043 52.0028 104.043 51.0109C104.043 50.019 103.239 49.2148 102.247 49.2148C101.255 49.2148 100.451 50.019 100.451 51.0109C100.451 52.0028 101.255 52.807 102.247 52.807Z" fill="white"/>
<path d="M43.2093 61.8062C44.1992 61.8062 45.0053 61.0026 45.0053 60.0108C45.0053 59.019 44.1992 58.2153 43.2093 58.2153C43.0218 58.2153 42.8489 58.2683 42.6793 58.3218C42.3731 59.2454 42.0899 60.1766 41.8271 61.1167C42.1582 61.5268 42.6403 61.8062 43.2093 61.8062Z" fill="white"/>
<path d="M51.6431 61.8057C52.6347 61.8057 53.4385 61.0019 53.4385 60.0103C53.4385 59.0187 52.6347 58.2148 51.6431 58.2148C50.6515 58.2148 49.8477 59.0187 49.8477 60.0103C49.8477 61.0019 50.6515 61.8057 51.6431 61.8057Z" fill="white"/>
<path d="M60.0767 61.8057C61.0683 61.8057 61.8721 61.0019 61.8721 60.0103C61.8721 59.0187 61.0683 58.2148 60.0767 58.2148C59.0851 58.2148 58.2812 59.0187 58.2812 60.0103C58.2812 61.0019 59.0851 61.8057 60.0767 61.8057Z" fill="white"/>
<path d="M68.5096 58.2148C67.5198 58.2148 66.7148 59.0191 66.7148 60.0103C66.7148 61.0014 67.5198 61.8057 68.5096 61.8057C69.5027 61.8057 70.3083 61.0021 70.3083 60.0103C70.3083 59.0185 69.5027 58.2148 68.5096 58.2148Z" fill="white"/>
<path d="M76.9458 61.8057C77.9374 61.8057 78.7413 61.0019 78.7413 60.0103C78.7413 59.0187 77.9374 58.2148 76.9458 58.2148C75.9542 58.2148 75.1504 59.0187 75.1504 60.0103C75.1504 61.0019 75.9542 61.8057 76.9458 61.8057Z" fill="white"/>
<path d="M85.3799 61.8057C86.3715 61.8057 87.1753 61.0019 87.1753 60.0103C87.1753 59.0187 86.3715 58.2148 85.3799 58.2148C84.3883 58.2148 83.5845 59.0187 83.5845 60.0103C83.5845 61.0019 84.3883 61.8057 85.3799 61.8057Z" fill="white"/>
<path d="M93.813 61.8057C94.8046 61.8057 95.6084 61.0019 95.6084 60.0103C95.6084 59.0187 94.8046 58.2148 93.813 58.2148C92.8214 58.2148 92.0176 59.0187 92.0176 60.0103C92.0176 61.0019 92.8214 61.8057 93.813 61.8057Z" fill="white"/>
<path d="M102.247 61.8057C103.239 61.8057 104.043 61.0019 104.043 60.0103C104.043 59.0187 103.239 58.2148 102.247 58.2148C101.256 58.2148 100.452 59.0187 100.452 60.0103C100.452 61.0019 101.256 61.8057 102.247 61.8057Z" fill="white"/>
<path d="M43.2092 70.8065C44.2011 70.8065 45.0052 70.0024 45.0052 69.0104C45.0052 68.0185 44.2011 67.2144 43.2092 67.2144C42.2172 67.2144 41.4131 68.0185 41.4131 69.0104C41.4131 70.0024 42.2172 70.8065 43.2092 70.8065Z" fill="white"/>
<path d="M51.6427 70.8065C52.6347 70.8065 53.4388 70.0024 53.4388 69.0104C53.4388 68.0185 52.6347 67.2144 51.6427 67.2144C50.6508 67.2144 49.8467 68.0185 49.8467 69.0104C49.8467 70.0024 50.6508 70.8065 51.6427 70.8065Z" fill="white"/>
<path d="M60.0768 70.8065C61.0688 70.8065 61.8729 70.0024 61.8729 69.0104C61.8729 68.0185 61.0688 67.2144 60.0768 67.2144C59.0849 67.2144 58.2808 68.0185 58.2808 69.0104C58.2808 70.0024 59.0849 70.8065 60.0768 70.8065Z" fill="white"/>
<path d="M68.5096 67.2144C67.5198 67.2144 66.7148 68.0186 66.7148 69.0111C66.7148 70.0022 67.5198 70.8065 68.5096 70.8065C69.5027 70.8065 70.3083 70.0022 70.3083 69.0111C70.3083 68.018 69.5027 67.2144 68.5096 67.2144Z" fill="white"/>
<path d="M76.946 70.8065C77.9379 70.8065 78.742 70.0024 78.742 69.0104C78.742 68.0185 77.9379 67.2144 76.946 67.2144C75.954 67.2144 75.1499 68.0185 75.1499 69.0104C75.1499 70.0024 75.954 70.8065 76.946 70.8065Z" fill="white"/>
<path d="M85.3796 70.8065C86.3715 70.8065 87.1756 70.0024 87.1756 69.0104C87.1756 68.0185 86.3715 67.2144 85.3796 67.2144C84.3876 67.2144 83.5835 68.0185 83.5835 69.0104C83.5835 70.0024 84.3876 70.8065 85.3796 70.8065Z" fill="white"/>
<path d="M93.8127 70.8065C94.8046 70.8065 95.6088 70.0024 95.6088 69.0104C95.6088 68.0185 94.8046 67.2144 93.8127 67.2144C92.8207 67.2144 92.0166 68.0185 92.0166 69.0104C92.0166 70.0024 92.8207 70.8065 93.8127 70.8065Z" fill="white"/>
<path d="M102.247 70.8065C103.239 70.8065 104.043 70.0024 104.043 69.0104C104.043 68.0185 103.239 67.2144 102.247 67.2144C101.255 67.2144 100.451 68.0185 100.451 69.0104C100.451 70.0024 101.255 70.8065 102.247 70.8065Z" fill="white"/>
<path d="M43.209 79.8052C44.2006 79.8052 45.0044 79.0014 45.0044 78.0098C45.0044 77.0182 44.2006 76.2144 43.209 76.2144C42.2174 76.2144 41.4136 77.0182 41.4136 78.0098C41.4136 79.0014 42.2174 79.8052 43.209 79.8052Z" fill="white"/>
<path d="M51.6431 79.8052C52.6347 79.8052 53.4385 79.0014 53.4385 78.0098C53.4385 77.0182 52.6347 76.2144 51.6431 76.2144C50.6515 76.2144 49.8477 77.0182 49.8477 78.0098C49.8477 79.0014 50.6515 79.8052 51.6431 79.8052Z" fill="white"/>
<path d="M60.0767 79.8052C61.0683 79.8052 61.8721 79.0014 61.8721 78.0098C61.8721 77.0182 61.0683 76.2144 60.0767 76.2144C59.0851 76.2144 58.2812 77.0182 58.2812 78.0098C58.2812 79.0014 59.0851 79.8052 60.0767 79.8052Z" fill="white"/>
<path d="M68.5096 76.2144C67.5198 76.2144 66.7148 77.0186 66.7148 78.0104C66.7148 79.0016 67.5198 79.8052 68.5096 79.8052C69.5027 79.8052 70.3083 79.0016 70.3083 78.0104C70.3083 77.0186 69.5027 76.2144 68.5096 76.2144Z" fill="white"/>
<path d="M76.9458 79.8052C77.9374 79.8052 78.7413 79.0014 78.7413 78.0098C78.7413 77.0182 77.9374 76.2144 76.9458 76.2144C75.9542 76.2144 75.1504 77.0182 75.1504 78.0098C75.1504 79.0014 75.9542 79.8052 76.9458 79.8052Z" fill="white"/>
<path d="M85.3799 79.8052C86.3715 79.8052 87.1753 79.0014 87.1753 78.0098C87.1753 77.0182 86.3715 76.2144 85.3799 76.2144C84.3883 76.2144 83.5845 77.0182 83.5845 78.0098C83.5845 79.0014 84.3883 79.8052 85.3799 79.8052Z" fill="white"/>
<path d="M93.813 79.8052C94.8046 79.8052 95.6084 79.0014 95.6084 78.0098C95.6084 77.0182 94.8046 76.2144 93.813 76.2144C92.8214 76.2144 92.0176 77.0182 92.0176 78.0098C92.0176 79.0014 92.8214 79.8052 93.813 79.8052Z" fill="white"/>
<path d="M102.247 79.8052C103.239 79.8052 104.043 79.0014 104.043 78.0098C104.043 77.0182 103.239 76.2144 102.247 76.2144C101.256 76.2144 100.452 77.0182 100.452 78.0098C100.452 79.0014 101.256 79.8052 102.247 79.8052Z" fill="white"/>
<path d="M110.577 16.8074C111.152 16.8074 111.641 16.5178 111.969 16.0975C110.961 15.9381 109.944 15.8067 108.918 15.6982C109.189 16.3494 109.827 16.8074 110.577 16.8074Z" fill="white"/>
<path d="M110.577 22.2153C109.585 22.2153 108.779 23.0196 108.779 24.0114C108.779 25.0032 109.585 25.8068 110.577 25.8068C111.568 25.8068 112.373 25.0032 112.373 24.0114C112.373 23.0196 111.568 22.2153 110.577 22.2153Z" fill="white"/>
<path d="M119.011 25.8067C120.002 25.8067 120.806 25.0028 120.806 24.0112C120.806 23.0197 120.002 22.2158 119.011 22.2158C118.019 22.2158 117.215 23.0197 117.215 24.0112C117.215 25.0028 118.019 25.8067 119.011 25.8067Z" fill="white"/>
<path d="M127.444 25.8067C128.435 25.8067 129.239 25.0028 129.239 24.0112C129.239 23.0197 128.435 22.2158 127.444 22.2158C126.452 22.2158 125.648 23.0197 125.648 24.0112C125.648 25.0028 126.452 25.8067 127.444 25.8067Z" fill="white"/>
<path d="M135.877 25.807C136.144 25.807 136.391 25.7419 136.617 25.638C135.79 25.0926 134.948 24.5664 134.092 24.0581C134.118 25.0276 134.904 25.807 135.877 25.807Z" fill="white"/>
<path d="M110.577 31.2158C109.585 31.2158 108.779 32.0195 108.779 33.0125C108.779 34.0043 109.585 34.8073 110.577 34.8073C111.568 34.8073 112.373 34.0037 112.373 33.0125C112.373 32.0195 111.568 31.2158 110.577 31.2158Z" fill="white"/>
<path d="M119.011 34.807C120.003 34.807 120.807 34.0029 120.807 33.0109C120.807 32.019 120.003 31.2148 119.011 31.2148C118.019 31.2148 117.215 32.019 117.215 33.0109C117.215 34.0029 118.019 34.807 119.011 34.807Z" fill="white"/>
<path d="M127.444 34.807C128.436 34.807 129.24 34.0029 129.24 33.0109C129.24 32.019 128.436 31.2148 127.444 31.2148C126.452 31.2148 125.648 32.019 125.648 33.0109C125.648 34.0029 126.452 34.807 127.444 34.807Z" fill="white"/>
<path d="M135.878 34.807C136.87 34.807 137.674 34.0029 137.674 33.0109C137.674 32.019 136.87 31.2148 135.878 31.2148C134.886 31.2148 134.082 32.019 134.082 33.0109C134.082 34.0029 134.886 34.807 135.878 34.807Z" fill="white"/>
<path d="M142.517 33.0122C142.517 34.004 143.321 34.807 144.313 34.807C145.217 34.807 145.937 34.1245 146.06 33.252C145.375 32.5817 144.676 31.9247 143.963 31.2856C143.144 31.454 142.517 32.1435 142.517 33.0122Z" fill="white"/>
<path d="M110.577 40.2153C109.585 40.2153 108.779 41.0196 108.779 42.0114C108.779 43.0032 109.585 43.8068 110.577 43.8068C111.568 43.8068 112.373 43.0026 112.373 42.0114C112.373 41.0202 111.568 40.2153 110.577 40.2153Z" fill="white"/>
<path d="M119.011 43.8075C120.003 43.8075 120.807 43.0033 120.807 42.0114C120.807 41.0195 120.003 40.2153 119.011 40.2153C118.019 40.2153 117.215 41.0195 117.215 42.0114C117.215 43.0033 118.019 43.8075 119.011 43.8075Z" fill="white"/>
<path d="M127.444 43.8075C128.436 43.8075 129.24 43.0033 129.24 42.0114C129.24 41.0195 128.436 40.2153 127.444 40.2153C126.452 40.2153 125.648 41.0195 125.648 42.0114C125.648 43.0033 126.452 43.8075 127.444 43.8075Z" fill="white"/>
<path d="M135.878 43.8075C136.87 43.8075 137.674 43.0033 137.674 42.0114C137.674 41.0195 136.87 40.2153 135.878 40.2153C134.886 40.2153 134.082 41.0195 134.082 42.0114C134.082 43.0033 134.886 43.8075 135.878 43.8075Z" fill="white"/>
<path d="M144.313 43.8075C145.305 43.8075 146.109 43.0033 146.109 42.0114C146.109 41.0195 145.305 40.2153 144.313 40.2153C143.321 40.2153 142.517 41.0195 142.517 42.0114C142.517 43.0033 143.321 43.8075 144.313 43.8075Z" fill="white"/>
<path d="M150.952 42.0113C150.952 43.0031 151.754 43.8067 152.747 43.8067C153.36 43.8067 153.878 43.4782 154.202 43.0069C153.583 42.0897 152.937 41.193 152.271 40.3115C151.517 40.5239 150.952 41.1879 150.952 42.0113Z" fill="white"/>
<path d="M110.577 49.2148C109.585 49.2148 108.779 50.0191 108.779 51.0103C108.779 52.0033 109.585 52.8063 110.577 52.8063C111.568 52.8063 112.373 52.0027 112.373 51.0103C112.373 50.0191 111.568 49.2148 110.577 49.2148Z" fill="white"/>
<path d="M119.011 52.807C120.003 52.807 120.807 52.0028 120.807 51.0109C120.807 50.019 120.003 49.2148 119.011 49.2148C118.019 49.2148 117.215 50.019 117.215 51.0109C117.215 52.0028 118.019 52.807 119.011 52.807Z" fill="white"/>
<path d="M127.444 52.807C128.436 52.807 129.24 52.0028 129.24 51.0109C129.24 50.019 128.436 49.2148 127.444 49.2148C126.452 49.2148 125.648 50.019 125.648 51.0109C125.648 52.0028 126.452 52.807 127.444 52.807Z" fill="white"/>
<path d="M135.878 52.807C136.87 52.807 137.674 52.0028 137.674 51.0109C137.674 50.019 136.87 49.2148 135.878 49.2148C134.886 49.2148 134.082 50.019 134.082 51.0109C134.082 52.0028 134.886 52.807 135.878 52.807Z" fill="white"/>
<path d="M144.313 52.807C145.305 52.807 146.109 52.0028 146.109 51.0109C146.109 50.019 145.305 49.2148 144.313 49.2148C143.321 49.2148 142.517 50.019 142.517 51.0109C142.517 52.0028 143.321 52.807 144.313 52.807Z" fill="white"/>
<path d="M152.748 52.807C153.74 52.807 154.544 52.0028 154.544 51.0109C154.544 50.019 153.74 49.2148 152.748 49.2148C151.756 49.2148 150.952 50.019 150.952 51.0109C150.952 52.0028 151.756 52.807 152.748 52.807Z" fill="white"/>
<path d="M110.577 58.2148C109.585 58.2148 108.779 59.0191 108.779 60.0103C108.779 61.0014 109.585 61.8057 110.577 61.8057C111.568 61.8057 112.373 61.0021 112.373 60.0103C112.373 59.0185 111.568 58.2148 110.577 58.2148Z" fill="white"/>
<path d="M119.011 61.8057C120.002 61.8057 120.806 61.0019 120.806 60.0103C120.806 59.0187 120.002 58.2148 119.011 58.2148C118.019 58.2148 117.215 59.0187 117.215 60.0103C117.215 61.0019 118.019 61.8057 119.011 61.8057Z" fill="white"/>
<path d="M127.444 61.8057C128.435 61.8057 129.239 61.0019 129.239 60.0103C129.239 59.0187 128.435 58.2148 127.444 58.2148C126.452 58.2148 125.648 59.0187 125.648 60.0103C125.648 61.0019 126.452 61.8057 127.444 61.8057Z" fill="white"/>
<path d="M135.877 61.8057C136.869 61.8057 137.673 61.0019 137.673 60.0103C137.673 59.0187 136.869 58.2148 135.877 58.2148C134.886 58.2148 134.082 59.0187 134.082 60.0103C134.082 61.0019 134.886 61.8057 135.877 61.8057Z" fill="white"/>
<path d="M144.313 61.8057C145.305 61.8057 146.108 61.0019 146.108 60.0103C146.108 59.0187 145.305 58.2148 144.313 58.2148C143.321 58.2148 142.518 59.0187 142.518 60.0103C142.518 61.0019 143.321 61.8057 144.313 61.8057Z" fill="white"/>
<path d="M152.748 61.8057C153.739 61.8057 154.543 61.0019 154.543 60.0103C154.543 59.0187 153.739 58.2148 152.748 58.2148C151.756 58.2148 150.952 59.0187 150.952 60.0103C150.952 61.0019 151.756 61.8057 152.748 61.8057Z" fill="white"/>
<path d="M159.385 60.0109C159.385 61.0027 160.188 61.8063 161.18 61.8063C161.748 61.8063 162.232 61.527 162.56 61.1162C162.298 60.1761 162.015 59.2443 161.709 58.3214C161.54 58.2684 161.368 58.2148 161.18 58.2148C160.188 58.2148 159.385 59.0191 159.385 60.0109Z" fill="white"/>
<path d="M110.577 67.2144C109.585 67.2144 108.779 68.0186 108.779 69.0111C108.779 70.0022 109.585 70.8065 110.577 70.8065C111.568 70.8065 112.373 70.0022 112.373 69.0111C112.373 68.018 111.568 67.2144 110.577 67.2144Z" fill="white"/>
<path d="M119.011 70.8065C120.003 70.8065 120.807 70.0024 120.807 69.0104C120.807 68.0185 120.003 67.2144 119.011 67.2144C118.019 67.2144 117.215 68.0185 117.215 69.0104C117.215 70.0024 118.019 70.8065 119.011 70.8065Z" fill="white"/>
<path d="M127.444 70.8065C128.436 70.8065 129.24 70.0024 129.24 69.0104C129.24 68.0185 128.436 67.2144 127.444 67.2144C126.452 67.2144 125.648 68.0185 125.648 69.0104C125.648 70.0024 126.452 70.8065 127.444 70.8065Z" fill="white"/>
<path d="M135.878 70.8065C136.87 70.8065 137.674 70.0024 137.674 69.0104C137.674 68.0185 136.87 67.2144 135.878 67.2144C134.886 67.2144 134.082 68.0185 134.082 69.0104C134.082 70.0024 134.886 70.8065 135.878 70.8065Z" fill="white"/>
<path d="M144.313 70.8065C145.305 70.8065 146.109 70.0024 146.109 69.0104C146.109 68.0185 145.305 67.2144 144.313 67.2144C143.321 67.2144 142.517 68.0185 142.517 69.0104C142.517 70.0024 143.321 70.8065 144.313 70.8065Z" fill="white"/>
<path d="M152.748 70.8065C153.74 70.8065 154.544 70.0024 154.544 69.0104C154.544 68.0185 153.74 67.2144 152.748 67.2144C151.756 67.2144 150.952 68.0185 150.952 69.0104C150.952 70.0024 151.756 70.8065 152.748 70.8065Z" fill="white"/>
<path d="M161.18 70.8065C162.172 70.8065 162.976 70.0024 162.976 69.0104C162.976 68.0185 162.172 67.2144 161.18 67.2144C160.188 67.2144 159.384 68.0185 159.384 69.0104C159.384 70.0024 160.188 70.8065 161.18 70.8065Z" fill="white"/>
<path d="M110.577 76.2144C109.585 76.2144 108.779 77.0186 108.779 78.0104C108.779 79.0016 109.585 79.8052 110.577 79.8052C111.568 79.8052 112.373 79.0016 112.373 78.0104C112.373 77.0186 111.568 76.2144 110.577 76.2144Z" fill="white"/>
<path d="M119.011 79.8052C120.002 79.8052 120.806 79.0014 120.806 78.0098C120.806 77.0182 120.002 76.2144 119.011 76.2144C118.019 76.2144 117.215 77.0182 117.215 78.0098C117.215 79.0014 118.019 79.8052 119.011 79.8052Z" fill="white"/>
<path d="M127.444 79.8052C128.435 79.8052 129.239 79.0014 129.239 78.0098C129.239 77.0182 128.435 76.2144 127.444 76.2144C126.452 76.2144 125.648 77.0182 125.648 78.0098C125.648 79.0014 126.452 79.8052 127.444 79.8052Z" fill="white"/>
<path d="M135.877 79.8052C136.869 79.8052 137.673 79.0014 137.673 78.0098C137.673 77.0182 136.869 76.2144 135.877 76.2144C134.886 76.2144 134.082 77.0182 134.082 78.0098C134.082 79.0014 134.886 79.8052 135.877 79.8052Z" fill="white"/>
<path d="M144.313 79.8052C145.305 79.8052 146.108 79.0014 146.108 78.0098C146.108 77.0182 145.305 76.2144 144.313 76.2144C143.321 76.2144 142.518 77.0182 142.518 78.0098C142.518 79.0014 143.321 79.8052 144.313 79.8052Z" fill="white"/>
<path d="M152.748 79.8052C153.739 79.8052 154.543 79.0014 154.543 78.0098C154.543 77.0182 153.739 76.2144 152.748 76.2144C151.756 76.2144 150.952 77.0182 150.952 78.0098C150.952 79.0014 151.756 79.8052 152.748 79.8052Z" fill="white"/>
<path d="M161.18 79.8052C162.172 79.8052 162.976 79.0014 162.976 78.0098C162.976 77.0182 162.172 76.2144 161.18 76.2144C160.189 76.2144 159.385 77.0182 159.385 78.0098C159.385 79.0014 160.189 79.8052 161.18 79.8052Z" fill="white"/>
<path d="M43.2092 88.8412C44.2011 88.8412 45.0052 88.037 45.0052 87.0451C45.0052 86.0531 44.2011 85.249 43.2092 85.249C42.2172 85.249 41.4131 86.0531 41.4131 87.0451C41.4131 88.037 42.2172 88.8412 43.2092 88.8412Z" fill="white"/>
<path d="M51.6427 88.8412C52.6347 88.8412 53.4388 88.037 53.4388 87.0451C53.4388 86.0531 52.6347 85.249 51.6427 85.249C50.6508 85.249 49.8467 86.0531 49.8467 87.0451C49.8467 88.037 50.6508 88.8412 51.6427 88.8412Z" fill="white"/>
<path d="M60.0768 88.8412C61.0688 88.8412 61.8729 88.037 61.8729 87.0451C61.8729 86.0531 61.0688 85.249 60.0768 85.249C59.0849 85.249 58.2808 86.0531 58.2808 87.0451C58.2808 88.037 59.0849 88.8412 60.0768 88.8412Z" fill="white"/>
<path d="M68.5096 85.249C67.5198 85.249 66.7148 86.0527 66.7148 87.0451C66.7148 88.0369 67.5198 88.8412 68.5096 88.8412C69.5027 88.8412 70.3083 88.0369 70.3083 87.0451C70.3083 86.052 69.5027 85.249 68.5096 85.249Z" fill="white"/>
<path d="M76.946 88.8412C77.9379 88.8412 78.742 88.037 78.742 87.0451C78.742 86.0531 77.9379 85.249 76.946 85.249C75.954 85.249 75.1499 86.0531 75.1499 87.0451C75.1499 88.037 75.954 88.8412 76.946 88.8412Z" fill="white"/>
<path d="M85.3796 88.8412C86.3715 88.8412 87.1756 88.037 87.1756 87.0451C87.1756 86.0531 86.3715 85.249 85.3796 85.249C84.3876 85.249 83.5835 86.0531 83.5835 87.0451C83.5835 88.037 84.3876 88.8412 85.3796 88.8412Z" fill="white"/>
<path d="M93.8127 88.8412C94.8046 88.8412 95.6088 88.037 95.6088 87.0451C95.6088 86.0531 94.8046 85.249 93.8127 85.249C92.8207 85.249 92.0166 86.0531 92.0166 87.0451C92.0166 88.037 92.8207 88.8412 93.8127 88.8412Z" fill="white"/>
<path d="M102.247 88.8412C103.239 88.8412 104.043 88.037 104.043 87.0451C104.043 86.0531 103.239 85.249 102.247 85.249C101.255 85.249 100.451 86.0531 100.451 87.0451C100.451 88.037 101.255 88.8412 102.247 88.8412Z" fill="white"/>
<path d="M45.0058 96.0445C45.0058 95.0527 44.1996 94.249 43.2098 94.249C42.6402 94.249 42.1587 94.5284 41.8276 94.9385C42.0904 95.8799 42.373 96.8111 42.6797 97.7346C42.8488 97.7876 43.0222 97.8412 43.2098 97.8412C44.1996 97.8405 45.0058 97.0362 45.0058 96.0445Z" fill="white"/>
<path d="M51.6427 97.8407C52.6347 97.8407 53.4388 97.0365 53.4388 96.0446C53.4388 95.0527 52.6347 94.2485 51.6427 94.2485C50.6508 94.2485 49.8467 95.0527 49.8467 96.0446C49.8467 97.0365 50.6508 97.8407 51.6427 97.8407Z" fill="white"/>
<path d="M60.0768 97.8407C61.0688 97.8407 61.8729 97.0365 61.8729 96.0446C61.8729 95.0527 61.0688 94.2485 60.0768 94.2485C59.0849 94.2485 58.2808 95.0527 58.2808 96.0446C58.2808 97.0365 59.0849 97.8407 60.0768 97.8407Z" fill="white"/>
<path d="M68.5096 94.2485C67.5198 94.2485 66.7148 95.0528 66.7148 96.044C66.7148 97.0351 67.5198 97.84 68.5096 97.84C69.5027 97.84 70.3083 97.0351 70.3083 96.044C70.3083 95.0528 69.5027 94.2485 68.5096 94.2485Z" fill="white"/>
<path d="M76.946 97.8407C77.9379 97.8407 78.742 97.0365 78.742 96.0446C78.742 95.0527 77.9379 94.2485 76.946 94.2485C75.954 94.2485 75.1499 95.0527 75.1499 96.0446C75.1499 97.0365 75.954 97.8407 76.946 97.8407Z" fill="white"/>
<path d="M85.3796 97.8407C86.3715 97.8407 87.1756 97.0365 87.1756 96.0446C87.1756 95.0527 86.3715 94.2485 85.3796 94.2485C84.3876 94.2485 83.5835 95.0527 83.5835 96.0446C83.5835 97.0365 84.3876 97.8407 85.3796 97.8407Z" fill="white"/>
<path d="M93.8127 97.8407C94.8046 97.8407 95.6088 97.0365 95.6088 96.0446C95.6088 95.0527 94.8046 94.2485 93.8127 94.2485C92.8207 94.2485 92.0166 95.0527 92.0166 96.0446C92.0166 97.0365 92.8207 97.8407 93.8127 97.8407Z" fill="white"/>
<path d="M102.247 97.8407C103.239 97.8407 104.043 97.0365 104.043 96.0446C104.043 95.0527 103.239 94.2485 102.247 94.2485C101.255 94.2485 100.451 95.0527 100.451 96.0446C100.451 97.0365 101.255 97.8407 102.247 97.8407Z" fill="white"/>
<path d="M51.6427 106.84C52.6347 106.84 53.4388 106.036 53.4388 105.044C53.4388 104.052 52.6347 103.248 51.6427 103.248C50.6508 103.248 49.8467 104.052 49.8467 105.044C49.8467 106.036 50.6508 106.84 51.6427 106.84Z" fill="white"/>
<path d="M60.0768 106.84C61.0688 106.84 61.8729 106.036 61.8729 105.044C61.8729 104.052 61.0688 103.248 60.0768 103.248C59.0849 103.248 58.2808 104.052 58.2808 105.044C58.2808 106.036 59.0849 106.84 60.0768 106.84Z" fill="white"/>
<path d="M68.5096 103.248C67.5198 103.248 66.7148 104.052 66.7148 105.045C66.7148 106.036 67.5198 106.84 68.5096 106.84C69.5027 106.84 70.3083 106.036 70.3083 105.045C70.3083 104.052 69.5027 103.248 68.5096 103.248Z" fill="white"/>
<path d="M76.946 106.84C77.9379 106.84 78.742 106.036 78.742 105.044C78.742 104.052 77.9379 103.248 76.946 103.248C75.954 103.248 75.1499 104.052 75.1499 105.044C75.1499 106.036 75.954 106.84 76.946 106.84Z" fill="white"/>
<path d="M85.3796 106.84C86.3715 106.84 87.1756 106.036 87.1756 105.044C87.1756 104.052 86.3715 103.248 85.3796 103.248C84.3876 103.248 83.5835 104.052 83.5835 105.044C83.5835 106.036 84.3876 106.84 85.3796 106.84Z" fill="white"/>
<path d="M93.8127 106.84C94.8046 106.84 95.6088 106.036 95.6088 105.044C95.6088 104.052 94.8046 103.248 93.8127 103.248C92.8207 103.248 92.0166 104.052 92.0166 105.044C92.0166 106.036 92.8207 106.84 93.8127 106.84Z" fill="white"/>
<path d="M102.247 106.84C103.239 106.84 104.043 106.036 104.043 105.044C104.043 104.052 103.239 103.248 102.247 103.248C101.255 103.248 100.451 104.052 100.451 105.044C100.451 106.036 101.255 106.84 102.247 106.84Z" fill="white"/>
<path d="M53.4388 114.044C53.4388 113.051 52.6358 112.248 51.6433 112.248C51.0285 112.248 50.5118 112.577 50.1885 113.048C50.8078 113.965 51.4545 114.862 52.1185 115.743C52.8736 115.531 53.4388 114.867 53.4388 114.044Z" fill="white"/>
<path d="M60.0768 115.84C61.0688 115.84 61.8729 115.036 61.8729 114.044C61.8729 113.052 61.0688 112.248 60.0768 112.248C59.0849 112.248 58.2808 113.052 58.2808 114.044C58.2808 115.036 59.0849 115.84 60.0768 115.84Z" fill="white"/>
<path d="M68.5096 112.248C67.5198 112.248 66.7148 113.052 66.7148 114.044C66.7148 115.035 67.5198 115.84 68.5096 115.84C69.5027 115.84 70.3083 115.034 70.3083 114.044C70.3083 113.051 69.5027 112.248 68.5096 112.248Z" fill="white"/>
<path d="M76.946 115.84C77.9379 115.84 78.742 115.036 78.742 114.044C78.742 113.052 77.9379 112.248 76.946 112.248C75.954 112.248 75.1499 113.052 75.1499 114.044C75.1499 115.036 75.954 115.84 76.946 115.84Z" fill="white"/>
<path d="M85.3796 115.84C86.3715 115.84 87.1756 115.036 87.1756 114.044C87.1756 113.052 86.3715 112.248 85.3796 112.248C84.3876 112.248 83.5835 113.052 83.5835 114.044C83.5835 115.036 84.3876 115.84 85.3796 115.84Z" fill="white"/>
<path d="M93.8127 115.84C94.8046 115.84 95.6088 115.036 95.6088 114.044C95.6088 113.052 94.8046 112.248 93.8127 112.248C92.8207 112.248 92.0166 113.052 92.0166 114.044C92.0166 115.036 92.8207 115.84 93.8127 115.84Z" fill="white"/>
<path d="M102.247 115.84C103.239 115.84 104.043 115.036 104.043 114.044C104.043 113.052 103.239 112.248 102.247 112.248C101.255 112.248 100.451 113.052 100.451 114.044C100.451 115.036 101.255 115.84 102.247 115.84Z" fill="white"/>
<path d="M61.872 123.044C61.872 122.051 61.069 121.249 60.0766 121.249C59.1696 121.249 58.4527 121.93 58.3296 122.803C59.0146 123.473 59.713 124.13 60.4267 124.77C61.245 124.601 61.872 123.911 61.872 123.044Z" fill="white"/>
<path d="M68.5096 121.248C67.5198 121.248 66.7148 122.05 66.7148 123.043C66.7148 124.035 67.5198 124.839 68.5096 124.839C69.5027 124.839 70.3083 124.035 70.3083 123.043C70.3083 122.051 69.5027 121.248 68.5096 121.248Z" fill="white"/>
<path d="M76.9458 124.839C77.9374 124.839 78.7413 124.036 78.7413 123.044C78.7413 122.052 77.9374 121.249 76.9458 121.249C75.9542 121.249 75.1504 122.052 75.1504 123.044C75.1504 124.036 75.9542 124.839 76.9458 124.839Z" fill="white"/>
<path d="M85.3799 124.839C86.3715 124.839 87.1753 124.036 87.1753 123.044C87.1753 122.052 86.3715 121.249 85.3799 121.249C84.3883 121.249 83.5845 122.052 83.5845 123.044C83.5845 124.036 84.3883 124.839 85.3799 124.839Z" fill="white"/>
<path d="M93.813 124.839C94.8046 124.839 95.6084 124.036 95.6084 123.044C95.6084 122.052 94.8046 121.249 93.813 121.249C92.8214 121.249 92.0176 122.052 92.0176 123.044C92.0176 124.036 92.8214 124.839 93.813 124.839Z" fill="white"/>
<path d="M102.247 124.839C103.239 124.839 104.043 124.036 104.043 123.044C104.043 122.052 103.239 121.249 102.247 121.249C101.256 121.249 100.452 122.052 100.452 123.044C100.452 124.036 101.256 124.839 102.247 124.839Z" fill="white"/>
<path d="M68.5097 130.248C68.2457 130.248 67.9988 130.313 67.7705 130.417C68.6003 130.962 69.4416 131.489 70.2969 131.997C70.272 131.026 69.4868 130.248 68.5097 130.248Z" fill="white"/>
<path d="M76.9458 133.838C77.9374 133.838 78.7413 133.035 78.7413 132.043C78.7413 131.051 77.9374 130.248 76.9458 130.248C75.9542 130.248 75.1504 131.051 75.1504 132.043C75.1504 133.035 75.9542 133.838 76.9458 133.838Z" fill="white"/>
<path d="M85.3799 133.838C86.3715 133.838 87.1753 133.035 87.1753 132.043C87.1753 131.051 86.3715 130.248 85.3799 130.248C84.3883 130.248 83.5845 131.051 83.5845 132.043C83.5845 133.035 84.3883 133.838 85.3799 133.838Z" fill="white"/>
<path d="M93.813 133.838C94.8046 133.838 95.6084 133.035 95.6084 132.043C95.6084 131.051 94.8046 130.248 93.813 130.248C92.8214 130.248 92.0176 131.051 92.0176 132.043C92.0176 133.035 92.8214 133.838 93.813 133.838Z" fill="white"/>
<path d="M102.247 133.838C103.239 133.838 104.043 133.035 104.043 132.043C104.043 131.051 103.239 130.248 102.247 130.248C101.256 130.248 100.452 131.051 100.452 132.043C100.452 133.035 101.256 133.838 102.247 133.838Z" fill="white"/>
<path d="M93.813 139.249C93.239 139.249 92.7479 139.537 92.4194 139.959C93.4278 140.117 94.4477 140.248 95.4707 140.358C95.2016 139.706 94.5618 139.249 93.813 139.249Z" fill="white"/>
<path d="M102.247 139.249C101.385 139.249 100.699 139.868 100.526 140.679C101.082 140.693 101.636 140.721 102.195 140.721C102.789 140.721 103.378 140.693 103.969 140.675C103.797 139.867 103.109 139.249 102.247 139.249Z" fill="white"/>
<path d="M110.577 85.249C109.585 85.249 108.779 86.0527 108.779 87.0451C108.779 88.0369 109.585 88.8412 110.577 88.8412C111.568 88.8412 112.373 88.0369 112.373 87.0451C112.373 86.052 111.568 85.249 110.577 85.249Z" fill="white"/>
<path d="M119.011 88.8412C120.003 88.8412 120.807 88.037 120.807 87.0451C120.807 86.0531 120.003 85.249 119.011 85.249C118.019 85.249 117.215 86.0531 117.215 87.0451C117.215 88.037 118.019 88.8412 119.011 88.8412Z" fill="white"/>
<path d="M127.444 88.8412C128.436 88.8412 129.24 88.037 129.24 87.0451C129.24 86.0531 128.436 85.249 127.444 85.249C126.452 85.249 125.648 86.0531 125.648 87.0451C125.648 88.037 126.452 88.8412 127.444 88.8412Z" fill="white"/>
<path d="M135.878 88.8412C136.87 88.8412 137.674 88.037 137.674 87.0451C137.674 86.0531 136.87 85.249 135.878 85.249C134.886 85.249 134.082 86.0531 134.082 87.0451C134.082 88.037 134.886 88.8412 135.878 88.8412Z" fill="white"/>
<path d="M144.313 88.8412C145.305 88.8412 146.109 88.037 146.109 87.0451C146.109 86.0531 145.305 85.249 144.313 85.249C143.321 85.249 142.517 86.0531 142.517 87.0451C142.517 88.037 143.321 88.8412 144.313 88.8412Z" fill="white"/>
<path d="M152.748 88.8412C153.74 88.8412 154.544 88.037 154.544 87.0451C154.544 86.0531 153.74 85.249 152.748 85.249C151.756 85.249 150.952 86.0531 150.952 87.0451C150.952 88.037 151.756 88.8412 152.748 88.8412Z" fill="white"/>
<path d="M161.18 88.8412C162.172 88.8412 162.976 88.037 162.976 87.0451C162.976 86.0531 162.172 85.249 161.18 85.249C160.188 85.249 159.384 86.0531 159.384 87.0451C159.384 88.037 160.188 88.8412 161.18 88.8412Z" fill="white"/>
<path d="M110.577 94.2485C109.585 94.2485 108.779 95.0528 108.779 96.044C108.779 97.0351 109.585 97.84 110.577 97.84C111.568 97.84 112.373 97.0351 112.373 96.044C112.373 95.0528 111.568 94.2485 110.577 94.2485Z" fill="white"/>
<path d="M119.011 97.8407C120.003 97.8407 120.807 97.0365 120.807 96.0446C120.807 95.0527 120.003 94.2485 119.011 94.2485C118.019 94.2485 117.215 95.0527 117.215 96.0446C117.215 97.0365 118.019 97.8407 119.011 97.8407Z" fill="white"/>
<path d="M127.444 97.8407C128.436 97.8407 129.24 97.0365 129.24 96.0446C129.24 95.0527 128.436 94.2485 127.444 94.2485C126.452 94.2485 125.648 95.0527 125.648 96.0446C125.648 97.0365 126.452 97.8407 127.444 97.8407Z" fill="white"/>
<path d="M135.878 97.8407C136.87 97.8407 137.674 97.0365 137.674 96.0446C137.674 95.0527 136.87 94.2485 135.878 94.2485C134.886 94.2485 134.082 95.0527 134.082 96.0446C134.082 97.0365 134.886 97.8407 135.878 97.8407Z" fill="white"/>
<path d="M144.313 97.8407C145.305 97.8407 146.109 97.0365 146.109 96.0446C146.109 95.0527 145.305 94.2485 144.313 94.2485C143.321 94.2485 142.517 95.0527 142.517 96.0446C142.517 97.0365 143.321 97.8407 144.313 97.8407Z" fill="white"/>
<path d="M152.748 97.8407C153.74 97.8407 154.544 97.0365 154.544 96.0446C154.544 95.0527 153.74 94.2485 152.748 94.2485C151.756 94.2485 150.952 95.0527 150.952 96.0446C150.952 97.0365 151.756 97.8407 152.748 97.8407Z" fill="white"/>
<path d="M161.18 94.2485C160.188 94.2485 159.385 95.0528 159.385 96.044C159.385 97.0351 160.188 97.84 161.18 97.84C161.368 97.84 161.54 97.7865 161.709 97.7335C162.014 96.81 162.298 95.8788 162.56 94.9374C162.232 94.5285 161.748 94.2485 161.18 94.2485Z" fill="white"/>
<path d="M110.577 103.248C109.585 103.248 108.779 104.052 108.779 105.045C108.779 106.036 109.585 106.84 110.577 106.84C111.568 106.84 112.373 106.036 112.373 105.045C112.373 104.052 111.568 103.248 110.577 103.248Z" fill="white"/>
<path d="M119.011 106.84C120.003 106.84 120.807 106.036 120.807 105.044C120.807 104.052 120.003 103.248 119.011 103.248C118.019 103.248 117.215 104.052 117.215 105.044C117.215 106.036 118.019 106.84 119.011 106.84Z" fill="white"/>
<path d="M127.444 106.84C128.436 106.84 129.24 106.036 129.24 105.044C129.24 104.052 128.436 103.248 127.444 103.248C126.452 103.248 125.648 104.052 125.648 105.044C125.648 106.036 126.452 106.84 127.444 106.84Z" fill="white"/>
<path d="M135.878 106.84C136.87 106.84 137.674 106.036 137.674 105.044C137.674 104.052 136.87 103.248 135.878 103.248C134.886 103.248 134.082 104.052 134.082 105.044C134.082 106.036 134.886 106.84 135.878 106.84Z" fill="white"/>
<path d="M144.313 106.84C145.305 106.84 146.109 106.036 146.109 105.044C146.109 104.052 145.305 103.248 144.313 103.248C143.321 103.248 142.517 104.052 142.517 105.044C142.517 106.036 143.321 106.84 144.313 106.84Z" fill="white"/>
<path d="M152.748 106.84C153.74 106.84 154.544 106.036 154.544 105.044C154.544 104.052 153.74 103.248 152.748 103.248C151.756 103.248 150.952 104.052 150.952 105.044C150.952 106.036 151.756 106.84 152.748 106.84Z" fill="white"/>
<path d="M110.577 112.248C109.585 112.248 108.779 113.052 108.779 114.044C108.779 115.035 109.585 115.84 110.577 115.84C111.568 115.84 112.373 115.034 112.373 114.044C112.373 113.051 111.568 112.248 110.577 112.248Z" fill="white"/>
<path d="M119.011 115.84C120.003 115.84 120.807 115.036 120.807 114.044C120.807 113.052 120.003 112.248 119.011 112.248C118.019 112.248 117.215 113.052 117.215 114.044C117.215 115.036 118.019 115.84 119.011 115.84Z" fill="white"/>
<path d="M127.444 115.84C128.436 115.84 129.24 115.036 129.24 114.044C129.24 113.052 128.436 112.248 127.444 112.248C126.452 112.248 125.648 113.052 125.648 114.044C125.648 115.036 126.452 115.84 127.444 115.84Z" fill="white"/>
<path d="M135.878 115.84C136.87 115.84 137.674 115.036 137.674 114.044C137.674 113.052 136.87 112.248 135.878 112.248C134.886 112.248 134.082 113.052 134.082 114.044C134.082 115.036 134.886 115.84 135.878 115.84Z" fill="white"/>
<path d="M144.313 115.84C145.305 115.84 146.109 115.036 146.109 114.044C146.109 113.052 145.305 112.248 144.313 112.248C143.321 112.248 142.517 113.052 142.517 114.044C142.517 115.036 143.321 115.84 144.313 115.84Z" fill="white"/>
<path d="M152.748 112.248C151.755 112.248 150.952 113.052 150.952 114.044C150.952 114.867 151.517 115.531 152.271 115.743C152.937 114.862 153.583 113.965 154.202 113.048C153.878 112.577 153.361 112.248 152.748 112.248Z" fill="white"/>
<path d="M110.577 121.248C109.585 121.248 108.779 122.05 108.779 123.043C108.779 124.035 109.585 124.839 110.577 124.839C111.568 124.839 112.373 124.035 112.373 123.043C112.373 122.051 111.568 121.248 110.577 121.248Z" fill="white"/>
<path d="M119.011 124.839C120.002 124.839 120.806 124.036 120.806 123.044C120.806 122.052 120.002 121.249 119.011 121.249C118.019 121.249 117.215 122.052 117.215 123.044C117.215 124.036 118.019 124.839 119.011 124.839Z" fill="white"/>
<path d="M127.444 124.839C128.435 124.839 129.239 124.036 129.239 123.044C129.239 122.052 128.435 121.249 127.444 121.249C126.452 121.249 125.648 122.052 125.648 123.044C125.648 124.036 126.452 124.839 127.444 124.839Z" fill="white"/>
<path d="M135.877 124.839C136.869 124.839 137.673 124.036 137.673 123.044C137.673 122.052 136.869 121.249 135.877 121.249C134.886 121.249 134.082 122.052 134.082 123.044C134.082 124.036 134.886 124.839 135.877 124.839Z" fill="white"/>
<path d="M144.313 121.248C143.321 121.248 142.517 122.05 142.517 123.043C142.517 123.911 143.145 124.6 143.963 124.769C144.677 124.129 145.376 123.473 146.061 122.802C145.938 121.93 145.218 121.248 144.313 121.248Z" fill="white"/>
<path d="M110.577 130.248C109.585 130.248 108.779 131.052 108.779 132.043C108.779 133.036 109.585 133.838 110.577 133.838C111.568 133.838 112.373 133.036 112.373 132.043C112.373 131.052 111.568 130.248 110.577 130.248Z" fill="white"/>
<path d="M119.011 133.838C120.002 133.838 120.806 133.035 120.806 132.043C120.806 131.051 120.002 130.248 119.011 130.248C118.019 130.248 117.215 131.051 117.215 132.043C117.215 133.035 118.019 133.838 119.011 133.838Z" fill="white"/>
<path d="M127.444 133.838C128.435 133.838 129.239 133.035 129.239 132.043C129.239 131.051 128.435 130.248 127.444 130.248C126.452 130.248 125.648 131.051 125.648 132.043C125.648 133.035 126.452 133.838 127.444 133.838Z" fill="white"/>
<path d="M134.092 131.996C134.948 131.488 135.79 130.962 136.617 130.416C136.392 130.312 136.145 130.247 135.877 130.247C134.904 130.247 134.118 131.026 134.092 131.996Z" fill="white"/>
<path d="M110.577 139.249C109.827 139.249 109.189 139.706 108.917 140.358C109.943 140.248 110.96 140.117 111.969 139.959C111.641 139.537 111.152 139.249 110.577 139.249Z" fill="white"/>
</g>
</svg>
