<svg width="71" height="71" viewBox="0 0 71 71" fill="none" xmlns="http://www.w3.org/2000/svg">
<path d="M46.5938 55.4686H24.4062C19.525 55.4686 15.5312 51.4749 15.5312 46.5936V13.3124C15.5312 8.43113 19.525 4.43738 24.4062 4.43738H46.5938C51.475 4.43738 55.4688 8.43113 55.4688 13.3124V46.5936C55.4688 51.4749 51.475 55.4686 46.5938 55.4686Z" stroke="#2B59FF" stroke-width="1.7" stroke-miterlimit="10" stroke-linecap="round" stroke-linejoin="round"/>
<path d="M15.5312 66.5624L26.625 55.4686" stroke="#2B59FF" stroke-width="1.7" stroke-miterlimit="10" stroke-linecap="round" stroke-linejoin="round"/>
<path d="M55.4688 66.5624L44.375 55.4686" stroke="#2B59FF" stroke-width="1.7" stroke-miterlimit="10" stroke-linecap="round" stroke-linejoin="round"/>
<path d="M48.8125 6.65613V26.6249C48.8125 31.5061 44.8188 35.4999 39.9375 35.4999H31.0625C26.1812 35.4999 22.1875 31.5061 22.1875 26.6249V6.65613" stroke="#2B59FF" stroke-width="1.7" stroke-miterlimit="10" stroke-linecap="round" stroke-linejoin="round"/>
<path d="M25.5156 48.8124C27.3537 48.8124 28.8438 47.3223 28.8438 45.4843C28.8438 43.6462 27.3537 42.1561 25.5156 42.1561C23.6776 42.1561 22.1875 43.6462 22.1875 45.4843C22.1875 47.3223 23.6776 48.8124 25.5156 48.8124Z" stroke="#2B59FF" stroke-width="1.7" stroke-miterlimit="10" stroke-linecap="round" stroke-linejoin="round"/>
<path d="M45.4844 48.8124C47.3224 48.8124 48.8125 47.3223 48.8125 45.4843C48.8125 43.6462 47.3224 42.1561 45.4844 42.1561C43.6463 42.1561 42.1562 43.6462 42.1562 45.4843C42.1562 47.3223 43.6463 48.8124 45.4844 48.8124Z" stroke="#2B59FF" stroke-width="1.7" stroke-miterlimit="10" stroke-linecap="round" stroke-linejoin="round"/>
<path d="M19.9688 62.1249H51.0312" stroke="#2B59FF" stroke-width="1.7" stroke-miterlimit="10" stroke-linecap="round" stroke-linejoin="round"/>
</svg>
