<svg width="200" height="100" viewBox="0 0 200 100" fill="none" xmlns="http://www.w3.org/2000/svg">
<rect width="200" height="100" fill="white"/>
<path fill-rule="evenodd" clip-rule="evenodd" d="M48 20C46.8954 20 46 20.8954 46 22V61.4433C46 62.5479 46.8954 63.4433 48 63.4433H144.479C145.583 63.4433 146.479 62.5479 146.479 61.4433V22C146.479 20.8954 145.583 20 144.479 20H48ZM48 61.4433V22H144.479V61.4433H48Z" fill="#2B59FF"/>
<path fill-rule="evenodd" clip-rule="evenodd" d="M75.0282 72.5C75.0282 76.5573 78.32 79.8461 82.3803 79.8461C86.4406 79.8461 89.7324 76.5573 89.7324 72.5C89.7324 68.4426 86.4406 65.1538 82.3803 65.1538C78.32 65.1538 75.0282 68.4426 75.0282 72.5ZM87.7324 72.5C87.7324 75.4524 85.3364 77.8461 82.3803 77.8461C79.4242 77.8461 77.0282 75.4524 77.0282 72.5C77.0282 69.5476 79.4242 67.1538 82.3803 67.1538C85.3364 67.1538 87.7324 69.5476 87.7324 72.5Z" fill="#2B59FF"/>
<path fill-rule="evenodd" clip-rule="evenodd" d="M60.0141 72.5C60.0141 76.5573 63.306 79.8461 67.3662 79.8461C71.4265 79.8461 74.7183 76.5573 74.7183 72.5C74.7183 68.4426 71.4265 65.1538 67.3662 65.1538C63.306 65.1538 60.0141 68.4426 60.0141 72.5ZM72.7183 72.5C72.7183 75.4524 70.3223 77.8461 67.3662 77.8461C64.4101 77.8461 62.0141 75.4524 62.0141 72.5C62.0141 69.5476 64.4101 67.1538 67.3662 67.1538C70.3223 67.1538 72.7183 69.5476 72.7183 72.5Z" fill="#2B59FF"/>
<path fill-rule="evenodd" clip-rule="evenodd" d="M129.31 72.5C129.31 76.5573 132.602 79.8461 136.662 79.8461C140.722 79.8461 144.014 76.5573 144.014 72.5C144.014 68.4426 140.722 65.1538 136.662 65.1538C132.602 65.1538 129.31 68.4426 129.31 72.5ZM142.014 72.5C142.014 75.4524 139.618 77.8461 136.662 77.8461C133.706 77.8461 131.31 75.4524 131.31 72.5C131.31 69.5476 133.706 67.1538 136.662 67.1538C139.618 67.1538 142.014 69.5476 142.014 72.5Z" fill="#2B59FF"/>
<path fill-rule="evenodd" clip-rule="evenodd" d="M114.296 72.5C114.296 76.5573 117.588 79.8461 121.648 79.8461C125.708 79.8461 129 76.5573 129 72.5C129 68.4426 125.708 65.1538 121.648 65.1538C117.588 65.1538 114.296 68.4426 114.296 72.5ZM127 72.5C127 75.4524 124.604 77.8461 121.648 77.8461C118.692 77.8461 116.296 75.4524 116.296 72.5C116.296 69.5476 118.692 67.1538 121.648 67.1538C124.604 67.1538 127 69.5476 127 72.5Z" fill="#2B59FF"/>
<path fill-rule="evenodd" clip-rule="evenodd" d="M160.493 72.5C160.493 76.5573 163.785 79.8461 167.845 79.8461C171.905 79.8461 175.197 76.5573 175.197 72.5C175.197 68.4426 171.905 65.1538 167.845 65.1538C163.785 65.1538 160.493 68.4426 160.493 72.5ZM173.197 72.5C173.197 75.4524 170.801 77.8461 167.845 77.8461C164.889 77.8461 162.493 75.4524 162.493 72.5C162.493 69.5476 164.889 67.1538 167.845 67.1538C170.801 67.1538 173.197 69.5476 173.197 72.5Z" fill="#2B59FF"/>
<path d="M151.282 36C150.729 36 150.282 36.4477 150.282 37V66.1539H148.282V36C148.282 34.8954 149.177 34 150.282 34H164.223C166.994 34 168.992 35.1347 170.05 37.3962C172.667 43.5566 174.975 47.0749 176.756 47.8738C179.224 48.9807 180.451 50.9022 180.299 53.4075V66.0559H178.299L178.301 53.3476C178.404 51.632 177.663 50.4726 175.938 49.6986C173.526 48.6167 171.023 44.8022 168.224 38.2111C167.527 36.7234 166.254 36 164.223 36H151.282Z" fill="#2B59FF"/>
<path d="M92.9581 70.9092C92.4059 70.9092 91.9581 70.4615 91.9581 69.9092C91.9581 69.3569 92.4059 68.9092 92.9581 68.9092H110.393C110.946 68.9092 111.393 69.3569 111.393 69.9092C111.393 70.4615 110.946 70.9092 110.393 70.9092H92.9581Z" fill="#2B59FF"/>
<path d="M148.139 70.9273C147.587 70.9273 147.139 70.4795 147.139 69.9272C147.139 69.375 147.587 68.9272 148.139 68.9272H157.782C158.334 68.9272 158.782 69.375 158.782 69.9272C158.782 70.4795 158.334 70.9273 157.782 70.9273H148.139Z" fill="#2B59FF"/>
<path d="M180.429 64.9999C181.534 64.9999 182.429 65.8953 182.429 66.9999V69.0667C182.429 70.1713 181.534 71.0667 180.429 71.0667H179.282C178.729 71.0667 178.282 70.619 178.282 70.0667C178.282 69.5145 178.729 69.0667 179.282 69.0667H180.429V66.9999H174.994L174.707 66.7367C169.952 62.3733 165.572 62.3733 161.13 66.715L160.839 66.9999H155.163H143.206L142.92 66.7396C138.679 62.8815 134.434 62.8815 129.815 66.7653C129.426 67.092 128.855 67.0757 128.485 66.7275C125.82 64.2152 123.012 63.5044 120.129 64.1441C118.126 64.5886 116.256 65.6671 115.066 66.742L114.781 66.9999H102.423L102.423 64.9999H114.018C118.125 61.4718 123.909 60.2171 129.205 64.6893C134.247 60.8052 139.272 60.9016 143.973 64.9999H160.03C165.064 60.2787 170.44 60.2852 175.767 64.9999H180.429Z" fill="#2B59FF"/>
<path d="M102.447 65.0001V67.0001H88.8805L88.5944 66.7399C84.3532 62.8818 80.1087 62.8818 75.4895 66.7655C75.101 67.0922 74.5293 67.076 74.16 66.7278C71.4949 64.2154 68.6863 63.5046 65.8036 64.1443C63.8003 64.5888 61.931 65.6674 60.741 66.7422L60.4554 67.0001H53.9642V68.6584H57.3048C57.8571 68.6584 58.3048 69.1061 58.3048 69.6584C58.3048 70.2107 57.8571 70.6584 57.3048 70.6584H53.9642C52.8596 70.6584 51.9642 69.763 51.9642 68.6584V67.0001C51.9642 65.8956 52.8596 65.0001 53.9642 65.0001H59.6931C63.7997 61.4721 69.5836 60.2173 74.8792 64.6895C79.9214 60.8054 84.9467 60.9019 89.648 65.0001H102.447Z" fill="#2B59FF"/>
<path fill-rule="evenodd" clip-rule="evenodd" d="M36 68H32V72H36V68ZM32 66C30.8954 66 30 66.8954 30 68V72C30 73.1046 30.8954 74 32 74H36C37.1046 74 38 73.1046 38 72V68C38 66.8954 37.1046 66 36 66H32Z" fill="#2B59FF"/>
<path fill-rule="evenodd" clip-rule="evenodd" d="M30 74H26V78H30V74ZM26 72C24.8954 72 24 72.8954 24 74V78C24 79.1046 24.8954 80 26 80H30C31.1046 80 32 79.1046 32 78V74C32 72.8954 31.1046 72 30 72H26Z" fill="#2B59FF"/>
<path fill-rule="evenodd" clip-rule="evenodd" d="M24 74H20V78H24V74ZM20 72C18.8954 72 18 72.8954 18 74V78C18 79.1046 18.8954 80 20 80H24C25.1046 80 26 79.1046 26 78V74C26 72.8954 25.1046 72 24 72H20Z" fill="#2B59FF"/>
<path fill-rule="evenodd" clip-rule="evenodd" d="M30 68H26V72H30V68ZM26 66C24.8954 66 24 66.8954 24 68V72C24 73.1046 24.8954 74 26 74H30C31.1046 74 32 73.1046 32 72V68C32 66.8954 31.1046 66 30 66H26Z" fill="#2B59FF"/>
<path fill-rule="evenodd" clip-rule="evenodd" d="M24 68H20V72H24V68ZM20 66C18.8954 66 18 66.8954 18 68V72C18 73.1046 18.8954 74 20 74H24C25.1046 74 26 73.1046 26 72V68C26 66.8954 25.1046 66 24 66H20Z" fill="#2B59FF"/>
<path fill-rule="evenodd" clip-rule="evenodd" d="M30 62H26V66H30V62ZM26 60C24.8954 60 24 60.8954 24 62V66C24 67.1046 24.8954 68 26 68H30C31.1046 68 32 67.1046 32 66V62C32 60.8954 31.1046 60 30 60H26Z" fill="#2B59FF"/>
<path fill-rule="evenodd" clip-rule="evenodd" d="M24 62H20V66H24V62ZM20 60C18.8954 60 18 60.8954 18 62V66C18 67.1046 18.8954 68 20 68H24C25.1046 68 26 67.1046 26 66V62C26 60.8954 25.1046 60 24 60H20Z" fill="#2B59FF"/>
<path fill-rule="evenodd" clip-rule="evenodd" d="M30 56H26V60H30V56ZM26 54C24.8954 54 24 54.8954 24 56V60C24 61.1046 24.8954 62 26 62H30C31.1046 62 32 61.1046 32 60V56C32 54.8954 31.1046 54 30 54H26Z" fill="#2B59FF"/>
<path fill-rule="evenodd" clip-rule="evenodd" d="M36 74H32V78H36V74ZM32 72C30.8954 72 30 72.8954 30 74V78C30 79.1046 30.8954 80 32 80H36C37.1046 80 38 79.1046 38 78V74C38 72.8954 37.1046 72 36 72H32Z" fill="#2B59FF"/>
</svg>
