<svg width="200" height="100" viewBox="0 0 200 100" fill="none" xmlns="http://www.w3.org/2000/svg">
<path fill-rule="evenodd" clip-rule="evenodd" d="M173.376 68.2187C173.807 67.8742 174.436 67.9443 174.781 68.3753C175.126 68.8066 175.056 69.4359 174.625 69.7809L174 69C174.625 69.7809 174.625 69.7806 174.625 69.7809L174.616 69.7876L174.6 69.8001L174.547 69.8413C174.501 69.8759 174.436 69.9242 174.353 69.9842C174.185 70.1044 173.942 70.2718 173.628 70.4705C172.999 70.8678 172.081 71.3917 170.906 71.9138C168.557 72.9579 165.168 74 161 74C156.829 74 153.598 72.9563 151.401 71.9016C150.303 71.3747 149.463 70.8452 148.892 70.442C148.825 70.3946 148.761 70.3489 148.702 70.3052C148.656 70.342 148.607 70.3799 148.556 70.4189C148.015 70.8329 147.207 71.3699 146.099 71.9016C143.88 72.967 140.482 74 135.667 74C130.852 74 127.608 72.9669 125.537 71.8866C124.505 71.3478 123.772 70.8015 123.288 70.3765C123.274 70.3637 123.259 70.3509 123.245 70.3383C123.196 70.3735 123.144 70.4098 123.09 70.4472C122.506 70.8517 121.643 71.3814 120.502 71.908C118.218 72.9624 114.825 74 110.333 74C105.84 74 102.604 72.9616 100.469 71.8945C99.4047 71.3621 98.6193 70.8252 98.092 70.4125C98.0518 70.3811 98.0131 70.3503 97.9759 70.3203C97.9272 70.357 97.8761 70.3948 97.8226 70.4338C97.2603 70.8427 96.425 71.3758 95.3008 71.9049C93.0486 72.9647 89.6537 74 85 74C80.3457 74 77.1061 72.9643 75.0036 71.8906C73.9549 71.3551 73.1961 70.8138 72.6906 70.3954C72.6541 70.3652 72.6189 70.3357 72.585 70.3068C72.5145 70.3553 72.439 70.4063 72.3585 70.4594C71.7519 70.8601 70.8619 71.3867 69.7042 71.911C67.3873 72.9601 63.997 74 59.6667 74C55.334 74 52.101 72.9589 49.9351 71.8981C48.854 71.3686 48.0416 70.8356 47.4925 70.428C47.4285 70.3805 47.3681 70.3347 47.3112 70.2908C47.2425 70.3404 47.1688 70.3927 47.09 70.4472C46.5058 70.8517 45.6433 71.3814 44.5024 71.908C42.2178 72.9624 38.8255 74 34.3333 74C29.8397 74 26.6037 72.9616 24.4695 71.8945C23.4047 71.3621 22.6193 70.8252 22.092 70.4125C21.8285 70.2063 21.6294 70.0311 21.4922 69.903C21.4235 69.8389 21.3704 69.7866 21.3323 69.7481C21.3132 69.7288 21.2979 69.713 21.2864 69.7009L21.2718 69.6855L21.2667 69.6799L21.2646 69.6776C21.2642 69.6772 21.2629 69.6758 22 69L21.2629 69.6758C20.8897 69.2686 20.9172 68.6361 21.3243 68.2629C21.7302 67.8908 22.3603 67.917 22.7339 68.3208C22.7342 68.3211 22.7333 68.3202 22.7339 68.3208L22.7543 68.3418C22.7742 68.3619 22.8082 68.3955 22.8568 68.4409C22.9539 68.5315 23.1091 68.6688 23.3246 68.8375C23.7558 69.1749 24.4287 69.638 25.3639 70.1056C27.2296 71.0385 30.1603 72 34.3333 72C38.5079 72 41.6155 71.0376 43.6643 70.0921C44.6901 69.6186 45.4526 69.1483 45.9516 68.8028C46.2011 68.6301 46.3845 68.4887 46.5019 68.394C46.5605 68.3466 46.6026 68.3109 46.6282 68.2888L46.6541 68.2661C46.6543 68.2659 46.6555 68.2648 46.6557 68.2646C46.6554 68.2649 46.6551 68.2652 47.3333 69C48.0404 68.2929 48.0401 68.2926 48.0398 68.2923M48.0398 68.2923C47.6603 67.9144 47.0496 67.9017 46.6557 68.2646L48.0398 68.2923ZM48.0398 68.2923L48.0383 68.2908C48.0385 68.291 48.0381 68.2906 48.0398 68.2923L48.0633 68.3145C48.0862 68.336 48.1244 68.371 48.1781 68.4176C48.2853 68.511 48.4539 68.6509 48.6846 68.8221C49.1459 69.1645 49.8544 69.6315 50.8149 70.102C52.7323 71.0411 55.666 72 59.6667 72C63.6697 72 66.7794 71.0399 68.8792 70.0891C69.9297 69.6134 70.7273 69.14 71.2561 68.7906C71.5205 68.616 71.7173 68.4727 71.8447 68.3758C71.9084 68.3274 71.9547 68.2907 71.9833 68.2675L72.0129 68.2432L72.0159 68.2408C72.0161 68.2406 72.0157 68.241 72.0159 68.2408C72.0156 68.241 72.0159 68.2408 72.6667 69C73.4349 68.3599 73.4345 68.3594 73.4341 68.3589L73.4322 68.3566L73.4465 68.3726C73.4633 68.3911 73.4932 68.4232 73.5367 68.4669C73.6237 68.5545 73.7652 68.6887 73.9657 68.8546C74.3664 69.1862 75.0035 69.6449 75.9131 70.1094C77.7273 71.0358 80.6543 72 85 72C89.3463 72 92.4514 71.0354 94.4492 70.0952C95.4501 69.6242 96.1772 69.1574 96.6462 68.8163C96.8807 68.6457 97.0506 68.5067 97.1578 68.4143C97.2114 68.3681 97.2493 68.3336 97.2718 68.3128L97.2929 68.2929C97.2931 68.2927 97.2927 68.2932 97.2929 68.2929C97.2925 68.2933 97.2929 68.2929 98 69C98.727 68.3336 98.7367 68.324 98.7364 68.3235C98.7364 68.3235 98.7364 68.3235 98.7364 68.3235L98.7543 68.3418C98.7742 68.3619 98.8082 68.3955 98.8568 68.4409C98.9539 68.5315 99.1091 68.6688 99.3246 68.8375C99.7558 69.1749 100.429 69.638 101.364 70.1056C103.23 71.0385 106.16 72 110.333 72C114.508 72 117.616 71.0376 119.664 70.0921C120.69 69.6186 121.453 69.1483 121.952 68.8028C122.201 68.6301 122.385 68.4887 122.502 68.394C122.561 68.3466 122.603 68.3109 122.628 68.2888L122.654 68.2661L122.656 68.2646C122.864 68.0731 123.143 67.9785 123.424 68.0042C123.703 68.0296 123.958 68.1708 124.128 68.3932C124.13 68.3954 124.132 68.3977 124.133 68.4L123.333 69C124.133 68.4 124.134 68.4006 124.133 68.4L124.13 68.3961L124.128 68.3932L124.14 68.4073C124.153 68.424 124.179 68.4542 124.218 68.4962C124.295 68.5801 124.422 68.7109 124.608 68.8736C124.978 69.1985 125.579 69.6523 126.463 70.1135C128.225 71.0331 131.148 72 135.667 72C140.185 72 143.287 71.033 145.234 70.0985C146.21 69.6302 146.901 69.1671 147.34 68.8312C147.559 68.6631 147.716 68.5267 147.813 68.4371C147.861 68.3923 147.895 68.3593 147.914 68.3398L147.93 68.3234C148.11 68.128 148.36 68.012 148.625 68.0009C148.89 67.9899 149.148 68.0843 149.343 68.2635C149.343 68.2637 149.345 68.265 149.345 68.2652L149.373 68.2904C149.399 68.313 149.442 68.3491 149.501 68.397C149.618 68.4926 149.8 68.6347 150.045 68.8081C150.537 69.1549 151.28 69.6254 152.266 70.0985C154.235 71.0437 157.171 72 161 72C164.832 72 167.943 71.0422 170.094 70.0862C171.169 69.6084 172.001 69.1322 172.56 68.7795C172.839 68.6033 173.049 68.4582 173.186 68.3596C173.255 68.3103 173.305 68.2727 173.337 68.2486L173.37 68.223L173.376 68.2187C173.376 68.2186 173.376 68.2189 173.376 68.2187M98.7364 68.3235C98.7364 68.3235 98.7364 68.3235 98.7364 68.3235C98.7359 68.3229 98.7344 68.3213 98.7338 68.3207C98.5497 68.1218 98.2928 68.0062 98.0217 68.0003C97.7494 67.9944 97.4857 68.1005 97.2929 68.2929M73.4341 68.3589C73.2629 68.1547 73.0159 68.0258 72.7503 68.0035C72.484 67.9812 72.219 68.0671 72.0159 68.2408M73.4341 68.3589C73.4345 68.3594 73.4337 68.3584 73.4341 68.3589V68.3589Z" fill="#2B59FF"/>
<path fill-rule="evenodd" clip-rule="evenodd" d="M140.108 44C139.764 44 139.443 44.1776 139.26 44.47L135.435 50.59C134.887 51.4671 133.926 52 132.891 52H59.8284C59.0328 52 58.2697 51.6839 57.7071 51.1213L55.8787 49.2929C55.6912 49.1054 55.4368 49 55.1716 49H21.6545C20.8643 49 20.3863 49.8734 20.8123 50.5391L34.8423 72.461L33.1577 73.5391L19.1277 51.6172C17.8498 49.6203 19.2838 47 21.6545 47H55.1716C55.9672 47 56.7303 47.3161 57.2929 47.8787L59.1213 49.7071C59.3089 49.8946 59.5632 50 59.8284 50H132.891C133.236 50 133.557 49.8224 133.739 49.53L137.564 43.41C138.113 42.5329 139.074 42 140.108 42H178.468C180.799 42 182.24 44.5439 181.04 46.5435L164.857 73.5145L163.142 72.4855L179.325 45.5145C179.725 44.848 179.245 44 178.468 44H140.108Z" fill="#2B59FF"/>
<path fill-rule="evenodd" clip-rule="evenodd" d="M167.824 32H163.824V36H167.824V32ZM163.824 30C162.719 30 161.824 30.8954 161.824 32V36C161.824 37.1046 162.719 38 163.824 38H167.824C168.929 38 169.824 37.1046 169.824 36V32C169.824 30.8954 168.929 30 167.824 30H163.824Z" fill="#2B59FF"/>
<path fill-rule="evenodd" clip-rule="evenodd" d="M161.824 38H157.824V42H161.824V38ZM157.824 36C156.719 36 155.824 36.8954 155.824 38V42C155.824 43.1046 156.719 44 157.824 44H161.824C162.929 44 163.824 43.1046 163.824 42V38C163.824 36.8954 162.929 36 161.824 36H157.824Z" fill="#2B59FF"/>
<path fill-rule="evenodd" clip-rule="evenodd" d="M155.824 38H151.824V42H155.824V38ZM151.824 36C150.719 36 149.824 36.8954 149.824 38V42C149.824 43.1046 150.719 44 151.824 44H155.824C156.929 44 157.824 43.1046 157.824 42V38C157.824 36.8954 156.929 36 155.824 36H151.824Z" fill="#2B59FF"/>
<path fill-rule="evenodd" clip-rule="evenodd" d="M149.824 38H145.824V42H149.824V38ZM145.824 36C144.719 36 143.824 36.8954 143.824 38V42C143.824 43.1046 144.719 44 145.824 44H149.824C150.929 44 151.824 43.1046 151.824 42V38C151.824 36.8954 150.929 36 149.824 36H145.824Z" fill="#2B59FF"/>
<path fill-rule="evenodd" clip-rule="evenodd" d="M161.824 32H157.824V36H161.824V32ZM157.824 30C156.719 30 155.824 30.8954 155.824 32V36C155.824 37.1046 156.719 38 157.824 38H161.824C162.929 38 163.824 37.1046 163.824 36V32C163.824 30.8954 162.929 30 161.824 30H157.824Z" fill="#2B59FF"/>
<path fill-rule="evenodd" clip-rule="evenodd" d="M155.824 32H151.824V36H155.824V32ZM151.824 30C150.719 30 149.824 30.8954 149.824 32V36C149.824 37.1046 150.719 38 151.824 38H155.824C156.929 38 157.824 37.1046 157.824 36V32C157.824 30.8954 156.929 30 155.824 30H151.824Z" fill="#2B59FF"/>
<path fill-rule="evenodd" clip-rule="evenodd" d="M167.824 38H163.824V42H167.824V38ZM163.824 36C162.719 36 161.824 36.8954 161.824 38V42C161.824 43.1046 162.719 44 163.824 44H167.824C168.929 44 169.824 43.1046 169.824 42V38C169.824 36.8954 168.929 36 167.824 36H163.824Z" fill="#2B59FF"/>
<path fill-rule="evenodd" clip-rule="evenodd" d="M173.824 38H169.824V42H173.824V38ZM169.824 36C168.719 36 167.824 36.8954 167.824 38V42C167.824 43.1046 168.719 44 169.824 44H173.824C174.929 44 175.824 43.1046 175.824 42V38C175.824 36.8954 174.929 36 173.824 36H169.824Z" fill="#2B59FF"/>
<path fill-rule="evenodd" clip-rule="evenodd" d="M49.824 37H45.824V41H49.824V37ZM45.824 35C44.7194 35 43.824 35.8954 43.824 37V41C43.824 42.1046 44.7194 43 45.824 43H49.824C50.9285 43 51.824 42.1046 51.824 41V37C51.824 35.8954 50.9285 35 49.824 35H45.824Z" fill="#2B59FF"/>
<path fill-rule="evenodd" clip-rule="evenodd" d="M43.824 43H39.824V47H43.824V43ZM39.824 41C38.7194 41 37.824 41.8954 37.824 43V47C37.824 48.1046 38.7194 49 39.824 49H43.824C44.9285 49 45.824 48.1046 45.824 47V43C45.824 41.8954 44.9285 41 43.824 41H39.824Z" fill="#2B59FF"/>
<path fill-rule="evenodd" clip-rule="evenodd" d="M37.824 43H33.824V47H37.824V43ZM33.824 41C32.7194 41 31.824 41.8954 31.824 43V47C31.824 48.1046 32.7194 49 33.824 49H37.824C38.9285 49 39.824 48.1046 39.824 47V43C39.824 41.8954 38.9285 41 37.824 41H33.824Z" fill="#2B59FF"/>
<path fill-rule="evenodd" clip-rule="evenodd" d="M31.824 43H27.824V47H31.824V43ZM27.824 41C26.7194 41 25.824 41.8954 25.824 43V47C25.824 48.1046 26.7194 49 27.824 49H31.824C32.9285 49 33.824 48.1046 33.824 47V43C33.824 41.8954 32.9285 41 31.824 41H27.824Z" fill="#2B59FF"/>
<path fill-rule="evenodd" clip-rule="evenodd" d="M43.824 37H39.824V41H43.824V37ZM39.824 35C38.7194 35 37.824 35.8954 37.824 37V41C37.824 42.1046 38.7194 43 39.824 43H43.824C44.9285 43 45.824 42.1046 45.824 41V37C45.824 35.8954 44.9285 35 43.824 35H39.824Z" fill="#2B59FF"/>
<path fill-rule="evenodd" clip-rule="evenodd" d="M37.824 37H33.824V41H37.824V37ZM33.824 35C32.7194 35 31.824 35.8954 31.824 37V41C31.824 42.1046 32.7194 43 33.824 43H37.824C38.9285 43 39.824 42.1046 39.824 41V37C39.824 35.8954 38.9285 35 37.824 35H33.824Z" fill="#2B59FF"/>
<path fill-rule="evenodd" clip-rule="evenodd" d="M49.824 43H45.824V47H49.824V43ZM45.824 41C44.7194 41 43.824 41.8954 43.824 43V47C43.824 48.1046 44.7194 49 45.824 49H49.824C50.9285 49 51.824 48.1046 51.824 47V43C51.824 41.8954 50.9285 41 49.824 41H45.824Z" fill="#2B59FF"/>
<path fill-rule="evenodd" clip-rule="evenodd" d="M109.824 40H105.824V44H109.824V40ZM105.824 38C104.719 38 103.824 38.8954 103.824 40V44C103.824 45.1046 104.719 46 105.824 46H109.824C110.929 46 111.824 45.1046 111.824 44V40C111.824 38.8954 110.929 38 109.824 38H105.824Z" fill="#2B59FF"/>
<path fill-rule="evenodd" clip-rule="evenodd" d="M109.824 34H105.824V38H109.824V34ZM105.824 32C104.719 32 103.824 32.8954 103.824 34V38C103.824 39.1046 104.719 40 105.824 40H109.824C110.929 40 111.824 39.1046 111.824 38V34C111.824 32.8954 110.929 32 109.824 32H105.824Z" fill="#2B59FF"/>
<path fill-rule="evenodd" clip-rule="evenodd" d="M109.824 28H105.824V32H109.824V28ZM105.824 26C104.719 26 103.824 26.8954 103.824 28V32C103.824 33.1046 104.719 34 105.824 34H109.824C110.929 34 111.824 33.1046 111.824 32V28C111.824 26.8954 110.929 26 109.824 26H105.824Z" fill="#2B59FF"/>
<path fill-rule="evenodd" clip-rule="evenodd" d="M121.824 46H117.824V50H121.824V46ZM117.824 44C116.719 44 115.824 44.8954 115.824 46V50C115.824 51.1046 116.719 52 117.824 52H121.824C122.929 52 123.824 51.1046 123.824 50V46C123.824 44.8954 122.929 44 121.824 44H117.824Z" fill="#2B59FF"/>
<path fill-rule="evenodd" clip-rule="evenodd" d="M115.824 46H111.824V50H115.824V46ZM111.824 44C110.719 44 109.824 44.8954 109.824 46V50C109.824 51.1046 110.719 52 111.824 52H115.824C116.929 52 117.824 51.1046 117.824 50V46C117.824 44.8954 116.929 44 115.824 44H111.824Z" fill="#2B59FF"/>
<path fill-rule="evenodd" clip-rule="evenodd" d="M109.824 46H105.824V50H109.824V46ZM105.824 44C104.719 44 103.824 44.8954 103.824 46V50C103.824 51.1046 104.719 52 105.824 52H109.824C110.929 52 111.824 51.1046 111.824 50V46C111.824 44.8954 110.929 44 109.824 44H105.824Z" fill="#2B59FF"/>
<path fill-rule="evenodd" clip-rule="evenodd" d="M121.824 40H117.824V44H121.824V40ZM117.824 38C116.719 38 115.824 38.8954 115.824 40V44C115.824 45.1046 116.719 46 117.824 46H121.824C122.929 46 123.824 45.1046 123.824 44V40C123.824 38.8954 122.929 38 121.824 38H117.824Z" fill="#2B59FF"/>
<path fill-rule="evenodd" clip-rule="evenodd" d="M115.824 40H111.824V44H115.824V40ZM111.824 38C110.719 38 109.824 38.8954 109.824 40V44C109.824 45.1046 110.719 46 111.824 46H115.824C116.929 46 117.824 45.1046 117.824 44V40C117.824 38.8954 116.929 38 115.824 38H111.824Z" fill="#2B59FF"/>
<path fill-rule="evenodd" clip-rule="evenodd" d="M115.824 34H111.824V38H115.824V34ZM111.824 32C110.719 32 109.824 32.8954 109.824 34V38C109.824 39.1046 110.719 40 111.824 40H115.824C116.929 40 117.824 39.1046 117.824 38V34C117.824 32.8954 116.929 32 115.824 32H111.824Z" fill="#2B59FF"/>
<path fill-rule="evenodd" clip-rule="evenodd" d="M127.824 46H123.824V50H127.824V46ZM123.824 44C122.719 44 121.824 44.8954 121.824 46V50C121.824 51.1046 122.719 52 123.824 52H127.824C128.929 52 129.824 51.1046 129.824 50V46C129.824 44.8954 128.929 44 127.824 44H123.824Z" fill="#2B59FF"/>
<path fill-rule="evenodd" clip-rule="evenodd" d="M77.824 40H73.824V44H77.824V40ZM73.824 38C72.7194 38 71.824 38.8954 71.824 40V44C71.824 45.1046 72.7194 46 73.824 46H77.824C78.9286 46 79.824 45.1046 79.824 44V40C79.824 38.8954 78.9286 38 77.824 38H73.824Z" fill="#2B59FF"/>
<path fill-rule="evenodd" clip-rule="evenodd" d="M71.824 40H67.824V44H71.824V40ZM67.824 38C66.7194 38 65.824 38.8954 65.824 40V44C65.824 45.1046 66.7194 46 67.824 46H71.824C72.9286 46 73.824 45.1046 73.824 44V40C73.824 38.8954 72.9286 38 71.824 38H67.824Z" fill="#2B59FF"/>
<path fill-rule="evenodd" clip-rule="evenodd" d="M89.824 34H85.824V38H89.824V34ZM85.824 32C84.7194 32 83.824 32.8954 83.824 34V38C83.824 39.1046 84.7194 40 85.824 40H89.824C90.9285 40 91.824 39.1046 91.824 38V34C91.824 32.8954 90.9285 32 89.824 32H85.824Z" fill="#2B59FF"/>
<path fill-rule="evenodd" clip-rule="evenodd" d="M83.824 34H79.824V38H83.824V34ZM79.824 32C78.7194 32 77.824 32.8954 77.824 34V38C77.824 39.1046 78.7194 40 79.824 40H83.824C84.9286 40 85.824 39.1046 85.824 38V34C85.824 32.8954 84.9286 32 83.824 32H79.824Z" fill="#2B59FF"/>
<path fill-rule="evenodd" clip-rule="evenodd" d="M77.824 34H73.824V38H77.824V34ZM73.824 32C72.7194 32 71.824 32.8954 71.824 34V38C71.824 39.1046 72.7194 40 73.824 40H77.824C78.9286 40 79.824 39.1046 79.824 38V34C79.824 32.8954 78.9286 32 77.824 32H73.824Z" fill="#2B59FF"/>
<path fill-rule="evenodd" clip-rule="evenodd" d="M89.824 46H85.824V50H89.824V46ZM85.824 44C84.7194 44 83.824 44.8954 83.824 46V50C83.824 51.1046 84.7194 52 85.824 52H89.824C90.9285 52 91.824 51.1046 91.824 50V46C91.824 44.8954 90.9285 44 89.824 44H85.824Z" fill="#2B59FF"/>
<path fill-rule="evenodd" clip-rule="evenodd" d="M83.824 46H79.824V50H83.824V46ZM79.824 44C78.7194 44 77.824 44.8954 77.824 46V50C77.824 51.1046 78.7194 52 79.824 52H83.824C84.9286 52 85.824 51.1046 85.824 50V46C85.824 44.8954 84.9286 44 83.824 44H79.824Z" fill="#2B59FF"/>
<path fill-rule="evenodd" clip-rule="evenodd" d="M77.824 46H73.824V50H77.824V46ZM73.824 44C72.7194 44 71.824 44.8954 71.824 46V50C71.824 51.1046 72.7194 52 73.824 52H77.824C78.9286 52 79.824 51.1046 79.824 50V46C79.824 44.8954 78.9286 44 77.824 44H73.824Z" fill="#2B59FF"/>
<path fill-rule="evenodd" clip-rule="evenodd" d="M71.824 46H67.824V50H71.824V46ZM67.824 44C66.7194 44 65.824 44.8954 65.824 46V50C65.824 51.1046 66.7194 52 67.824 52H71.824C72.9286 52 73.824 51.1046 73.824 50V46C73.824 44.8954 72.9286 44 71.824 44H67.824Z" fill="#2B59FF"/>
<path fill-rule="evenodd" clip-rule="evenodd" d="M89.824 40H85.824V44H89.824V40ZM85.824 38C84.7194 38 83.824 38.8954 83.824 40V44C83.824 45.1046 84.7194 46 85.824 46H89.824C90.9285 46 91.824 45.1046 91.824 44V40C91.824 38.8954 90.9285 38 89.824 38H85.824Z" fill="#2B59FF"/>
<path fill-rule="evenodd" clip-rule="evenodd" d="M83.824 40H79.824V44H83.824V40ZM79.824 38C78.7194 38 77.824 38.8954 77.824 40V44C77.824 45.1046 78.7194 46 79.824 46H83.824C84.9286 46 85.824 45.1046 85.824 44V40C85.824 38.8954 84.9286 38 83.824 38H79.824Z" fill="#2B59FF"/>
<path fill-rule="evenodd" clip-rule="evenodd" d="M95.824 40H91.824V44H95.824V40ZM91.824 38C90.7194 38 89.824 38.8954 89.824 40V44C89.824 45.1046 90.7194 46 91.824 46H95.824C96.9286 46 97.824 45.1046 97.824 44V40C97.824 38.8954 96.9286 38 95.824 38H91.824Z" fill="#2B59FF"/>
<path fill-rule="evenodd" clip-rule="evenodd" d="M95.824 46H91.824V50H95.824V46ZM91.824 44C90.7194 44 89.824 44.8954 89.824 46V50C89.824 51.1046 90.7194 52 91.824 52H95.824C96.9286 52 97.824 51.1046 97.824 50V46C97.824 44.8954 96.9286 44 95.824 44H91.824Z" fill="#2B59FF"/>
</svg>
