<svg width="53" height="41" viewBox="0 0 53 41" fill="none" xmlns="http://www.w3.org/2000/svg">
<path d="M0.6 26.12C0.6 35.22 6.48 40.4 13.06 40.4C19.08 40.4 24.12 35.36 24.12 29.34C24.12 23.32 19.92 19.26 14.6 19.26C13.48 19.26 12.22 19.4 11.8 19.68C13.06 14.64 18.24 8.75999 22.72 6.38L15.02 0.219994C6.34 6.24 0.6 15.62 0.6 26.12ZM29.16 26.12C29.16 35.22 34.9 40.4 41.48 40.4C47.64 40.4 52.54 35.36 52.54 29.34C52.54 23.32 48.34 19.26 43.16 19.26C42.04 19.26 40.78 19.4 40.36 19.68C41.48 14.64 46.8 8.75999 51.28 6.38L43.44 0.219994C34.76 6.24 29.16 15.62 29.16 26.12Z" fill="#1C3FD6"/>
</svg>
