<svg width="25" height="25" viewBox="0 0 25 25" fill="none" xmlns="http://www.w3.org/2000/svg">
<circle cx="13.5698" cy="13.5698" r="8.06982" fill="white"/>
<path d="M12.6396 2.95349C10.6618 2.95349 8.72843 3.53998 7.08394 4.6388C5.43945 5.73761 4.15773 7.2994 3.40085 9.12666C2.64397 10.9539 2.44594 12.9646 2.83179 14.9044C3.21764 16.8442 4.17005 18.626 5.56858 20.0246C6.9671 21.4231 8.74893 22.3755 10.6887 22.7613C12.6286 23.1472 14.6392 22.9492 16.4665 22.1923C18.2937 21.4354 19.8555 20.1537 20.9543 18.5092C22.0532 16.8647 22.6396 14.9313 22.6396 12.9535C22.6396 11.6403 22.381 10.3399 21.8784 9.12666C21.3759 7.9134 20.6393 6.81101 19.7107 5.88242C18.7821 4.95384 17.6797 4.21724 16.4665 3.7147C15.2532 3.21215 13.9529 2.95349 12.6396 2.95349ZM17.3496 10.6635L12.3496 15.6635C12.2567 15.7572 12.1461 15.8316 12.0242 15.8824C11.9024 15.9332 11.7717 15.9593 11.6396 15.9593C11.5076 15.9593 11.3769 15.9332 11.2551 15.8824C11.1332 15.8316 11.0226 15.7572 10.9296 15.6635L8.92965 13.6635C8.74134 13.4752 8.63555 13.2198 8.63555 12.9535C8.63555 12.6872 8.74134 12.4318 8.92965 12.2435C9.11795 12.0552 9.37334 11.9494 9.63965 11.9494C9.90595 11.9494 10.1613 12.0552 10.3496 12.2435L11.6396 13.5435L15.9296 9.24349C16.1179 9.05519 16.3733 8.9494 16.6396 8.9494C16.9059 8.9494 17.1613 9.05519 17.3496 9.24349C17.5379 9.43179 17.6437 9.68719 17.6437 9.95349C17.6437 10.2198 17.5379 10.4752 17.3496 10.6635Z" fill="#14D478"/>
</svg>
