<svg width="329" height="294" viewBox="0 0 329 294" fill="none" xmlns="http://www.w3.org/2000/svg">
<path d="M167.371 290.052C91.0725 316.157 -64.6453 167.086 30.7895 88.8992C58.739 66.0059 108.902 76.9935 143.019 79.912C207.804 85.455 325.257 92.628 328.934 167.73C330.778 205.501 293.733 222.486 257.667 234.304C240.914 239.795 224.041 246.409 211.825 257.957C198.039 270.992 187.432 283.183 167.375 290.043C146.398 297.229 182.277 284.954 167.371 290.052Z" fill="#1C3FD6"/>
<g opacity="0.99">
<path d="M130.031 86.6133C130.996 86.6133 131.823 86.0223 132.17 85.1812C130.85 85.3219 129.534 85.4914 128.233 85.6964C128.657 86.2404 129.29 86.6133 130.031 86.6133Z" fill="white"/>
<path d="M140.915 86.6132C142.027 86.6132 142.914 85.814 143.138 84.7695C142.375 84.7481 141.614 84.7119 140.848 84.7119C140.127 84.7119 139.411 84.7473 138.694 84.7654C138.917 85.8132 139.803 86.6132 140.915 86.6132Z" fill="white"/>
<path d="M99.6859 95.9707C98.5814 96.6259 97.4958 97.3057 96.4258 98.0094C96.7204 98.1436 97.039 98.2275 97.3797 98.2275C98.6398 98.2267 99.653 97.2209 99.6859 95.9707Z" fill="white"/>
<path d="M108.265 98.2261C109.545 98.2261 110.582 97.1888 110.582 95.9092C110.582 94.6296 109.545 93.5923 108.265 93.5923C106.986 93.5923 105.948 94.6296 105.948 95.9092C105.948 97.1888 106.986 98.2261 108.265 98.2261Z" fill="white"/>
<path d="M119.149 98.2261C120.428 98.2261 121.466 97.1888 121.466 95.9092C121.466 94.6296 120.428 93.5923 119.149 93.5923C117.869 93.5923 116.832 94.6296 116.832 95.9092C116.832 97.1888 117.869 98.2261 119.149 98.2261Z" fill="white"/>
<path d="M130.031 98.2261C131.311 98.2261 132.348 97.1888 132.348 95.9092C132.348 94.6296 131.311 93.5923 130.031 93.5923C128.751 93.5923 127.714 94.6296 127.714 95.9092C127.714 97.1888 128.751 98.2261 130.031 98.2261Z" fill="white"/>
<path d="M140.915 98.2261C142.195 98.2261 143.232 97.1888 143.232 95.9092C143.232 94.6296 142.195 93.5923 140.915 93.5923C139.636 93.5923 138.598 94.6296 138.598 95.9092C138.598 97.1888 139.636 98.2261 140.915 98.2261Z" fill="white"/>
<path d="M86.4965 109.841C87.7772 109.841 88.8134 108.804 88.8134 107.525C88.8134 106.404 88.0044 105.514 86.9484 105.297C86.0274 106.122 85.127 106.969 84.2422 107.835C84.401 108.96 85.3262 109.841 86.4965 109.841Z" fill="white"/>
<path d="M97.3791 105.206C96.1017 105.206 95.063 106.243 95.063 107.525C95.063 108.804 96.1017 109.841 97.3791 109.841C98.6605 109.841 99.7001 108.804 99.7001 107.525C99.7001 106.243 98.6605 105.206 97.3791 105.206Z" fill="white"/>
<path d="M108.265 109.841C109.545 109.841 110.583 108.803 110.583 107.523C110.583 106.243 109.545 105.205 108.265 105.205C106.985 105.205 105.948 106.243 105.948 107.523C105.948 108.803 106.985 109.841 108.265 109.841Z" fill="white"/>
<path d="M119.149 109.841C120.429 109.841 121.466 108.803 121.466 107.523C121.466 106.243 120.429 105.205 119.149 105.205C117.869 105.205 116.831 106.243 116.831 107.523C116.831 108.803 117.869 109.841 119.149 109.841Z" fill="white"/>
<path d="M130.031 109.841C131.311 109.841 132.349 108.803 132.349 107.523C132.349 106.243 131.311 105.205 130.031 105.205C128.751 105.205 127.713 106.243 127.713 107.523C127.713 108.803 128.751 109.841 130.031 109.841Z" fill="white"/>
<path d="M140.915 109.841C142.195 109.841 143.233 108.803 143.233 107.523C143.233 106.243 142.195 105.205 140.915 105.205C139.635 105.205 138.597 106.243 138.597 107.523C138.597 108.803 139.635 109.841 140.915 109.841Z" fill="white"/>
<path d="M75.6132 121.454C76.8939 121.454 77.9301 120.416 77.9301 119.137C77.9301 118.074 77.2017 117.217 76.2264 116.943C75.3696 118.081 74.535 119.238 73.7358 120.422C74.1531 121.03 74.8198 121.454 75.6132 121.454Z" fill="white"/>
<path d="M86.4964 121.455C87.7765 121.455 88.8141 120.417 88.8141 119.137C88.8141 117.857 87.7765 116.819 86.4964 116.819C85.2164 116.819 84.1787 117.857 84.1787 119.137C84.1787 120.417 85.2164 121.455 86.4964 121.455Z" fill="white"/>
<path d="M97.3791 116.819C96.1017 116.819 95.063 117.857 95.063 119.137C95.063 120.417 96.1017 121.454 97.3791 121.454C98.6605 121.454 99.7001 120.416 99.7001 119.137C99.7001 117.858 98.6605 116.819 97.3791 116.819Z" fill="white"/>
<path d="M108.265 121.455C109.545 121.455 110.583 120.417 110.583 119.137C110.583 117.857 109.545 116.819 108.265 116.819C106.985 116.819 105.948 117.857 105.948 119.137C105.948 120.417 106.985 121.455 108.265 121.455Z" fill="white"/>
<path d="M119.149 121.455C120.429 121.455 121.466 120.417 121.466 119.137C121.466 117.857 120.429 116.819 119.149 116.819C117.869 116.819 116.831 117.857 116.831 119.137C116.831 120.417 117.869 121.455 119.149 121.455Z" fill="white"/>
<path d="M130.031 121.455C131.311 121.455 132.349 120.417 132.349 119.137C132.349 117.857 131.311 116.819 130.031 116.819C128.751 116.819 127.713 117.857 127.713 119.137C127.713 120.417 128.751 121.455 130.031 121.455Z" fill="white"/>
<path d="M140.915 121.455C142.195 121.455 143.233 120.417 143.233 119.137C143.233 117.857 142.195 116.819 140.915 116.819C139.635 116.819 138.597 117.857 138.597 119.137C138.597 120.417 139.635 121.455 140.915 121.455Z" fill="white"/>
<path d="M75.6134 133.068C76.8934 133.068 77.9311 132.03 77.9311 130.75C77.9311 129.47 76.8934 128.433 75.6134 128.433C74.3333 128.433 73.2957 129.47 73.2957 130.75C73.2957 132.03 74.3333 133.068 75.6134 133.068Z" fill="white"/>
<path d="M86.4964 133.068C87.7765 133.068 88.8141 132.03 88.8141 130.75C88.8141 129.47 87.7765 128.433 86.4964 128.433C85.2164 128.433 84.1787 129.47 84.1787 130.75C84.1787 132.03 85.2164 133.068 86.4964 133.068Z" fill="white"/>
<path d="M97.3791 128.433C96.1017 128.433 95.063 129.47 95.063 130.75C95.063 132.031 96.1017 133.067 97.3791 133.067C98.6605 133.067 99.7001 132.03 99.7001 130.75C99.7001 129.47 98.6605 128.433 97.3791 128.433Z" fill="white"/>
<path d="M108.265 133.068C109.545 133.068 110.583 132.03 110.583 130.75C110.583 129.47 109.545 128.433 108.265 128.433C106.985 128.433 105.948 129.47 105.948 130.75C105.948 132.03 106.985 133.068 108.265 133.068Z" fill="white"/>
<path d="M119.149 133.068C120.429 133.068 121.466 132.03 121.466 130.75C121.466 129.47 120.429 128.433 119.149 128.433C117.869 128.433 116.831 129.47 116.831 130.75C116.831 132.03 117.869 133.068 119.149 133.068Z" fill="white"/>
<path d="M130.031 133.068C131.311 133.068 132.349 132.03 132.349 130.75C132.349 129.47 131.311 128.433 130.031 128.433C128.751 128.433 127.713 129.47 127.713 130.75C127.713 132.03 128.751 133.068 130.031 133.068Z" fill="white"/>
<path d="M140.915 133.068C142.195 133.068 143.233 132.03 143.233 130.75C143.233 129.47 142.195 128.433 140.915 128.433C139.635 128.433 138.597 129.47 138.597 130.75C138.597 132.03 139.635 133.068 140.915 133.068Z" fill="white"/>
<path d="M64.7301 144.681C66.0075 144.681 67.0478 143.644 67.0478 142.364C67.0478 141.084 66.0075 140.047 64.7301 140.047C64.4881 140.047 64.2651 140.116 64.0461 140.185C63.6511 141.377 63.2856 142.578 62.9465 143.791C63.3737 144.321 63.9959 144.681 64.7301 144.681Z" fill="white"/>
<path d="M75.6133 144.681C76.8929 144.681 77.9302 143.643 77.9302 142.364C77.9302 141.084 76.8929 140.047 75.6133 140.047C74.3337 140.047 73.2964 141.084 73.2964 142.364C73.2964 143.643 74.3337 144.681 75.6133 144.681Z" fill="white"/>
<path d="M86.4966 144.681C87.7762 144.681 88.8135 143.643 88.8135 142.364C88.8135 141.084 87.7762 140.047 86.4966 140.047C85.217 140.047 84.1797 141.084 84.1797 142.364C84.1797 143.643 85.217 144.681 86.4966 144.681Z" fill="white"/>
<path d="M97.3791 140.047C96.1017 140.047 95.063 141.085 95.063 142.364C95.063 143.643 96.1017 144.681 97.3791 144.681C98.6605 144.681 99.7001 143.644 99.7001 142.364C99.7001 141.084 98.6605 140.047 97.3791 140.047Z" fill="white"/>
<path d="M108.265 144.681C109.545 144.681 110.582 143.643 110.582 142.364C110.582 141.084 109.545 140.047 108.265 140.047C106.986 140.047 105.948 141.084 105.948 142.364C105.948 143.643 106.986 144.681 108.265 144.681Z" fill="white"/>
<path d="M119.149 144.681C120.428 144.681 121.466 143.643 121.466 142.364C121.466 141.084 120.428 140.047 119.149 140.047C117.869 140.047 116.832 141.084 116.832 142.364C116.832 143.643 117.869 144.681 119.149 144.681Z" fill="white"/>
<path d="M130.031 144.681C131.311 144.681 132.348 143.643 132.348 142.364C132.348 141.084 131.311 140.047 130.031 140.047C128.751 140.047 127.714 141.084 127.714 142.364C127.714 143.643 128.751 144.681 130.031 144.681Z" fill="white"/>
<path d="M140.915 144.681C142.195 144.681 143.232 143.643 143.232 142.364C143.232 141.084 142.195 140.047 140.915 140.047C139.636 140.047 138.598 141.084 138.598 142.364C138.598 143.643 139.636 144.681 140.915 144.681Z" fill="white"/>
<path d="M64.7301 156.296C66.0101 156.296 67.0478 155.258 67.0478 153.978C67.0478 152.698 66.0101 151.66 64.7301 151.66C63.45 151.66 62.4124 152.698 62.4124 153.978C62.4124 155.258 63.45 156.296 64.7301 156.296Z" fill="white"/>
<path d="M75.6134 156.296C76.8934 156.296 77.9311 155.258 77.9311 153.978C77.9311 152.698 76.8934 151.66 75.6134 151.66C74.3333 151.66 73.2957 152.698 73.2957 153.978C73.2957 155.258 74.3333 156.296 75.6134 156.296Z" fill="white"/>
<path d="M86.4964 156.296C87.7765 156.296 88.8141 155.258 88.8141 153.978C88.8141 152.698 87.7765 151.66 86.4964 151.66C85.2164 151.66 84.1787 152.698 84.1787 153.978C84.1787 155.258 85.2164 156.296 86.4964 156.296Z" fill="white"/>
<path d="M97.3791 151.66C96.1017 151.66 95.063 152.698 95.063 153.979C95.063 155.258 96.1017 156.296 97.3791 156.296C98.6605 156.296 99.7001 155.258 99.7001 153.979C99.7001 152.697 98.6605 151.66 97.3791 151.66Z" fill="white"/>
<path d="M108.265 156.296C109.545 156.296 110.583 155.258 110.583 153.978C110.583 152.698 109.545 151.66 108.265 151.66C106.985 151.66 105.948 152.698 105.948 153.978C105.948 155.258 106.985 156.296 108.265 156.296Z" fill="white"/>
<path d="M119.149 156.296C120.429 156.296 121.466 155.258 121.466 153.978C121.466 152.698 120.429 151.66 119.149 151.66C117.869 151.66 116.831 152.698 116.831 153.978C116.831 155.258 117.869 156.296 119.149 156.296Z" fill="white"/>
<path d="M130.031 156.296C131.311 156.296 132.349 155.258 132.349 153.978C132.349 152.698 131.311 151.66 130.031 151.66C128.751 151.66 127.713 152.698 127.713 153.978C127.713 155.258 128.751 156.296 130.031 156.296Z" fill="white"/>
<path d="M140.915 156.296C142.195 156.296 143.233 155.258 143.233 153.978C143.233 152.698 142.195 151.66 140.915 151.66C139.635 151.66 138.597 152.698 138.597 153.978C138.597 155.258 139.635 156.296 140.915 156.296Z" fill="white"/>
<path d="M64.73 167.908C66.0096 167.908 67.0469 166.87 67.0469 165.591C67.0469 164.311 66.0096 163.274 64.73 163.274C63.4504 163.274 62.4131 164.311 62.4131 165.591C62.4131 166.87 63.4504 167.908 64.73 167.908Z" fill="white"/>
<path d="M75.6133 167.908C76.8929 167.908 77.9302 166.87 77.9302 165.591C77.9302 164.311 76.8929 163.274 75.6133 163.274C74.3337 163.274 73.2964 164.311 73.2964 165.591C73.2964 166.87 74.3337 167.908 75.6133 167.908Z" fill="white"/>
<path d="M86.4966 167.908C87.7762 167.908 88.8135 166.87 88.8135 165.591C88.8135 164.311 87.7762 163.274 86.4966 163.274C85.217 163.274 84.1797 164.311 84.1797 165.591C84.1797 166.87 85.217 167.908 86.4966 167.908Z" fill="white"/>
<path d="M97.3791 163.274C96.1017 163.274 95.063 164.312 95.063 165.592C95.063 166.871 96.1017 167.908 97.3791 167.908C98.6605 167.908 99.7001 166.871 99.7001 165.592C99.7001 164.312 98.6605 163.274 97.3791 163.274Z" fill="white"/>
<path d="M108.265 167.908C109.545 167.908 110.582 166.87 110.582 165.591C110.582 164.311 109.545 163.274 108.265 163.274C106.986 163.274 105.948 164.311 105.948 165.591C105.948 166.87 106.986 167.908 108.265 167.908Z" fill="white"/>
<path d="M119.149 167.908C120.428 167.908 121.466 166.87 121.466 165.591C121.466 164.311 120.428 163.274 119.149 163.274C117.869 163.274 116.832 164.311 116.832 165.591C116.832 166.87 117.869 167.908 119.149 167.908Z" fill="white"/>
<path d="M130.031 167.908C131.311 167.908 132.348 166.87 132.348 165.591C132.348 164.311 131.311 163.274 130.031 163.274C128.751 163.274 127.714 164.311 127.714 165.591C127.714 166.87 128.751 167.908 130.031 167.908Z" fill="white"/>
<path d="M140.915 167.908C142.195 167.908 143.232 166.87 143.232 165.591C143.232 164.311 142.195 163.274 140.915 163.274C139.636 163.274 138.598 164.311 138.598 165.591C138.598 166.87 139.636 167.908 140.915 167.908Z" fill="white"/>
<path d="M151.664 86.6129C152.406 86.6129 153.037 86.2393 153.461 85.6969C152.16 85.4911 150.847 85.3216 149.523 85.1816C149.873 86.022 150.696 86.6129 151.664 86.6129Z" fill="white"/>
<path d="M151.664 93.5918C150.384 93.5918 149.344 94.6297 149.344 95.9095C149.344 97.1894 150.384 98.2264 151.664 98.2264C152.943 98.2264 153.982 97.1894 153.982 95.9095C153.982 94.6297 152.942 93.5918 151.664 93.5918Z" fill="white"/>
<path d="M162.547 98.2261C163.827 98.2261 164.864 97.1888 164.864 95.9092C164.864 94.6296 163.827 93.5923 162.547 93.5923C161.268 93.5923 160.23 94.6296 160.23 95.9092C160.23 97.1888 161.268 98.2261 162.547 98.2261Z" fill="white"/>
<path d="M173.43 98.2261C174.71 98.2261 175.747 97.1888 175.747 95.9092C175.747 94.6296 174.71 93.5923 173.43 93.5923C172.15 93.5923 171.113 94.6296 171.113 95.9092C171.113 97.1888 172.15 98.2261 173.43 98.2261Z" fill="white"/>
<path d="M184.313 98.2265C184.657 98.2265 184.976 98.1426 185.268 98.0084C184.2 97.3047 183.114 96.6257 182.009 95.9697C182.043 97.2208 183.056 98.2265 184.313 98.2265Z" fill="white"/>
<path d="M151.664 105.206C150.384 105.206 149.344 106.243 149.344 107.525C149.344 108.804 150.384 109.841 151.664 109.841C152.943 109.841 153.982 108.804 153.982 107.525C153.982 106.243 152.942 105.206 151.664 105.206Z" fill="white"/>
<path d="M162.547 109.841C163.827 109.841 164.865 108.803 164.865 107.523C164.865 106.243 163.827 105.205 162.547 105.205C161.267 105.205 160.23 106.243 160.23 107.523C160.23 108.803 161.267 109.841 162.547 109.841Z" fill="white"/>
<path d="M173.43 109.841C174.71 109.841 175.748 108.803 175.748 107.523C175.748 106.243 174.71 105.205 173.43 105.205C172.15 105.205 171.112 106.243 171.112 107.523C171.112 108.803 172.15 109.841 173.43 109.841Z" fill="white"/>
<path d="M184.313 109.841C185.593 109.841 186.631 108.803 186.631 107.523C186.631 106.243 185.593 105.205 184.313 105.205C183.033 105.205 181.995 106.243 181.995 107.523C181.995 108.803 183.033 109.841 184.313 109.841Z" fill="white"/>
<path d="M192.88 107.524C192.88 108.804 193.918 109.84 195.198 109.84C196.365 109.84 197.294 108.96 197.453 107.834C196.569 106.969 195.667 106.121 194.746 105.296C193.69 105.514 192.88 106.403 192.88 107.524Z" fill="white"/>
<path d="M151.664 116.819C150.384 116.819 149.344 117.857 149.344 119.137C149.344 120.417 150.384 121.454 151.664 121.454C152.943 121.454 153.982 120.416 153.982 119.137C153.982 117.858 152.942 116.819 151.664 116.819Z" fill="white"/>
<path d="M162.547 121.455C163.827 121.455 164.865 120.417 164.865 119.137C164.865 117.857 163.827 116.819 162.547 116.819C161.267 116.819 160.23 117.857 160.23 119.137C160.23 120.417 161.267 121.455 162.547 121.455Z" fill="white"/>
<path d="M173.43 121.455C174.71 121.455 175.748 120.417 175.748 119.137C175.748 117.857 174.71 116.819 173.43 116.819C172.15 116.819 171.112 117.857 171.112 119.137C171.112 120.417 172.15 121.455 173.43 121.455Z" fill="white"/>
<path d="M184.313 121.455C185.593 121.455 186.631 120.417 186.631 119.137C186.631 117.857 185.593 116.819 184.313 116.819C183.033 116.819 181.995 117.857 181.995 119.137C181.995 120.417 183.033 121.455 184.313 121.455Z" fill="white"/>
<path d="M195.199 121.455C196.479 121.455 197.517 120.417 197.517 119.137C197.517 117.857 196.479 116.819 195.199 116.819C193.919 116.819 192.881 117.857 192.881 119.137C192.881 120.417 193.919 121.455 195.199 121.455Z" fill="white"/>
<path d="M203.765 119.137C203.765 120.417 204.801 121.454 206.082 121.454C206.873 121.454 207.541 121.03 207.959 120.422C207.16 119.238 206.327 118.081 205.467 116.943C204.494 117.217 203.765 118.074 203.765 119.137Z" fill="white"/>
<path d="M151.664 128.433C150.384 128.433 149.344 129.47 149.344 130.75C149.344 132.031 150.384 133.067 151.664 133.067C152.943 133.067 153.982 132.03 153.982 130.75C153.982 129.47 152.942 128.433 151.664 128.433Z" fill="white"/>
<path d="M162.547 133.068C163.827 133.068 164.865 132.03 164.865 130.75C164.865 129.47 163.827 128.433 162.547 128.433C161.267 128.433 160.23 129.47 160.23 130.75C160.23 132.03 161.267 133.068 162.547 133.068Z" fill="white"/>
<path d="M173.43 133.068C174.71 133.068 175.748 132.03 175.748 130.75C175.748 129.47 174.71 128.433 173.43 128.433C172.15 128.433 171.112 129.47 171.112 130.75C171.112 132.03 172.15 133.068 173.43 133.068Z" fill="white"/>
<path d="M184.313 133.068C185.593 133.068 186.631 132.03 186.631 130.75C186.631 129.47 185.593 128.433 184.313 128.433C183.033 128.433 181.995 129.47 181.995 130.75C181.995 132.03 183.033 133.068 184.313 133.068Z" fill="white"/>
<path d="M195.199 133.068C196.479 133.068 197.517 132.03 197.517 130.75C197.517 129.47 196.479 128.433 195.199 128.433C193.919 128.433 192.881 129.47 192.881 130.75C192.881 132.03 193.919 133.068 195.199 133.068Z" fill="white"/>
<path d="M206.083 133.068C207.363 133.068 208.401 132.03 208.401 130.75C208.401 129.47 207.363 128.433 206.083 128.433C204.803 128.433 203.765 129.47 203.765 130.75C203.765 132.03 204.803 133.068 206.083 133.068Z" fill="white"/>
<path d="M151.664 140.047C150.384 140.047 149.344 141.085 149.344 142.364C149.344 143.643 150.384 144.681 151.664 144.681C152.943 144.681 153.982 143.644 153.982 142.364C153.982 141.084 152.942 140.047 151.664 140.047Z" fill="white"/>
<path d="M162.547 144.681C163.827 144.681 164.864 143.643 164.864 142.364C164.864 141.084 163.827 140.047 162.547 140.047C161.268 140.047 160.23 141.084 160.23 142.364C160.23 143.643 161.268 144.681 162.547 144.681Z" fill="white"/>
<path d="M173.43 144.681C174.71 144.681 175.747 143.643 175.747 142.364C175.747 141.084 174.71 140.047 173.43 140.047C172.15 140.047 171.113 141.084 171.113 142.364C171.113 143.643 172.15 144.681 173.43 144.681Z" fill="white"/>
<path d="M184.313 144.681C185.593 144.681 186.63 143.643 186.63 142.364C186.63 141.084 185.593 140.047 184.313 140.047C183.033 140.047 181.996 141.084 181.996 142.364C181.996 143.643 183.033 144.681 184.313 144.681Z" fill="white"/>
<path d="M195.199 144.681C196.478 144.681 197.516 143.643 197.516 142.364C197.516 141.084 196.478 140.047 195.199 140.047C193.919 140.047 192.882 141.084 192.882 142.364C192.882 143.643 193.919 144.681 195.199 144.681Z" fill="white"/>
<path d="M206.083 144.681C207.362 144.681 208.4 143.643 208.4 142.364C208.4 141.084 207.362 140.047 206.083 140.047C204.803 140.047 203.766 141.084 203.766 142.364C203.766 143.643 204.803 144.681 206.083 144.681Z" fill="white"/>
<path d="M214.648 142.365C214.648 143.644 215.685 144.681 216.965 144.681C217.697 144.681 218.322 144.321 218.746 143.791C218.407 142.578 218.042 141.375 217.647 140.184C217.429 140.116 217.207 140.047 216.965 140.047C215.685 140.047 214.648 141.085 214.648 142.365Z" fill="white"/>
<path d="M151.664 151.66C150.384 151.66 149.344 152.698 149.344 153.979C149.344 155.258 150.384 156.296 151.664 156.296C152.943 156.296 153.982 155.258 153.982 153.979C153.982 152.697 152.942 151.66 151.664 151.66Z" fill="white"/>
<path d="M162.547 156.296C163.827 156.296 164.865 155.258 164.865 153.978C164.865 152.698 163.827 151.66 162.547 151.66C161.267 151.66 160.23 152.698 160.23 153.978C160.23 155.258 161.267 156.296 162.547 156.296Z" fill="white"/>
<path d="M173.43 156.296C174.71 156.296 175.748 155.258 175.748 153.978C175.748 152.698 174.71 151.66 173.43 151.66C172.15 151.66 171.112 152.698 171.112 153.978C171.112 155.258 172.15 156.296 173.43 156.296Z" fill="white"/>
<path d="M184.313 156.296C185.593 156.296 186.631 155.258 186.631 153.978C186.631 152.698 185.593 151.66 184.313 151.66C183.033 151.66 181.995 152.698 181.995 153.978C181.995 155.258 183.033 156.296 184.313 156.296Z" fill="white"/>
<path d="M195.199 156.296C196.479 156.296 197.517 155.258 197.517 153.978C197.517 152.698 196.479 151.66 195.199 151.66C193.919 151.66 192.881 152.698 192.881 153.978C192.881 155.258 193.919 156.296 195.199 156.296Z" fill="white"/>
<path d="M206.083 156.296C207.363 156.296 208.401 155.258 208.401 153.978C208.401 152.698 207.363 151.66 206.083 151.66C204.803 151.66 203.765 152.698 203.765 153.978C203.765 155.258 204.803 156.296 206.083 156.296Z" fill="white"/>
<path d="M216.964 156.296C218.244 156.296 219.282 155.258 219.282 153.978C219.282 152.698 218.244 151.66 216.964 151.66C215.684 151.66 214.647 152.698 214.647 153.978C214.647 155.258 215.684 156.296 216.964 156.296Z" fill="white"/>
<path d="M151.664 163.274C150.384 163.274 149.344 164.312 149.344 165.592C149.344 166.871 150.384 167.908 151.664 167.908C152.943 167.908 153.982 166.871 153.982 165.592C153.982 164.312 152.942 163.274 151.664 163.274Z" fill="white"/>
<path d="M162.547 167.908C163.827 167.908 164.864 166.87 164.864 165.591C164.864 164.311 163.827 163.274 162.547 163.274C161.268 163.274 160.23 164.311 160.23 165.591C160.23 166.87 161.268 167.908 162.547 167.908Z" fill="white"/>
<path d="M173.43 167.908C174.71 167.908 175.747 166.87 175.747 165.591C175.747 164.311 174.71 163.274 173.43 163.274C172.15 163.274 171.113 164.311 171.113 165.591C171.113 166.87 172.15 167.908 173.43 167.908Z" fill="white"/>
<path d="M184.313 167.908C185.593 167.908 186.63 166.87 186.63 165.591C186.63 164.311 185.593 163.274 184.313 163.274C183.033 163.274 181.996 164.311 181.996 165.591C181.996 166.87 183.033 167.908 184.313 167.908Z" fill="white"/>
<path d="M195.199 167.908C196.478 167.908 197.516 166.87 197.516 165.591C197.516 164.311 196.478 163.274 195.199 163.274C193.919 163.274 192.882 164.311 192.882 165.591C192.882 166.87 193.919 167.908 195.199 167.908Z" fill="white"/>
<path d="M206.083 167.908C207.362 167.908 208.4 166.87 208.4 165.591C208.4 164.311 207.362 163.274 206.083 163.274C204.803 163.274 203.766 164.311 203.766 165.591C203.766 166.87 204.803 167.908 206.083 167.908Z" fill="white"/>
<path d="M216.964 167.908C218.244 167.908 219.281 166.87 219.281 165.591C219.281 164.311 218.244 163.274 216.964 163.274C215.685 163.274 214.647 164.311 214.647 165.591C214.647 166.87 215.685 167.908 216.964 167.908Z" fill="white"/>
<path d="M64.7301 179.568C66.0101 179.568 67.0478 178.53 67.0478 177.25C67.0478 175.97 66.0101 174.933 64.7301 174.933C63.45 174.933 62.4124 175.97 62.4124 177.25C62.4124 178.53 63.45 179.568 64.7301 179.568Z" fill="white"/>
<path d="M75.6134 179.568C76.8934 179.568 77.9311 178.53 77.9311 177.25C77.9311 175.97 76.8934 174.933 75.6134 174.933C74.3333 174.933 73.2957 175.97 73.2957 177.25C73.2957 178.53 74.3333 179.568 75.6134 179.568Z" fill="white"/>
<path d="M86.4964 179.568C87.7765 179.568 88.8141 178.53 88.8141 177.25C88.8141 175.97 87.7765 174.933 86.4964 174.933C85.2164 174.933 84.1787 175.97 84.1787 177.25C84.1787 178.53 85.2164 179.568 86.4964 179.568Z" fill="white"/>
<path d="M97.3791 174.933C96.1017 174.933 95.063 175.97 95.063 177.25C95.063 178.53 96.1017 179.568 97.3791 179.568C98.6605 179.568 99.7001 178.53 99.7001 177.25C99.7001 175.969 98.6605 174.933 97.3791 174.933Z" fill="white"/>
<path d="M108.265 179.568C109.545 179.568 110.583 178.53 110.583 177.25C110.583 175.97 109.545 174.933 108.265 174.933C106.985 174.933 105.948 175.97 105.948 177.25C105.948 178.53 106.985 179.568 108.265 179.568Z" fill="white"/>
<path d="M119.149 179.568C120.429 179.568 121.466 178.53 121.466 177.25C121.466 175.97 120.429 174.933 119.149 174.933C117.869 174.933 116.831 175.97 116.831 177.25C116.831 178.53 117.869 179.568 119.149 179.568Z" fill="white"/>
<path d="M130.031 179.568C131.311 179.568 132.349 178.53 132.349 177.25C132.349 175.97 131.311 174.933 130.031 174.933C128.751 174.933 127.713 175.97 127.713 177.25C127.713 178.53 128.751 179.568 130.031 179.568Z" fill="white"/>
<path d="M140.915 179.568C142.195 179.568 143.233 178.53 143.233 177.25C143.233 175.97 142.195 174.933 140.915 174.933C139.635 174.933 138.597 175.97 138.597 177.25C138.597 178.53 139.635 179.568 140.915 179.568Z" fill="white"/>
<path d="M67.0485 188.863C67.0485 187.583 66.0082 186.546 64.7308 186.546C63.9958 186.546 63.3744 186.907 62.9473 187.436C63.2864 188.651 63.651 189.853 64.0469 191.044C64.265 191.113 64.4888 191.182 64.7308 191.182C66.0082 191.181 67.0485 190.143 67.0485 188.863Z" fill="white"/>
<path d="M75.6134 191.181C76.8934 191.181 77.9311 190.144 77.9311 188.864C77.9311 187.584 76.8934 186.546 75.6134 186.546C74.3333 186.546 73.2957 187.584 73.2957 188.864C73.2957 190.144 74.3333 191.181 75.6134 191.181Z" fill="white"/>
<path d="M86.4964 191.181C87.7765 191.181 88.8141 190.144 88.8141 188.864C88.8141 187.584 87.7765 186.546 86.4964 186.546C85.2164 186.546 84.1787 187.584 84.1787 188.864C84.1787 190.144 85.2164 191.181 86.4964 191.181Z" fill="white"/>
<path d="M97.3791 186.546C96.1017 186.546 95.063 187.584 95.063 188.863C95.063 190.142 96.1017 191.181 97.3791 191.181C98.6605 191.181 99.7001 190.142 99.7001 188.863C99.7001 187.584 98.6605 186.546 97.3791 186.546Z" fill="white"/>
<path d="M108.265 191.181C109.545 191.181 110.583 190.144 110.583 188.864C110.583 187.584 109.545 186.546 108.265 186.546C106.985 186.546 105.948 187.584 105.948 188.864C105.948 190.144 106.985 191.181 108.265 191.181Z" fill="white"/>
<path d="M119.149 191.181C120.429 191.181 121.466 190.144 121.466 188.864C121.466 187.584 120.429 186.546 119.149 186.546C117.869 186.546 116.831 187.584 116.831 188.864C116.831 190.144 117.869 191.181 119.149 191.181Z" fill="white"/>
<path d="M130.031 191.181C131.311 191.181 132.349 190.144 132.349 188.864C132.349 187.584 131.311 186.546 130.031 186.546C128.751 186.546 127.713 187.584 127.713 188.864C127.713 190.144 128.751 191.181 130.031 191.181Z" fill="white"/>
<path d="M140.915 191.181C142.195 191.181 143.233 190.144 143.233 188.864C143.233 187.584 142.195 186.546 140.915 186.546C139.635 186.546 138.597 187.584 138.597 188.864C138.597 190.144 139.635 191.181 140.915 191.181Z" fill="white"/>
<path d="M75.6134 202.795C76.8934 202.795 77.9311 201.757 77.9311 200.477C77.9311 199.197 76.8934 198.159 75.6134 198.159C74.3333 198.159 73.2957 199.197 73.2957 200.477C73.2957 201.757 74.3333 202.795 75.6134 202.795Z" fill="white"/>
<path d="M86.4964 202.795C87.7765 202.795 88.8141 201.757 88.8141 200.477C88.8141 199.197 87.7765 198.159 86.4964 198.159C85.2164 198.159 84.1787 199.197 84.1787 200.477C84.1787 201.757 85.2164 202.795 86.4964 202.795Z" fill="white"/>
<path d="M97.3791 198.159C96.1017 198.159 95.063 199.196 95.063 200.478C95.063 201.757 96.1017 202.794 97.3791 202.794C98.6605 202.794 99.7001 201.757 99.7001 200.478C99.7001 199.197 98.6605 198.159 97.3791 198.159Z" fill="white"/>
<path d="M108.265 202.795C109.545 202.795 110.583 201.757 110.583 200.477C110.583 199.197 109.545 198.159 108.265 198.159C106.985 198.159 105.948 199.197 105.948 200.477C105.948 201.757 106.985 202.795 108.265 202.795Z" fill="white"/>
<path d="M119.149 202.795C120.429 202.795 121.466 201.757 121.466 200.477C121.466 199.197 120.429 198.159 119.149 198.159C117.869 198.159 116.831 199.197 116.831 200.477C116.831 201.757 117.869 202.795 119.149 202.795Z" fill="white"/>
<path d="M130.031 202.795C131.311 202.795 132.349 201.757 132.349 200.477C132.349 199.197 131.311 198.159 130.031 198.159C128.751 198.159 127.713 199.197 127.713 200.477C127.713 201.757 128.751 202.795 130.031 202.795Z" fill="white"/>
<path d="M140.915 202.795C142.195 202.795 143.233 201.757 143.233 200.477C143.233 199.197 142.195 198.159 140.915 198.159C139.635 198.159 138.597 199.197 138.597 200.477C138.597 201.757 139.635 202.795 140.915 202.795Z" fill="white"/>
<path d="M77.9311 212.091C77.9311 210.81 76.8949 209.773 75.6142 209.773C74.8208 209.773 74.1541 210.198 73.7368 210.806C74.536 211.989 75.3706 213.147 76.2274 214.284C77.2019 214.01 77.9311 213.153 77.9311 212.091Z" fill="white"/>
<path d="M86.4964 214.408C87.7765 214.408 88.8141 213.371 88.8141 212.091C88.8141 210.811 87.7765 209.773 86.4964 209.773C85.2164 209.773 84.1787 210.811 84.1787 212.091C84.1787 213.371 85.2164 214.408 86.4964 214.408Z" fill="white"/>
<path d="M97.3791 209.773C96.1017 209.773 95.063 210.811 95.063 212.091C95.063 213.37 96.1017 214.408 97.3791 214.408C98.6605 214.408 99.7001 213.369 99.7001 212.091C99.7001 210.81 98.6605 209.773 97.3791 209.773Z" fill="white"/>
<path d="M108.265 214.408C109.545 214.408 110.583 213.371 110.583 212.091C110.583 210.811 109.545 209.773 108.265 209.773C106.985 209.773 105.948 210.811 105.948 212.091C105.948 213.371 106.985 214.408 108.265 214.408Z" fill="white"/>
<path d="M119.149 214.408C120.429 214.408 121.466 213.371 121.466 212.091C121.466 210.811 120.429 209.773 119.149 209.773C117.869 209.773 116.831 210.811 116.831 212.091C116.831 213.371 117.869 214.408 119.149 214.408Z" fill="white"/>
<path d="M130.031 214.408C131.311 214.408 132.349 213.371 132.349 212.091C132.349 210.811 131.311 209.773 130.031 209.773C128.751 209.773 127.713 210.811 127.713 212.091C127.713 213.371 128.751 214.408 130.031 214.408Z" fill="white"/>
<path d="M140.915 214.408C142.195 214.408 143.233 213.371 143.233 212.091C143.233 210.811 142.195 209.773 140.915 209.773C139.635 209.773 138.597 210.811 138.597 212.091C138.597 213.371 139.635 214.408 140.915 214.408Z" fill="white"/>
<path d="M88.8134 223.705C88.8134 222.424 87.7772 221.388 86.4965 221.388C85.3262 221.388 84.401 222.267 84.2422 223.394C85.1261 224.259 86.0274 225.106 86.9484 225.932C88.0044 225.714 88.8134 224.824 88.8134 223.705Z" fill="white"/>
<path d="M97.3791 221.387C96.1017 221.387 95.063 222.423 95.063 223.704C95.063 224.984 96.1017 226.021 97.3791 226.021C98.6605 226.021 99.7001 224.984 99.7001 223.704C99.7001 222.423 98.6605 221.387 97.3791 221.387Z" fill="white"/>
<path d="M108.265 226.022C109.545 226.022 110.582 224.985 110.582 223.705C110.582 222.425 109.545 221.388 108.265 221.388C106.986 221.388 105.948 222.425 105.948 223.705C105.948 224.985 106.986 226.022 108.265 226.022Z" fill="white"/>
<path d="M119.149 226.022C120.428 226.022 121.466 224.985 121.466 223.705C121.466 222.425 120.428 221.388 119.149 221.388C117.869 221.388 116.832 222.425 116.832 223.705C116.832 224.985 117.869 226.022 119.149 226.022Z" fill="white"/>
<path d="M130.031 226.022C131.311 226.022 132.348 224.985 132.348 223.705C132.348 222.425 131.311 221.388 130.031 221.388C128.751 221.388 127.714 222.425 127.714 223.705C127.714 224.985 128.751 226.022 130.031 226.022Z" fill="white"/>
<path d="M140.915 226.022C142.195 226.022 143.232 224.985 143.232 223.705C143.232 222.425 142.195 221.388 140.915 221.388C139.636 221.388 138.598 222.425 138.598 223.705C138.598 224.985 139.636 226.022 140.915 226.022Z" fill="white"/>
<path d="M97.379 233C97.0382 233 96.7197 233.085 96.425 233.219C97.4958 233.922 98.5814 234.602 99.6852 235.258C99.6531 234.005 98.6399 233 97.379 233Z" fill="white"/>
<path d="M108.265 237.634C109.545 237.634 110.582 236.597 110.582 235.317C110.582 234.038 109.545 233 108.265 233C106.986 233 105.948 234.038 105.948 235.317C105.948 236.597 106.986 237.634 108.265 237.634Z" fill="white"/>
<path d="M119.149 237.634C120.428 237.634 121.466 236.597 121.466 235.317C121.466 234.038 120.428 233 119.149 233C117.869 233 116.832 234.038 116.832 235.317C116.832 236.597 117.869 237.634 119.149 237.634Z" fill="white"/>
<path d="M130.031 237.634C131.311 237.634 132.348 236.597 132.348 235.317C132.348 234.038 131.311 233 130.031 233C128.751 233 127.714 234.038 127.714 235.317C127.714 236.597 128.751 237.634 130.031 237.634Z" fill="white"/>
<path d="M140.915 237.634C142.195 237.634 143.232 236.597 143.232 235.317C143.232 234.038 142.195 233 140.915 233C139.636 233 138.598 234.038 138.598 235.317C138.598 236.597 139.636 237.634 140.915 237.634Z" fill="white"/>
<path d="M130.031 244.616C129.29 244.616 128.657 244.988 128.233 245.533C129.534 245.736 130.85 245.905 132.17 246.048C131.823 245.207 130.997 244.616 130.031 244.616Z" fill="white"/>
<path d="M140.915 244.616C139.803 244.616 138.917 245.415 138.694 246.462C139.412 246.48 140.127 246.515 140.848 246.515C141.614 246.515 142.375 246.48 143.138 246.457C142.914 245.414 142.027 244.616 140.915 244.616Z" fill="white"/>
<path d="M151.664 174.933C150.384 174.933 149.344 175.97 149.344 177.25C149.344 178.53 150.384 179.568 151.664 179.568C152.943 179.568 153.982 178.53 153.982 177.25C153.982 175.969 152.942 174.933 151.664 174.933Z" fill="white"/>
<path d="M162.547 179.568C163.827 179.568 164.865 178.53 164.865 177.25C164.865 175.97 163.827 174.933 162.547 174.933C161.267 174.933 160.23 175.97 160.23 177.25C160.23 178.53 161.267 179.568 162.547 179.568Z" fill="white"/>
<path d="M173.43 179.568C174.71 179.568 175.748 178.53 175.748 177.25C175.748 175.97 174.71 174.933 173.43 174.933C172.15 174.933 171.112 175.97 171.112 177.25C171.112 178.53 172.15 179.568 173.43 179.568Z" fill="white"/>
<path d="M184.313 179.568C185.593 179.568 186.631 178.53 186.631 177.25C186.631 175.97 185.593 174.933 184.313 174.933C183.033 174.933 181.995 175.97 181.995 177.25C181.995 178.53 183.033 179.568 184.313 179.568Z" fill="white"/>
<path d="M195.199 179.568C196.479 179.568 197.517 178.53 197.517 177.25C197.517 175.97 196.479 174.933 195.199 174.933C193.919 174.933 192.881 175.97 192.881 177.25C192.881 178.53 193.919 179.568 195.199 179.568Z" fill="white"/>
<path d="M206.083 179.568C207.363 179.568 208.401 178.53 208.401 177.25C208.401 175.97 207.363 174.933 206.083 174.933C204.803 174.933 203.765 175.97 203.765 177.25C203.765 178.53 204.803 179.568 206.083 179.568Z" fill="white"/>
<path d="M216.964 179.568C218.244 179.568 219.282 178.53 219.282 177.25C219.282 175.97 218.244 174.933 216.964 174.933C215.684 174.933 214.647 175.97 214.647 177.25C214.647 178.53 215.684 179.568 216.964 179.568Z" fill="white"/>
<path d="M151.664 186.546C150.384 186.546 149.344 187.584 149.344 188.863C149.344 190.142 150.384 191.181 151.664 191.181C152.943 191.181 153.982 190.142 153.982 188.863C153.982 187.584 152.942 186.546 151.664 186.546Z" fill="white"/>
<path d="M162.547 191.181C163.827 191.181 164.865 190.144 164.865 188.864C164.865 187.584 163.827 186.546 162.547 186.546C161.267 186.546 160.23 187.584 160.23 188.864C160.23 190.144 161.267 191.181 162.547 191.181Z" fill="white"/>
<path d="M173.43 191.181C174.71 191.181 175.748 190.144 175.748 188.864C175.748 187.584 174.71 186.546 173.43 186.546C172.15 186.546 171.112 187.584 171.112 188.864C171.112 190.144 172.15 191.181 173.43 191.181Z" fill="white"/>
<path d="M184.313 191.181C185.593 191.181 186.631 190.144 186.631 188.864C186.631 187.584 185.593 186.546 184.313 186.546C183.033 186.546 181.995 187.584 181.995 188.864C181.995 190.144 183.033 191.181 184.313 191.181Z" fill="white"/>
<path d="M195.199 191.181C196.479 191.181 197.517 190.144 197.517 188.864C197.517 187.584 196.479 186.546 195.199 186.546C193.919 186.546 192.881 187.584 192.881 188.864C192.881 190.144 193.919 191.181 195.199 191.181Z" fill="white"/>
<path d="M206.083 191.181C207.363 191.181 208.401 190.144 208.401 188.864C208.401 187.584 207.363 186.546 206.083 186.546C204.803 186.546 203.765 187.584 203.765 188.864C203.765 190.144 204.803 191.181 206.083 191.181Z" fill="white"/>
<path d="M216.965 186.546C215.684 186.546 214.648 187.584 214.648 188.863C214.648 190.142 215.685 191.181 216.965 191.181C217.207 191.181 217.429 191.111 217.647 191.043C218.041 189.851 218.407 188.65 218.746 187.435C218.323 186.907 217.697 186.546 216.965 186.546Z" fill="white"/>
<path d="M151.664 198.159C150.384 198.159 149.344 199.196 149.344 200.478C149.344 201.757 150.384 202.794 151.664 202.794C152.943 202.794 153.982 201.757 153.982 200.478C153.982 199.197 152.942 198.159 151.664 198.159Z" fill="white"/>
<path d="M162.547 202.795C163.827 202.795 164.865 201.757 164.865 200.477C164.865 199.197 163.827 198.159 162.547 198.159C161.267 198.159 160.23 199.197 160.23 200.477C160.23 201.757 161.267 202.795 162.547 202.795Z" fill="white"/>
<path d="M173.43 202.795C174.71 202.795 175.748 201.757 175.748 200.477C175.748 199.197 174.71 198.159 173.43 198.159C172.15 198.159 171.112 199.197 171.112 200.477C171.112 201.757 172.15 202.795 173.43 202.795Z" fill="white"/>
<path d="M184.313 202.795C185.593 202.795 186.631 201.757 186.631 200.477C186.631 199.197 185.593 198.159 184.313 198.159C183.033 198.159 181.995 199.197 181.995 200.477C181.995 201.757 183.033 202.795 184.313 202.795Z" fill="white"/>
<path d="M195.199 202.795C196.479 202.795 197.517 201.757 197.517 200.477C197.517 199.197 196.479 198.159 195.199 198.159C193.919 198.159 192.881 199.197 192.881 200.477C192.881 201.757 193.919 202.795 195.199 202.795Z" fill="white"/>
<path d="M206.083 202.795C207.363 202.795 208.401 201.757 208.401 200.477C208.401 199.197 207.363 198.159 206.083 198.159C204.803 198.159 203.765 199.197 203.765 200.477C203.765 201.757 204.803 202.795 206.083 202.795Z" fill="white"/>
<path d="M151.664 209.773C150.384 209.773 149.344 210.811 149.344 212.091C149.344 213.37 150.384 214.408 151.664 214.408C152.943 214.408 153.982 213.369 153.982 212.091C153.982 210.81 152.942 209.773 151.664 209.773Z" fill="white"/>
<path d="M162.547 214.408C163.827 214.408 164.865 213.371 164.865 212.091C164.865 210.811 163.827 209.773 162.547 209.773C161.267 209.773 160.23 210.811 160.23 212.091C160.23 213.371 161.267 214.408 162.547 214.408Z" fill="white"/>
<path d="M173.43 214.408C174.71 214.408 175.748 213.371 175.748 212.091C175.748 210.811 174.71 209.773 173.43 209.773C172.15 209.773 171.112 210.811 171.112 212.091C171.112 213.371 172.15 214.408 173.43 214.408Z" fill="white"/>
<path d="M184.313 214.408C185.593 214.408 186.631 213.371 186.631 212.091C186.631 210.811 185.593 209.773 184.313 209.773C183.033 209.773 181.995 210.811 181.995 212.091C181.995 213.371 183.033 214.408 184.313 214.408Z" fill="white"/>
<path d="M195.199 214.408C196.479 214.408 197.517 213.371 197.517 212.091C197.517 210.811 196.479 209.773 195.199 209.773C193.919 209.773 192.881 210.811 192.881 212.091C192.881 213.371 193.919 214.408 195.199 214.408Z" fill="white"/>
<path d="M206.083 209.773C204.801 209.773 203.766 210.811 203.766 212.091C203.766 213.153 204.494 214.01 205.468 214.284C206.327 213.147 207.161 211.989 207.96 210.806C207.542 210.198 206.874 209.773 206.083 209.773Z" fill="white"/>
<path d="M151.664 221.387C150.384 221.387 149.344 222.423 149.344 223.704C149.344 224.984 150.384 226.021 151.664 226.021C152.943 226.021 153.982 224.984 153.982 223.704C153.982 222.423 152.942 221.387 151.664 221.387Z" fill="white"/>
<path d="M162.547 226.022C163.827 226.022 164.864 224.985 164.864 223.705C164.864 222.425 163.827 221.388 162.547 221.388C161.268 221.388 160.23 222.425 160.23 223.705C160.23 224.985 161.268 226.022 162.547 226.022Z" fill="white"/>
<path d="M173.43 226.022C174.71 226.022 175.747 224.985 175.747 223.705C175.747 222.425 174.71 221.388 173.43 221.388C172.15 221.388 171.113 222.425 171.113 223.705C171.113 224.985 172.15 226.022 173.43 226.022Z" fill="white"/>
<path d="M184.313 226.022C185.593 226.022 186.63 224.985 186.63 223.705C186.63 222.425 185.593 221.388 184.313 221.388C183.033 221.388 181.996 222.425 181.996 223.705C181.996 224.985 183.033 226.022 184.313 226.022Z" fill="white"/>
<path d="M195.199 221.387C193.918 221.387 192.881 222.423 192.881 223.704C192.881 224.823 193.691 225.713 194.747 225.931C195.668 225.105 196.57 224.258 197.454 223.393C197.295 222.267 196.366 221.387 195.199 221.387Z" fill="white"/>
<path d="M151.664 233C150.384 233 149.344 234.038 149.344 235.317C149.344 236.599 150.384 237.634 151.664 237.634C152.943 237.634 153.982 236.599 153.982 235.317C153.982 234.038 152.942 233 151.664 233Z" fill="white"/>
<path d="M162.547 237.634C163.827 237.634 164.864 236.597 164.864 235.317C164.864 234.038 163.827 233 162.547 233C161.268 233 160.23 234.038 160.23 235.317C160.23 236.597 161.268 237.634 162.547 237.634Z" fill="white"/>
<path d="M173.43 237.634C174.71 237.634 175.747 236.597 175.747 235.317C175.747 234.038 174.71 233 173.43 233C172.15 233 171.113 234.038 171.113 235.317C171.113 236.597 172.15 237.634 173.43 237.634Z" fill="white"/>
<path d="M182.009 235.257C183.114 234.602 184.2 233.922 185.268 233.218C184.976 233.084 184.658 233 184.313 233C183.056 233 182.043 234.005 182.009 235.257Z" fill="white"/>
<path d="M151.664 244.616C150.696 244.616 149.873 245.207 149.523 246.048C150.846 245.905 152.159 245.736 153.46 245.533C153.037 244.988 152.406 244.616 151.664 244.616Z" fill="white"/>
</g>
<g style="mix-blend-mode:multiply" opacity="0.2">
<circle cx="100.853" cy="100.853" r="100.853" transform="matrix(-1 0 0 1 255 0.895508)" fill="#436CF4"/>
</g>
</svg>
