<svg width="25" height="25" viewBox="0 0 25 25" fill="none" xmlns="http://www.w3.org/2000/svg">
  <path d="M23.275 6.51039C22.5071 6.85172 21.6807 7.08196 20.8136 7.18499C21.6989 6.65498 22.3778 5.81542 22.6979 4.8139C21.8698 5.30533 20.9531 5.66193 19.9766 5.85443C19.1951 5.02167 18.0812 4.50098 16.8486 4.50098C14.4822 4.50098 12.5635 6.41965 12.5635 8.7865C12.5635 9.1219 12.6013 9.44881 12.6746 9.76301C9.11288 9.58407 5.95481 7.87826 3.84109 5.2854C3.4722 5.91804 3.26104 6.65413 3.26104 7.44025C3.26104 8.92685 4.01748 10.2388 5.16741 11.0071C4.46524 10.9846 3.8042 10.7917 3.22627 10.4707C3.22585 10.4885 3.22585 10.5067 3.22585 10.525C3.22585 12.6009 4.70312 14.3326 6.66376 14.727C6.3042 14.8245 5.92555 14.8771 5.53461 14.8771C5.25815 14.8771 4.98975 14.8503 4.72813 14.7999C5.27384 16.5023 6.85627 17.7417 8.73126 17.7761C7.26459 18.9256 5.41716 19.6108 3.40902 19.6108C3.06345 19.6108 2.72212 19.5904 2.38672 19.5506C4.28376 20.7671 6.53613 21.476 8.95599 21.476C16.8389 21.476 21.149 14.9462 21.149 9.28302C21.149 9.0973 21.1452 8.91201 21.1371 8.72799C21.9741 8.12504 22.7009 7.36987 23.275 6.51039Z" fill="white"/>
</svg>